G04 EAGLE Gerber RS-274X export*
G75*
%MOMM*%
%FSLAX34Y34*%
%LPD*%
%INTop Soldermask*%
%IPPOS*%
%AMOC8*
5,1,8,0,0,1.08239X$1,22.5*%
G01*
%ADD10R,1.703200X1.443200*%
%ADD11R,1.203200X1.278200*%
%ADD12C,0.903200*%
%ADD13R,2.703200X2.703200*%
%ADD14C,1.511200*%
%ADD15R,1.203200X2.203200*%
%ADD16R,0.500000X1.450000*%
%ADD17R,0.753200X1.403200*%
%ADD18C,1.203200*%
%ADD19C,1.727200*%
%ADD20R,1.103200X1.103200*%
%ADD21R,1.103200X1.003200*%
%ADD22R,1.113200X1.423200*%
%ADD23R,1.003200X1.003200*%
%ADD24C,0.959600*%


D10*
X57150Y162510D03*
X57150Y143510D03*
D11*
X101600Y161780D03*
X101600Y144780D03*
D10*
X85090Y162510D03*
X85090Y143510D03*
D12*
X146500Y269240D03*
X107500Y269240D03*
D13*
X91000Y288240D03*
X163000Y288240D03*
D14*
X160000Y260240D02*
X173080Y260240D01*
X94000Y260240D02*
X80920Y260240D01*
D15*
X134500Y289240D03*
X119500Y289240D03*
D16*
X140000Y261490D03*
X133500Y261490D03*
X127000Y261490D03*
X120500Y261490D03*
X114000Y261490D03*
D17*
X37490Y178769D03*
X46990Y178769D03*
X56490Y178769D03*
X56490Y204771D03*
X37490Y204771D03*
X56490Y249221D03*
X46990Y249221D03*
X37490Y249221D03*
X37490Y223219D03*
X56490Y223219D03*
D11*
X77470Y203980D03*
X77470Y220980D03*
D10*
X166370Y232360D03*
X166370Y213360D03*
D11*
X210820Y222740D03*
X210820Y205740D03*
D18*
X190500Y218200D03*
X190500Y188200D03*
D19*
X137160Y106680D02*
X137160Y91440D01*
X162560Y91440D02*
X162560Y106680D01*
X90170Y106680D02*
X90170Y91440D01*
X115570Y91440D02*
X115570Y106680D01*
D20*
X191950Y165480D03*
X191950Y149480D03*
X150950Y149480D03*
X150950Y165480D03*
D21*
X105570Y192380D03*
X105570Y173380D03*
X126570Y182880D03*
D11*
X91440Y203590D03*
X91440Y220590D03*
D22*
X113165Y232410D03*
X145915Y232410D03*
X114435Y213360D03*
X147185Y213360D03*
D23*
X192790Y274450D03*
X192790Y259450D03*
D24*
X120142Y139700D03*
X170180Y142240D03*
X68580Y194310D03*
X136122Y188396D03*
X29210Y151130D03*
X145514Y200660D03*
X204470Y269240D03*
X64770Y246380D03*
X186690Y138430D03*
X83566Y233172D03*
X93753Y233453D03*
X38100Y166370D03*
X201930Y157480D03*
X133350Y234950D03*
X69850Y172720D03*
X43180Y142240D03*
X125984Y228600D03*
X83820Y179832D03*
X29210Y172720D03*
M02*
