G04 EAGLE Gerber RS-274X export*
G75*
%MOMM*%
%FSLAX34Y34*%
%LPD*%
%INBottom Soldermask*%
%IPPOS*%
%AMOC8*
5,1,8,0,0,1.08239X$1,22.5*%
G01*
%ADD10C,0.903200*%
%ADD11R,2.703200X2.703200*%
%ADD12C,1.511200*%
%ADD13R,1.203200X1.278200*%
%ADD14R,0.503200X0.653200*%
%ADD15R,0.653200X0.503200*%
%ADD16R,1.703200X1.203200*%
%ADD17C,1.203200*%
%ADD18C,1.727200*%
%ADD19R,1.003200X1.003200*%
%ADD20C,0.555478*%
%ADD21R,0.350000X0.900000*%
%ADD22R,0.900000X0.350000*%
%ADD23R,1.278200X1.203200*%
%ADD24C,0.959600*%


D10*
X146500Y269240D03*
X107500Y269240D03*
D11*
X91000Y288240D03*
X163000Y288240D03*
D12*
X160000Y260240D02*
X173080Y260240D01*
X94000Y260240D02*
X80920Y260240D01*
D13*
X104140Y172330D03*
X104140Y155330D03*
X88900Y168520D03*
X88900Y151520D03*
D14*
X124460Y216210D03*
X124460Y197810D03*
X130460Y216210D03*
X118460Y216210D03*
X130460Y197810D03*
X118460Y197810D03*
D15*
X133660Y210010D03*
X115260Y210010D03*
X133660Y204010D03*
X115260Y204010D03*
D16*
X218500Y178200D03*
X218500Y203200D03*
X218500Y228200D03*
X162500Y228200D03*
X162500Y203200D03*
X162500Y178200D03*
D17*
X190500Y218200D03*
X190500Y188200D03*
D18*
X137160Y106680D02*
X137160Y91440D01*
X162560Y91440D02*
X162560Y106680D01*
X90170Y106680D02*
X90170Y91440D01*
X115570Y91440D02*
X115570Y106680D01*
D13*
X45720Y267580D03*
X45720Y250580D03*
D19*
X68580Y270630D03*
X68580Y285630D03*
D20*
X74159Y222749D02*
X74159Y191271D01*
X42681Y191271D01*
X42681Y222749D01*
X74159Y222749D01*
X74159Y196548D02*
X42681Y196548D01*
X42681Y201825D02*
X74159Y201825D01*
X74159Y207102D02*
X42681Y207102D01*
X42681Y212379D02*
X74159Y212379D01*
X74159Y217656D02*
X42681Y217656D01*
D21*
X75920Y182010D03*
X70920Y182010D03*
X65920Y182010D03*
X60920Y182010D03*
X55920Y182010D03*
X50920Y182010D03*
X45920Y182010D03*
X40920Y182010D03*
D22*
X33420Y189510D03*
X33420Y194510D03*
X33420Y199510D03*
X33420Y204510D03*
X33420Y209510D03*
X33420Y214510D03*
X33420Y219510D03*
X33420Y224510D03*
D21*
X40920Y232010D03*
X45920Y232010D03*
X50920Y232010D03*
X55920Y232010D03*
X60920Y232010D03*
X65920Y232010D03*
X70920Y232010D03*
X75920Y232010D03*
D22*
X83420Y224510D03*
X83420Y219510D03*
X83420Y214510D03*
X83420Y209510D03*
X83420Y204510D03*
X83420Y199510D03*
X83420Y194510D03*
X83420Y189510D03*
D23*
X135500Y248920D03*
X118500Y248920D03*
D13*
X140970Y174870D03*
X140970Y157870D03*
X127000Y174870D03*
X127000Y157870D03*
D24*
X120142Y139700D03*
X170180Y142240D03*
X68580Y194310D03*
X136122Y188396D03*
X29210Y151130D03*
X145514Y200660D03*
X204470Y269240D03*
X64770Y246380D03*
X186690Y138430D03*
X83566Y233172D03*
X93753Y233453D03*
X38100Y166370D03*
X201930Y157480D03*
X133350Y234950D03*
X69850Y172720D03*
X43180Y142240D03*
X125984Y228600D03*
X83820Y179832D03*
X29210Y172720D03*
M02*
