G04 EAGLE Gerber RS-274X export*
G75*
%MOMM*%
%FSLAX34Y34*%
%LPD*%
%INBottom Copper*%
%IPPOS*%
%AMOC8*
5,1,8,0,0,1.08239X$1,22.5*%
G01*
%ADD10R,2.500000X2.500000*%
%ADD11C,1.308000*%
%ADD12R,1.000000X1.075000*%
%ADD13R,0.300000X0.450000*%
%ADD14R,0.450000X0.300000*%
%ADD15R,1.500000X1.000000*%
%ADD16C,1.524000*%
%ADD17R,0.800000X0.800000*%
%ADD18C,0.350000*%
%ADD19R,0.250000X0.800000*%
%ADD20R,0.800000X0.250000*%
%ADD21R,1.075000X1.000000*%
%ADD22C,0.152400*%
%ADD23C,0.756400*%
%ADD24C,0.203200*%
%ADD25C,0.254000*%

G36*
X107699Y229085D02*
X107699Y229085D01*
X107812Y229082D01*
X107841Y229090D01*
X107870Y229091D01*
X107978Y229126D01*
X108087Y229154D01*
X108113Y229169D01*
X108141Y229178D01*
X108205Y229224D01*
X108332Y229299D01*
X108375Y229345D01*
X108414Y229373D01*
X108912Y229871D01*
X114554Y229871D01*
X114612Y229879D01*
X114670Y229877D01*
X114752Y229899D01*
X114836Y229911D01*
X114889Y229934D01*
X114945Y229949D01*
X115018Y229992D01*
X115095Y230027D01*
X115140Y230065D01*
X115190Y230094D01*
X115248Y230156D01*
X115312Y230210D01*
X115344Y230259D01*
X115384Y230302D01*
X115423Y230377D01*
X115470Y230447D01*
X115487Y230503D01*
X115514Y230555D01*
X115525Y230623D01*
X115555Y230718D01*
X115558Y230818D01*
X115569Y230886D01*
X115569Y239068D01*
X116147Y239646D01*
X116165Y239670D01*
X116187Y239689D01*
X116250Y239783D01*
X116318Y239873D01*
X116328Y239901D01*
X116345Y239925D01*
X116379Y240033D01*
X116419Y240139D01*
X116422Y240168D01*
X116430Y240196D01*
X116433Y240310D01*
X116443Y240422D01*
X116437Y240451D01*
X116438Y240480D01*
X116409Y240590D01*
X116387Y240701D01*
X116373Y240727D01*
X116366Y240755D01*
X116308Y240853D01*
X116256Y240953D01*
X116236Y240975D01*
X116221Y241000D01*
X116138Y241077D01*
X116060Y241159D01*
X116035Y241174D01*
X116013Y241194D01*
X115912Y241246D01*
X115815Y241303D01*
X115786Y241310D01*
X115760Y241324D01*
X115683Y241337D01*
X115539Y241373D01*
X115477Y241371D01*
X115429Y241379D01*
X112791Y241379D01*
X112144Y241552D01*
X111565Y241887D01*
X111092Y242360D01*
X110757Y242939D01*
X110584Y243586D01*
X110584Y246889D01*
X116469Y246889D01*
X116469Y242316D01*
X116477Y242258D01*
X116475Y242200D01*
X116497Y242118D01*
X116509Y242034D01*
X116533Y241981D01*
X116547Y241925D01*
X116590Y241852D01*
X116625Y241775D01*
X116663Y241730D01*
X116693Y241680D01*
X116754Y241622D01*
X116809Y241558D01*
X116857Y241526D01*
X116900Y241486D01*
X116975Y241447D01*
X117045Y241400D01*
X117101Y241383D01*
X117153Y241356D01*
X117221Y241345D01*
X117316Y241315D01*
X117416Y241312D01*
X117484Y241301D01*
X119516Y241301D01*
X119574Y241309D01*
X119632Y241307D01*
X119714Y241329D01*
X119797Y241341D01*
X119851Y241364D01*
X119907Y241379D01*
X119980Y241422D01*
X120057Y241457D01*
X120101Y241495D01*
X120152Y241524D01*
X120209Y241586D01*
X120274Y241640D01*
X120306Y241689D01*
X120346Y241732D01*
X120385Y241807D01*
X120431Y241877D01*
X120449Y241933D01*
X120476Y241985D01*
X120487Y242053D01*
X120517Y242148D01*
X120520Y242248D01*
X120531Y242316D01*
X120531Y247904D01*
X120523Y247962D01*
X120524Y248020D01*
X120503Y248102D01*
X120491Y248185D01*
X120467Y248239D01*
X120453Y248295D01*
X120410Y248368D01*
X120375Y248445D01*
X120337Y248489D01*
X120307Y248540D01*
X120246Y248597D01*
X120191Y248662D01*
X120143Y248694D01*
X120100Y248734D01*
X120025Y248773D01*
X119955Y248819D01*
X119899Y248837D01*
X119847Y248864D01*
X119779Y248875D01*
X119684Y248905D01*
X119584Y248908D01*
X119516Y248919D01*
X118499Y248919D01*
X118499Y248921D01*
X119516Y248921D01*
X119574Y248929D01*
X119632Y248928D01*
X119714Y248949D01*
X119797Y248961D01*
X119851Y248985D01*
X119907Y248999D01*
X119980Y249042D01*
X120057Y249077D01*
X120101Y249115D01*
X120152Y249145D01*
X120209Y249206D01*
X120274Y249261D01*
X120306Y249309D01*
X120346Y249352D01*
X120385Y249427D01*
X120431Y249497D01*
X120449Y249553D01*
X120476Y249605D01*
X120487Y249673D01*
X120517Y249768D01*
X120520Y249868D01*
X120531Y249936D01*
X120531Y256461D01*
X124209Y256461D01*
X124856Y256288D01*
X125435Y255953D01*
X125923Y255465D01*
X125970Y255430D01*
X126010Y255388D01*
X126083Y255345D01*
X126150Y255294D01*
X126205Y255273D01*
X126255Y255244D01*
X126337Y255223D01*
X126416Y255193D01*
X126474Y255188D01*
X126531Y255174D01*
X126615Y255177D01*
X126699Y255170D01*
X126756Y255181D01*
X126815Y255183D01*
X126895Y255209D01*
X126978Y255225D01*
X127030Y255252D01*
X127085Y255270D01*
X127142Y255310D01*
X127230Y255356D01*
X127302Y255425D01*
X127359Y255465D01*
X128862Y256969D01*
X142138Y256969D01*
X143924Y255183D01*
X143924Y243586D01*
X143932Y243528D01*
X143930Y243470D01*
X143952Y243388D01*
X143964Y243304D01*
X143987Y243251D01*
X144002Y243195D01*
X144045Y243122D01*
X144080Y243045D01*
X144118Y243000D01*
X144147Y242950D01*
X144209Y242892D01*
X144263Y242828D01*
X144312Y242796D01*
X144355Y242756D01*
X144430Y242717D01*
X144500Y242670D01*
X144556Y242653D01*
X144608Y242626D01*
X144676Y242615D01*
X144771Y242585D01*
X144871Y242582D01*
X144939Y242571D01*
X159291Y242571D01*
X159378Y242583D01*
X159465Y242586D01*
X159518Y242603D01*
X159573Y242611D01*
X159652Y242646D01*
X159736Y242673D01*
X159775Y242701D01*
X159832Y242727D01*
X159945Y242823D01*
X160009Y242868D01*
X166062Y248921D01*
X188501Y248921D01*
X188588Y248933D01*
X188675Y248936D01*
X188728Y248953D01*
X188783Y248961D01*
X188862Y248996D01*
X188946Y249023D01*
X188985Y249051D01*
X189042Y249077D01*
X189155Y249173D01*
X189219Y249218D01*
X194548Y254547D01*
X194600Y254617D01*
X194660Y254681D01*
X194686Y254730D01*
X194719Y254774D01*
X194750Y254856D01*
X194790Y254934D01*
X194798Y254981D01*
X194820Y255040D01*
X194832Y255188D01*
X194845Y255265D01*
X194845Y273227D01*
X198934Y277316D01*
X198969Y277362D01*
X199012Y277403D01*
X199055Y277476D01*
X199105Y277543D01*
X199126Y277598D01*
X199156Y277648D01*
X199176Y277730D01*
X199206Y277809D01*
X199211Y277867D01*
X199226Y277924D01*
X199223Y278008D01*
X199230Y278092D01*
X199218Y278149D01*
X199217Y278208D01*
X199191Y278288D01*
X199174Y278371D01*
X199147Y278423D01*
X199129Y278478D01*
X199089Y278534D01*
X199043Y278623D01*
X198974Y278695D01*
X198934Y278751D01*
X182291Y295395D01*
X182284Y295400D01*
X182279Y295407D01*
X182235Y295437D01*
X182064Y295566D01*
X182028Y295579D01*
X182002Y295597D01*
X179485Y296771D01*
X179354Y296811D01*
X179224Y296852D01*
X179218Y296852D01*
X179213Y296854D01*
X179076Y296856D01*
X178940Y296859D01*
X178934Y296858D01*
X178929Y296858D01*
X178796Y296822D01*
X178665Y296787D01*
X178660Y296785D01*
X178655Y296783D01*
X178537Y296712D01*
X178420Y296642D01*
X178416Y296638D01*
X178412Y296635D01*
X178320Y296535D01*
X178226Y296435D01*
X178223Y296430D01*
X178219Y296426D01*
X178158Y296303D01*
X178096Y296182D01*
X178095Y296177D01*
X178093Y296171D01*
X178042Y295892D01*
X178044Y295869D01*
X178041Y295851D01*
X178041Y290271D01*
X174953Y290271D01*
X174928Y290268D01*
X174904Y290270D01*
X174788Y290248D01*
X174671Y290231D01*
X174649Y290221D01*
X174624Y290217D01*
X174519Y290163D01*
X174412Y290115D01*
X174393Y290099D01*
X174371Y290088D01*
X174285Y290008D01*
X174195Y289931D01*
X174181Y289911D01*
X174163Y289894D01*
X174103Y289793D01*
X174037Y289695D01*
X174030Y289671D01*
X174017Y289650D01*
X173999Y289575D01*
X173951Y289424D01*
X173950Y289367D01*
X173940Y289323D01*
X173853Y288022D01*
X173856Y287985D01*
X173851Y287955D01*
X173851Y287224D01*
X173859Y287166D01*
X173857Y287108D01*
X173879Y287026D01*
X173891Y286943D01*
X173914Y286889D01*
X173929Y286833D01*
X173972Y286760D01*
X174007Y286683D01*
X174045Y286638D01*
X174074Y286588D01*
X174136Y286530D01*
X174190Y286466D01*
X174239Y286434D01*
X174282Y286394D01*
X174357Y286355D01*
X174427Y286309D01*
X174483Y286291D01*
X174535Y286264D01*
X174603Y286253D01*
X174698Y286223D01*
X174798Y286220D01*
X174866Y286209D01*
X178041Y286209D01*
X178041Y275406D01*
X177868Y274759D01*
X177533Y274180D01*
X177060Y273707D01*
X176481Y273372D01*
X175834Y273199D01*
X167518Y273199D01*
X167422Y273186D01*
X167325Y273181D01*
X167287Y273167D01*
X167236Y273159D01*
X167079Y273089D01*
X167010Y273063D01*
X166640Y272849D01*
X159361Y272849D01*
X158990Y273063D01*
X158900Y273100D01*
X158813Y273144D01*
X158774Y273150D01*
X158726Y273170D01*
X158555Y273187D01*
X158482Y273199D01*
X155667Y273199D01*
X155553Y273183D01*
X155439Y273173D01*
X155413Y273163D01*
X155386Y273159D01*
X155281Y273112D01*
X155174Y273071D01*
X155152Y273055D01*
X155126Y273043D01*
X155039Y272969D01*
X154947Y272900D01*
X154930Y272877D01*
X154909Y272860D01*
X154846Y272764D01*
X154777Y272672D01*
X154767Y272646D01*
X154752Y272623D01*
X154717Y272513D01*
X154676Y272406D01*
X154674Y272378D01*
X154666Y272352D01*
X154663Y272237D01*
X154654Y272123D01*
X154659Y272098D01*
X154659Y272068D01*
X154726Y271811D01*
X154729Y271795D01*
X155081Y270947D01*
X155081Y269551D01*
X155097Y269437D01*
X155107Y269323D01*
X155117Y269297D01*
X155121Y269269D01*
X155167Y269165D01*
X155209Y269057D01*
X155225Y269035D01*
X155237Y269010D01*
X155311Y268922D01*
X155380Y268831D01*
X155403Y268814D01*
X155420Y268793D01*
X155516Y268729D01*
X155608Y268660D01*
X155634Y268651D01*
X155657Y268635D01*
X155767Y268601D01*
X155874Y268560D01*
X155902Y268558D01*
X155928Y268549D01*
X156043Y268547D01*
X156157Y268537D01*
X156182Y268543D01*
X156212Y268542D01*
X156469Y268609D01*
X156485Y268613D01*
X157351Y268972D01*
X158001Y269101D01*
X158001Y262239D01*
X152055Y262239D01*
X151968Y262227D01*
X151881Y262224D01*
X151828Y262207D01*
X151773Y262199D01*
X151693Y262164D01*
X151610Y262137D01*
X151571Y262109D01*
X151514Y262083D01*
X151401Y261987D01*
X151383Y261975D01*
X148207Y260659D01*
X144793Y260659D01*
X141639Y261966D01*
X139226Y264379D01*
X137919Y267533D01*
X137919Y270947D01*
X139226Y274101D01*
X141639Y276514D01*
X144793Y277821D01*
X146944Y277821D01*
X147002Y277829D01*
X147060Y277827D01*
X147142Y277849D01*
X147226Y277861D01*
X147279Y277884D01*
X147335Y277899D01*
X147408Y277942D01*
X147485Y277977D01*
X147530Y278015D01*
X147580Y278044D01*
X147638Y278106D01*
X147702Y278160D01*
X147734Y278209D01*
X147774Y278252D01*
X147813Y278327D01*
X147860Y278397D01*
X147877Y278453D01*
X147904Y278505D01*
X147915Y278573D01*
X147945Y278668D01*
X147948Y278768D01*
X147959Y278836D01*
X147959Y286209D01*
X151134Y286209D01*
X151192Y286217D01*
X151250Y286215D01*
X151332Y286237D01*
X151416Y286249D01*
X151469Y286273D01*
X151525Y286287D01*
X151598Y286330D01*
X151675Y286365D01*
X151720Y286403D01*
X151770Y286433D01*
X151828Y286494D01*
X151892Y286549D01*
X151924Y286597D01*
X151964Y286640D01*
X152003Y286715D01*
X152050Y286785D01*
X152067Y286841D01*
X152094Y286893D01*
X152105Y286961D01*
X152135Y287056D01*
X152138Y287156D01*
X152149Y287224D01*
X152149Y287955D01*
X152144Y287992D01*
X152147Y288022D01*
X152060Y289323D01*
X152055Y289348D01*
X152056Y289372D01*
X152026Y289486D01*
X152002Y289602D01*
X151990Y289624D01*
X151984Y289647D01*
X151924Y289749D01*
X151869Y289853D01*
X151851Y289871D01*
X151839Y289892D01*
X151753Y289973D01*
X151671Y290057D01*
X151649Y290069D01*
X151631Y290086D01*
X151526Y290140D01*
X151424Y290199D01*
X151400Y290204D01*
X151378Y290216D01*
X151302Y290228D01*
X151148Y290266D01*
X151091Y290264D01*
X151047Y290271D01*
X147959Y290271D01*
X147959Y301074D01*
X148132Y301721D01*
X148467Y302300D01*
X148940Y302773D01*
X149519Y303108D01*
X150166Y303281D01*
X157604Y303281D01*
X157613Y303282D01*
X157623Y303281D01*
X157754Y303302D01*
X157885Y303321D01*
X157894Y303325D01*
X157904Y303326D01*
X158024Y303383D01*
X158145Y303437D01*
X158152Y303443D01*
X158161Y303447D01*
X158261Y303535D01*
X158362Y303620D01*
X158367Y303629D01*
X158374Y303635D01*
X158446Y303747D01*
X158519Y303857D01*
X158522Y303866D01*
X158527Y303875D01*
X158565Y304002D01*
X158605Y304128D01*
X158605Y304138D01*
X158608Y304147D01*
X158609Y304280D01*
X158612Y304412D01*
X158610Y304422D01*
X158610Y304432D01*
X158574Y304560D01*
X158540Y304687D01*
X158535Y304696D01*
X158533Y304705D01*
X158463Y304818D01*
X158395Y304932D01*
X158388Y304939D01*
X158383Y304947D01*
X158285Y305035D01*
X158188Y305126D01*
X158179Y305131D01*
X158172Y305137D01*
X158121Y305161D01*
X157935Y305256D01*
X157899Y305262D01*
X157866Y305277D01*
X146506Y308321D01*
X146299Y308346D01*
X146243Y308355D01*
X105217Y308355D01*
X105011Y308326D01*
X104954Y308321D01*
X93593Y305277D01*
X93584Y305273D01*
X93575Y305271D01*
X93454Y305217D01*
X93332Y305165D01*
X93324Y305159D01*
X93315Y305155D01*
X93214Y305069D01*
X93111Y304986D01*
X93106Y304978D01*
X93098Y304971D01*
X93025Y304861D01*
X92949Y304752D01*
X92946Y304743D01*
X92941Y304735D01*
X92900Y304608D01*
X92858Y304483D01*
X92858Y304473D01*
X92855Y304464D01*
X92852Y304331D01*
X92846Y304199D01*
X92848Y304189D01*
X92848Y304180D01*
X92881Y304052D01*
X92912Y303923D01*
X92917Y303914D01*
X92920Y303905D01*
X92987Y303791D01*
X93053Y303675D01*
X93060Y303669D01*
X93065Y303660D01*
X93162Y303569D01*
X93256Y303477D01*
X93265Y303472D01*
X93272Y303466D01*
X93390Y303405D01*
X93507Y303343D01*
X93517Y303341D01*
X93525Y303336D01*
X93581Y303327D01*
X93785Y303283D01*
X93821Y303287D01*
X93856Y303281D01*
X103834Y303281D01*
X104481Y303108D01*
X105060Y302773D01*
X105533Y302300D01*
X105868Y301721D01*
X106041Y301074D01*
X106041Y290271D01*
X102866Y290271D01*
X102808Y290263D01*
X102750Y290265D01*
X102668Y290243D01*
X102584Y290231D01*
X102531Y290207D01*
X102475Y290193D01*
X102402Y290150D01*
X102325Y290115D01*
X102280Y290077D01*
X102230Y290047D01*
X102172Y289986D01*
X102108Y289931D01*
X102076Y289883D01*
X102036Y289840D01*
X101997Y289765D01*
X101950Y289695D01*
X101933Y289639D01*
X101906Y289587D01*
X101895Y289519D01*
X101865Y289424D01*
X101862Y289324D01*
X101851Y289256D01*
X101851Y289159D01*
X101861Y289087D01*
X101859Y289033D01*
X101958Y288234D01*
X101887Y287975D01*
X101858Y287750D01*
X101851Y287706D01*
X101851Y287224D01*
X101859Y287166D01*
X101857Y287108D01*
X101879Y287026D01*
X101891Y286943D01*
X101914Y286889D01*
X101929Y286833D01*
X101972Y286760D01*
X102007Y286683D01*
X102045Y286638D01*
X102074Y286588D01*
X102136Y286530D01*
X102190Y286466D01*
X102239Y286434D01*
X102282Y286394D01*
X102357Y286355D01*
X102427Y286309D01*
X102483Y286291D01*
X102535Y286264D01*
X102603Y286253D01*
X102698Y286223D01*
X102798Y286220D01*
X102866Y286209D01*
X106041Y286209D01*
X106041Y278836D01*
X106049Y278778D01*
X106047Y278720D01*
X106069Y278638D01*
X106081Y278554D01*
X106104Y278501D01*
X106119Y278445D01*
X106162Y278372D01*
X106197Y278295D01*
X106235Y278250D01*
X106264Y278200D01*
X106326Y278142D01*
X106380Y278078D01*
X106429Y278046D01*
X106472Y278006D01*
X106547Y277967D01*
X106617Y277920D01*
X106673Y277903D01*
X106725Y277876D01*
X106793Y277865D01*
X106888Y277835D01*
X106988Y277832D01*
X107056Y277821D01*
X109207Y277821D01*
X112361Y276514D01*
X114774Y274101D01*
X116081Y270947D01*
X116081Y267533D01*
X114774Y264379D01*
X112361Y261966D01*
X109207Y260659D01*
X105793Y260659D01*
X102622Y261973D01*
X102593Y261994D01*
X102529Y262054D01*
X102480Y262080D01*
X102436Y262113D01*
X102354Y262144D01*
X102276Y262184D01*
X102229Y262192D01*
X102170Y262214D01*
X102023Y262226D01*
X101945Y262239D01*
X95999Y262239D01*
X95999Y269101D01*
X96649Y268972D01*
X97515Y268613D01*
X97627Y268584D01*
X97736Y268549D01*
X97764Y268549D01*
X97791Y268542D01*
X97905Y268545D01*
X98020Y268542D01*
X98047Y268549D01*
X98075Y268550D01*
X98184Y268585D01*
X98295Y268614D01*
X98319Y268628D01*
X98346Y268637D01*
X98441Y268701D01*
X98540Y268759D01*
X98559Y268779D01*
X98582Y268795D01*
X98656Y268883D01*
X98734Y268967D01*
X98747Y268991D01*
X98765Y269012D01*
X98812Y269118D01*
X98864Y269220D01*
X98868Y269244D01*
X98880Y269272D01*
X98917Y269536D01*
X98919Y269551D01*
X98919Y270947D01*
X99271Y271795D01*
X99299Y271907D01*
X99334Y272016D01*
X99335Y272044D01*
X99342Y272071D01*
X99338Y272185D01*
X99341Y272300D01*
X99334Y272327D01*
X99334Y272355D01*
X99299Y272464D01*
X99270Y272575D01*
X99255Y272599D01*
X99247Y272626D01*
X99183Y272721D01*
X99124Y272820D01*
X99104Y272839D01*
X99089Y272862D01*
X99001Y272936D01*
X98917Y273014D01*
X98892Y273027D01*
X98871Y273045D01*
X98766Y273091D01*
X98664Y273144D01*
X98639Y273148D01*
X98611Y273160D01*
X98348Y273197D01*
X98333Y273199D01*
X94709Y273199D01*
X94675Y273194D01*
X94641Y273197D01*
X94565Y273179D01*
X94428Y273159D01*
X94365Y273131D01*
X94315Y273119D01*
X92973Y272553D01*
X91126Y272784D01*
X90944Y272781D01*
X90874Y272784D01*
X89027Y272553D01*
X87685Y273119D01*
X87652Y273128D01*
X87622Y273144D01*
X87544Y273157D01*
X87411Y273192D01*
X87342Y273191D01*
X87291Y273199D01*
X78166Y273199D01*
X77519Y273372D01*
X76940Y273707D01*
X76854Y273793D01*
X76831Y273811D01*
X76811Y273833D01*
X76717Y273896D01*
X76627Y273964D01*
X76599Y273974D01*
X76575Y273991D01*
X76467Y274025D01*
X76361Y274065D01*
X76332Y274068D01*
X76304Y274076D01*
X76191Y274079D01*
X76078Y274089D01*
X76049Y274083D01*
X76020Y274084D01*
X75910Y274055D01*
X75799Y274033D01*
X75773Y274019D01*
X75745Y274012D01*
X75647Y273954D01*
X75547Y273902D01*
X75525Y273882D01*
X75500Y273867D01*
X75423Y273784D01*
X75341Y273706D01*
X75326Y273681D01*
X75306Y273659D01*
X75254Y273558D01*
X75197Y273461D01*
X75190Y273432D01*
X75176Y273406D01*
X75163Y273329D01*
X75127Y273185D01*
X75129Y273123D01*
X75121Y273075D01*
X75121Y272629D01*
X69564Y272629D01*
X69506Y272621D01*
X69448Y272623D01*
X69366Y272601D01*
X69283Y272589D01*
X69229Y272566D01*
X69173Y272551D01*
X69100Y272508D01*
X69023Y272473D01*
X68979Y272435D01*
X68928Y272406D01*
X68871Y272344D01*
X68806Y272290D01*
X68774Y272241D01*
X68734Y272198D01*
X68695Y272123D01*
X68649Y272053D01*
X68631Y271997D01*
X68604Y271945D01*
X68593Y271877D01*
X68580Y271835D01*
X68571Y271896D01*
X68547Y271949D01*
X68533Y272005D01*
X68489Y272078D01*
X68455Y272155D01*
X68417Y272200D01*
X68387Y272250D01*
X68326Y272308D01*
X68271Y272372D01*
X68223Y272404D01*
X68180Y272444D01*
X68105Y272483D01*
X68035Y272530D01*
X67979Y272547D01*
X67927Y272574D01*
X67859Y272585D01*
X67764Y272615D01*
X67664Y272618D01*
X67596Y272629D01*
X62107Y272629D01*
X62021Y272617D01*
X61933Y272614D01*
X61881Y272597D01*
X61826Y272589D01*
X61746Y272554D01*
X61663Y272527D01*
X61624Y272499D01*
X61567Y272473D01*
X61453Y272377D01*
X61390Y272332D01*
X54066Y265008D01*
X54014Y264939D01*
X53954Y264875D01*
X53928Y264825D01*
X53895Y264781D01*
X53864Y264700D01*
X53824Y264622D01*
X53816Y264574D01*
X53794Y264516D01*
X53782Y264368D01*
X53769Y264291D01*
X53769Y263906D01*
X53777Y263848D01*
X53775Y263790D01*
X53797Y263708D01*
X53809Y263624D01*
X53832Y263571D01*
X53847Y263515D01*
X53890Y263442D01*
X53925Y263365D01*
X53963Y263320D01*
X53992Y263270D01*
X54054Y263212D01*
X54108Y263148D01*
X54157Y263116D01*
X54200Y263076D01*
X54275Y263037D01*
X54345Y262990D01*
X54401Y262973D01*
X54453Y262946D01*
X54521Y262935D01*
X54616Y262905D01*
X54716Y262902D01*
X54784Y262891D01*
X62275Y262891D01*
X62304Y262895D01*
X62333Y262892D01*
X62445Y262915D01*
X62557Y262931D01*
X62583Y262943D01*
X62612Y262948D01*
X62713Y263001D01*
X62816Y263047D01*
X62838Y263066D01*
X62864Y263079D01*
X62947Y263157D01*
X63033Y263230D01*
X63049Y263255D01*
X63071Y263275D01*
X63128Y263373D01*
X63191Y263467D01*
X63199Y263495D01*
X63214Y263520D01*
X63242Y263630D01*
X63276Y263738D01*
X63277Y263768D01*
X63284Y263796D01*
X63281Y263909D01*
X63284Y264022D01*
X63276Y264051D01*
X63275Y264080D01*
X63240Y264188D01*
X63212Y264297D01*
X63197Y264323D01*
X63188Y264351D01*
X63142Y264415D01*
X63067Y264542D01*
X63021Y264585D01*
X62993Y264624D01*
X62547Y265070D01*
X62212Y265649D01*
X62039Y266296D01*
X62039Y268631D01*
X66581Y268631D01*
X66581Y263906D01*
X66589Y263848D01*
X66587Y263790D01*
X66609Y263708D01*
X66621Y263624D01*
X66644Y263571D01*
X66659Y263515D01*
X66702Y263442D01*
X66737Y263365D01*
X66775Y263320D01*
X66804Y263270D01*
X66866Y263212D01*
X66920Y263148D01*
X66969Y263116D01*
X67012Y263076D01*
X67087Y263037D01*
X67157Y262990D01*
X67213Y262973D01*
X67265Y262946D01*
X67333Y262935D01*
X67428Y262905D01*
X67528Y262902D01*
X67596Y262891D01*
X67618Y262891D01*
X71971Y258538D01*
X72041Y258486D01*
X72105Y258426D01*
X72154Y258400D01*
X72198Y258367D01*
X72280Y258336D01*
X72358Y258296D01*
X72406Y258288D01*
X72464Y258266D01*
X72612Y258254D01*
X72689Y258241D01*
X92001Y258241D01*
X92001Y251629D01*
X92013Y251542D01*
X92016Y251455D01*
X92033Y251402D01*
X92041Y251348D01*
X92076Y251268D01*
X92103Y251184D01*
X92131Y251145D01*
X92157Y251088D01*
X92253Y250975D01*
X92298Y250911D01*
X106681Y236528D01*
X106681Y230091D01*
X106685Y230062D01*
X106682Y230033D01*
X106705Y229922D01*
X106721Y229809D01*
X106733Y229783D01*
X106738Y229754D01*
X106791Y229653D01*
X106837Y229550D01*
X106856Y229528D01*
X106869Y229502D01*
X106947Y229419D01*
X107020Y229333D01*
X107045Y229317D01*
X107065Y229295D01*
X107163Y229238D01*
X107257Y229175D01*
X107285Y229167D01*
X107310Y229152D01*
X107420Y229124D01*
X107528Y229090D01*
X107558Y229089D01*
X107586Y229082D01*
X107699Y229085D01*
G37*
G36*
X155929Y80294D02*
X155929Y80294D01*
X155985Y80299D01*
X157401Y80679D01*
X157453Y80701D01*
X157507Y80713D01*
X157583Y80756D01*
X157663Y80790D01*
X157706Y80825D01*
X157755Y80853D01*
X157816Y80915D01*
X157883Y80969D01*
X157915Y81015D01*
X157954Y81055D01*
X157996Y81132D01*
X158045Y81203D01*
X158063Y81256D01*
X158090Y81305D01*
X158109Y81390D01*
X158136Y81472D01*
X158139Y81528D01*
X158151Y81583D01*
X158145Y81670D01*
X158149Y81756D01*
X158136Y81811D01*
X158132Y81867D01*
X158103Y81948D01*
X158083Y82033D01*
X158055Y82081D01*
X158036Y82134D01*
X157985Y82204D01*
X157942Y82280D01*
X157902Y82319D01*
X157869Y82364D01*
X157813Y82406D01*
X157738Y82478D01*
X157653Y82524D01*
X157599Y82564D01*
X157235Y82750D01*
X155941Y83690D01*
X154810Y84821D01*
X153870Y86115D01*
X153144Y87540D01*
X152649Y89061D01*
X152399Y90640D01*
X152399Y97029D01*
X161544Y97029D01*
X161602Y97037D01*
X161660Y97035D01*
X161742Y97057D01*
X161825Y97069D01*
X161879Y97093D01*
X161935Y97107D01*
X162008Y97150D01*
X162085Y97185D01*
X162129Y97223D01*
X162180Y97253D01*
X162237Y97314D01*
X162302Y97369D01*
X162334Y97417D01*
X162374Y97460D01*
X162413Y97535D01*
X162459Y97605D01*
X162477Y97661D01*
X162504Y97713D01*
X162515Y97781D01*
X162545Y97876D01*
X162548Y97976D01*
X162559Y98044D01*
X162559Y99061D01*
X162561Y99061D01*
X162561Y98044D01*
X162569Y97986D01*
X162568Y97928D01*
X162589Y97846D01*
X162601Y97763D01*
X162625Y97709D01*
X162639Y97653D01*
X162682Y97580D01*
X162717Y97503D01*
X162755Y97458D01*
X162785Y97408D01*
X162846Y97350D01*
X162901Y97286D01*
X162949Y97254D01*
X162992Y97214D01*
X163067Y97175D01*
X163137Y97129D01*
X163193Y97111D01*
X163245Y97084D01*
X163313Y97073D01*
X163408Y97043D01*
X163508Y97040D01*
X163576Y97029D01*
X172721Y97029D01*
X172721Y90640D01*
X172471Y89061D01*
X172035Y87719D01*
X172033Y87708D01*
X172028Y87698D01*
X172008Y87568D01*
X171986Y87439D01*
X171987Y87428D01*
X171985Y87416D01*
X172002Y87287D01*
X172016Y87157D01*
X172020Y87146D01*
X172022Y87135D01*
X172074Y87014D01*
X172124Y86894D01*
X172131Y86885D01*
X172135Y86874D01*
X172219Y86773D01*
X172300Y86671D01*
X172309Y86664D01*
X172317Y86655D01*
X172424Y86582D01*
X172531Y86505D01*
X172542Y86501D01*
X172552Y86495D01*
X172676Y86454D01*
X172799Y86410D01*
X172811Y86410D01*
X172822Y86406D01*
X172953Y86401D01*
X173083Y86394D01*
X173094Y86396D01*
X173106Y86396D01*
X173165Y86412D01*
X173360Y86456D01*
X173397Y86477D01*
X173429Y86485D01*
X182002Y90483D01*
X182010Y90488D01*
X182018Y90491D01*
X182061Y90521D01*
X182136Y90570D01*
X182143Y90573D01*
X182151Y90580D01*
X182241Y90638D01*
X182266Y90667D01*
X182291Y90685D01*
X228085Y136479D01*
X228090Y136486D01*
X228097Y136491D01*
X228127Y136535D01*
X228256Y136706D01*
X228269Y136742D01*
X228287Y136768D01*
X235802Y152883D01*
X235832Y152984D01*
X235862Y153049D01*
X241011Y172264D01*
X241036Y172471D01*
X241045Y172527D01*
X241045Y213553D01*
X241016Y213759D01*
X241011Y213816D01*
X238471Y223296D01*
X238467Y223305D01*
X238465Y223314D01*
X238411Y223435D01*
X238359Y223557D01*
X238353Y223565D01*
X238349Y223574D01*
X238263Y223675D01*
X238180Y223778D01*
X238172Y223783D01*
X238165Y223791D01*
X238055Y223864D01*
X237946Y223940D01*
X237937Y223943D01*
X237929Y223948D01*
X237802Y223989D01*
X237677Y224031D01*
X237667Y224031D01*
X237658Y224034D01*
X237525Y224037D01*
X237393Y224043D01*
X237383Y224041D01*
X237374Y224041D01*
X237246Y224008D01*
X237117Y223977D01*
X237108Y223972D01*
X237099Y223970D01*
X236985Y223902D01*
X236869Y223836D01*
X236863Y223829D01*
X236854Y223824D01*
X236763Y223727D01*
X236671Y223633D01*
X236666Y223624D01*
X236660Y223617D01*
X236599Y223499D01*
X236537Y223382D01*
X236535Y223373D01*
X236530Y223364D01*
X236521Y223308D01*
X236477Y223104D01*
X236481Y223068D01*
X236475Y223033D01*
X236475Y166316D01*
X192078Y121919D01*
X134841Y121919D01*
X134812Y121915D01*
X134783Y121918D01*
X134672Y121895D01*
X134559Y121879D01*
X134533Y121867D01*
X134504Y121862D01*
X134403Y121809D01*
X134300Y121763D01*
X134278Y121744D01*
X134252Y121731D01*
X134169Y121653D01*
X134083Y121580D01*
X134067Y121555D01*
X134045Y121535D01*
X133988Y121437D01*
X133925Y121343D01*
X133917Y121315D01*
X133902Y121290D01*
X133874Y121180D01*
X133840Y121072D01*
X133839Y121042D01*
X133832Y121014D01*
X133835Y120901D01*
X133832Y120788D01*
X133840Y120759D01*
X133841Y120730D01*
X133876Y120622D01*
X133904Y120513D01*
X133919Y120487D01*
X133928Y120459D01*
X133974Y120395D01*
X134049Y120268D01*
X134076Y120243D01*
X134079Y120239D01*
X134099Y120220D01*
X134123Y120186D01*
X135553Y118756D01*
X136663Y117646D01*
X136733Y117594D01*
X136797Y117534D01*
X136846Y117508D01*
X136890Y117475D01*
X136972Y117444D01*
X137050Y117404D01*
X137097Y117396D01*
X137156Y117374D01*
X137304Y117362D01*
X137381Y117349D01*
X139282Y117349D01*
X143203Y115724D01*
X146204Y112723D01*
X147829Y108802D01*
X147829Y89318D01*
X146204Y85397D01*
X143203Y82396D01*
X142775Y82218D01*
X142701Y82174D01*
X142622Y82139D01*
X142579Y82102D01*
X142530Y82074D01*
X142471Y82011D01*
X142405Y81956D01*
X142374Y81908D01*
X142335Y81867D01*
X142295Y81790D01*
X142248Y81719D01*
X142231Y81665D01*
X142205Y81614D01*
X142188Y81530D01*
X142162Y81448D01*
X142161Y81391D01*
X142150Y81335D01*
X142157Y81250D01*
X142155Y81164D01*
X142169Y81109D01*
X142174Y81052D01*
X142205Y80972D01*
X142227Y80889D01*
X142256Y80840D01*
X142276Y80787D01*
X142328Y80718D01*
X142372Y80644D01*
X142413Y80605D01*
X142448Y80560D01*
X142516Y80508D01*
X142579Y80450D01*
X142630Y80424D01*
X142675Y80390D01*
X142756Y80359D01*
X142832Y80320D01*
X142881Y80312D01*
X142941Y80289D01*
X143086Y80278D01*
X143163Y80265D01*
X155723Y80265D01*
X155929Y80294D01*
G37*
G36*
X120131Y135998D02*
X120131Y135998D01*
X120189Y136000D01*
X120269Y136026D01*
X120352Y136042D01*
X120404Y136069D01*
X120460Y136087D01*
X120516Y136127D01*
X120604Y136173D01*
X120677Y136242D01*
X120733Y136282D01*
X124152Y139701D01*
X171991Y139701D01*
X172078Y139713D01*
X172165Y139716D01*
X172218Y139733D01*
X172273Y139741D01*
X172352Y139776D01*
X172436Y139803D01*
X172475Y139831D01*
X172532Y139857D01*
X172645Y139953D01*
X172709Y139998D01*
X174962Y142251D01*
X175014Y142321D01*
X175074Y142385D01*
X175100Y142434D01*
X175133Y142478D01*
X175164Y142560D01*
X175204Y142638D01*
X175212Y142685D01*
X175234Y142744D01*
X175246Y142892D01*
X175259Y142969D01*
X175259Y158932D01*
X175247Y159018D01*
X175244Y159106D01*
X175227Y159158D01*
X175219Y159213D01*
X175184Y159293D01*
X175157Y159376D01*
X175129Y159416D01*
X175103Y159473D01*
X175007Y159586D01*
X175005Y159589D01*
X175005Y160020D01*
X174997Y160078D01*
X174999Y160136D01*
X174977Y160218D01*
X174965Y160302D01*
X174942Y160355D01*
X174927Y160411D01*
X174884Y160484D01*
X174849Y160561D01*
X174811Y160606D01*
X174782Y160656D01*
X174720Y160714D01*
X174666Y160778D01*
X174617Y160810D01*
X174574Y160850D01*
X174499Y160889D01*
X174429Y160936D01*
X174373Y160953D01*
X174321Y160980D01*
X174253Y160991D01*
X174158Y161021D01*
X174058Y161024D01*
X173990Y161035D01*
X173916Y161035D01*
X171238Y163714D01*
X165098Y169854D01*
X165028Y169906D01*
X164964Y169966D01*
X164915Y169992D01*
X164871Y170025D01*
X164789Y170056D01*
X164711Y170096D01*
X164663Y170104D01*
X164605Y170126D01*
X164457Y170138D01*
X164380Y170151D01*
X156459Y170151D01*
X156430Y170147D01*
X156401Y170150D01*
X156290Y170127D01*
X156177Y170111D01*
X156151Y170099D01*
X156122Y170094D01*
X156021Y170041D01*
X155918Y169995D01*
X155896Y169976D01*
X155870Y169963D01*
X155787Y169885D01*
X155701Y169812D01*
X155685Y169787D01*
X155663Y169767D01*
X155606Y169669D01*
X155543Y169575D01*
X155535Y169547D01*
X155520Y169522D01*
X155492Y169412D01*
X155458Y169304D01*
X155457Y169274D01*
X155450Y169246D01*
X155453Y169133D01*
X155450Y169020D01*
X155458Y168991D01*
X155459Y168962D01*
X155494Y168854D01*
X155522Y168745D01*
X155537Y168719D01*
X155546Y168691D01*
X155592Y168628D01*
X155667Y168500D01*
X155713Y168457D01*
X155741Y168418D01*
X158751Y165408D01*
X158751Y147012D01*
X156221Y144482D01*
X153978Y142239D01*
X117569Y142239D01*
X117482Y142227D01*
X117395Y142224D01*
X117342Y142207D01*
X117287Y142199D01*
X117208Y142164D01*
X117124Y142137D01*
X117085Y142109D01*
X117028Y142083D01*
X116915Y141987D01*
X116851Y141942D01*
X115962Y141053D01*
X115927Y141006D01*
X115885Y140966D01*
X115842Y140893D01*
X115791Y140826D01*
X115770Y140771D01*
X115741Y140721D01*
X115720Y140639D01*
X115690Y140560D01*
X115685Y140502D01*
X115671Y140445D01*
X115673Y140361D01*
X115666Y140277D01*
X115678Y140219D01*
X115680Y140161D01*
X115706Y140081D01*
X115722Y139998D01*
X115749Y139946D01*
X115767Y139890D01*
X115807Y139834D01*
X115853Y139746D01*
X115922Y139673D01*
X115962Y139617D01*
X119297Y136282D01*
X119344Y136247D01*
X119384Y136205D01*
X119457Y136162D01*
X119524Y136111D01*
X119579Y136090D01*
X119629Y136061D01*
X119711Y136040D01*
X119790Y136010D01*
X119848Y136005D01*
X119905Y135991D01*
X119989Y135993D01*
X120073Y135986D01*
X120131Y135998D01*
G37*
%LPC*%
G36*
X72059Y262239D02*
X72059Y262239D01*
X72186Y262876D01*
X72187Y262891D01*
X72191Y262906D01*
X72194Y263033D01*
X72202Y263160D01*
X72198Y263175D01*
X72199Y263190D01*
X72167Y263313D01*
X72138Y263437D01*
X72131Y263451D01*
X72127Y263465D01*
X72062Y263574D01*
X72000Y263686D01*
X71989Y263696D01*
X71981Y263710D01*
X71889Y263797D01*
X71799Y263886D01*
X71785Y263894D01*
X71774Y263904D01*
X71661Y263962D01*
X71550Y264023D01*
X71535Y264027D01*
X71521Y264034D01*
X71453Y264045D01*
X71273Y264086D01*
X71226Y264083D01*
X71190Y264089D01*
X70579Y264089D01*
X70579Y268631D01*
X75289Y268631D01*
X75326Y268587D01*
X75367Y268523D01*
X75404Y268490D01*
X75422Y268467D01*
X75437Y268456D01*
X75460Y268428D01*
X75524Y268386D01*
X75581Y268336D01*
X75625Y268315D01*
X75650Y268297D01*
X75668Y268290D01*
X75697Y268270D01*
X75769Y268247D01*
X75838Y268215D01*
X75885Y268208D01*
X75916Y268196D01*
X75936Y268195D01*
X75968Y268184D01*
X76044Y268183D01*
X76119Y268171D01*
X76164Y268176D01*
X76199Y268174D01*
X76219Y268178D01*
X76252Y268177D01*
X76326Y268196D01*
X76401Y268206D01*
X76453Y268230D01*
X76527Y268249D01*
X76530Y268250D01*
X78271Y268972D01*
X80026Y269321D01*
X92001Y269321D01*
X92001Y262239D01*
X72059Y262239D01*
G37*
%LPD*%
%LPC*%
G36*
X161999Y262239D02*
X161999Y262239D01*
X161999Y269321D01*
X173974Y269321D01*
X175729Y268972D01*
X177381Y268287D01*
X178869Y267293D01*
X180133Y266029D01*
X181127Y264541D01*
X181812Y262889D01*
X181941Y262239D01*
X161999Y262239D01*
G37*
%LPD*%
%LPC*%
G36*
X161999Y251159D02*
X161999Y251159D01*
X161999Y258241D01*
X181941Y258241D01*
X181812Y257591D01*
X181127Y255939D01*
X180133Y254451D01*
X178869Y253187D01*
X177381Y252193D01*
X175729Y251508D01*
X173974Y251159D01*
X161999Y251159D01*
G37*
%LPD*%
G36*
X134101Y183005D02*
X134101Y183005D01*
X134159Y183007D01*
X134239Y183033D01*
X134322Y183050D01*
X134374Y183077D01*
X134430Y183095D01*
X134486Y183135D01*
X134574Y183181D01*
X134647Y183249D01*
X134703Y183289D01*
X134707Y183294D01*
X136144Y183294D01*
X136202Y183302D01*
X136260Y183300D01*
X136342Y183322D01*
X136426Y183334D01*
X136479Y183357D01*
X136535Y183372D01*
X136608Y183415D01*
X136685Y183450D01*
X136730Y183488D01*
X136780Y183517D01*
X136838Y183579D01*
X136902Y183633D01*
X136934Y183682D01*
X136974Y183725D01*
X137013Y183800D01*
X137060Y183870D01*
X137077Y183926D01*
X137104Y183978D01*
X137115Y184046D01*
X137145Y184141D01*
X137148Y184241D01*
X137159Y184309D01*
X137159Y184458D01*
X139943Y187242D01*
X139978Y187289D01*
X140020Y187329D01*
X140063Y187402D01*
X140114Y187469D01*
X140135Y187524D01*
X140164Y187574D01*
X140185Y187656D01*
X140215Y187735D01*
X140220Y187793D01*
X140234Y187850D01*
X140232Y187934D01*
X140239Y188018D01*
X140227Y188076D01*
X140225Y188134D01*
X140199Y188214D01*
X140183Y188297D01*
X140156Y188349D01*
X140138Y188405D01*
X140098Y188461D01*
X140052Y188549D01*
X139983Y188622D01*
X139943Y188678D01*
X135025Y193596D01*
X134978Y193631D01*
X134938Y193674D01*
X134865Y193716D01*
X134798Y193767D01*
X134743Y193788D01*
X134692Y193817D01*
X134611Y193838D01*
X134532Y193868D01*
X134474Y193873D01*
X134417Y193887D01*
X134333Y193885D01*
X134249Y193892D01*
X134191Y193880D01*
X134133Y193878D01*
X134053Y193852D01*
X133970Y193836D01*
X133918Y193809D01*
X133862Y193791D01*
X133806Y193751D01*
X133718Y193705D01*
X133645Y193636D01*
X133589Y193596D01*
X133520Y193527D01*
X132941Y193192D01*
X132294Y193019D01*
X131475Y193019D01*
X131475Y197810D01*
X131467Y197868D01*
X131469Y197926D01*
X131447Y198008D01*
X131436Y198091D01*
X131412Y198145D01*
X131397Y198201D01*
X131354Y198274D01*
X131319Y198351D01*
X131282Y198395D01*
X131252Y198445D01*
X131190Y198503D01*
X131136Y198568D01*
X131087Y198600D01*
X131044Y198640D01*
X130969Y198678D01*
X130899Y198725D01*
X130843Y198743D01*
X130791Y198769D01*
X130723Y198781D01*
X130628Y198811D01*
X130528Y198814D01*
X130460Y198825D01*
X130402Y198817D01*
X130344Y198818D01*
X130343Y198818D01*
X130262Y198797D01*
X130178Y198785D01*
X130125Y198761D01*
X130068Y198746D01*
X129996Y198703D01*
X129919Y198669D01*
X129874Y198631D01*
X129824Y198601D01*
X129766Y198540D01*
X129702Y198485D01*
X129670Y198437D01*
X129629Y198394D01*
X129591Y198319D01*
X129544Y198249D01*
X129527Y198193D01*
X129500Y198141D01*
X129489Y198073D01*
X129459Y197978D01*
X129456Y197878D01*
X129445Y197810D01*
X129445Y193019D01*
X129286Y193019D01*
X129228Y193011D01*
X129170Y193013D01*
X129088Y192991D01*
X129004Y192979D01*
X128951Y192956D01*
X128895Y192941D01*
X128822Y192898D01*
X128745Y192863D01*
X128700Y192825D01*
X128650Y192796D01*
X128592Y192734D01*
X128528Y192680D01*
X128496Y192631D01*
X128456Y192588D01*
X128417Y192513D01*
X128370Y192443D01*
X128353Y192387D01*
X128326Y192335D01*
X128315Y192267D01*
X128285Y192172D01*
X128282Y192072D01*
X128271Y192004D01*
X128271Y184309D01*
X128279Y184251D01*
X128277Y184193D01*
X128299Y184111D01*
X128311Y184027D01*
X128334Y183974D01*
X128349Y183918D01*
X128392Y183845D01*
X128427Y183768D01*
X128465Y183723D01*
X128494Y183673D01*
X128556Y183615D01*
X128610Y183551D01*
X128659Y183519D01*
X128702Y183479D01*
X128777Y183440D01*
X128847Y183393D01*
X128903Y183376D01*
X128955Y183349D01*
X129023Y183338D01*
X129118Y183308D01*
X129218Y183305D01*
X129286Y183294D01*
X133263Y183294D01*
X133267Y183289D01*
X133314Y183254D01*
X133354Y183212D01*
X133427Y183169D01*
X133494Y183119D01*
X133549Y183098D01*
X133599Y183068D01*
X133681Y183047D01*
X133760Y183017D01*
X133818Y183012D01*
X133875Y182998D01*
X133959Y183001D01*
X134043Y182994D01*
X134101Y183005D01*
G37*
%LPC*%
G36*
X164591Y101091D02*
X164591Y101091D01*
X164591Y116646D01*
X164939Y116591D01*
X166460Y116096D01*
X167885Y115370D01*
X169179Y114430D01*
X170310Y113299D01*
X171250Y112005D01*
X171976Y110580D01*
X172471Y109059D01*
X172721Y107480D01*
X172721Y101091D01*
X164591Y101091D01*
G37*
%LPD*%
%LPC*%
G36*
X152399Y101091D02*
X152399Y101091D01*
X152399Y107480D01*
X152649Y109059D01*
X153144Y110580D01*
X153870Y112005D01*
X154810Y113299D01*
X155941Y114430D01*
X157235Y115370D01*
X158660Y116096D01*
X160181Y116591D01*
X160529Y116646D01*
X160529Y101091D01*
X152399Y101091D01*
G37*
%LPD*%
G36*
X127404Y203117D02*
X127404Y203117D01*
X127462Y203115D01*
X127544Y203137D01*
X127628Y203149D01*
X127681Y203172D01*
X127737Y203187D01*
X127810Y203230D01*
X127887Y203265D01*
X127932Y203303D01*
X127982Y203332D01*
X128040Y203394D01*
X128104Y203448D01*
X128136Y203497D01*
X128176Y203540D01*
X128215Y203615D01*
X128262Y203685D01*
X128279Y203741D01*
X128306Y203793D01*
X128317Y203861D01*
X128347Y203956D01*
X128350Y204056D01*
X128361Y204124D01*
X128361Y209499D01*
X128349Y209586D01*
X128346Y209673D01*
X128329Y209726D01*
X128321Y209781D01*
X128286Y209860D01*
X128259Y209944D01*
X128231Y209983D01*
X128205Y210040D01*
X128109Y210153D01*
X128064Y210217D01*
X127156Y211125D01*
X127094Y211171D01*
X127039Y211226D01*
X126981Y211256D01*
X126929Y211296D01*
X126857Y211323D01*
X126788Y211360D01*
X126724Y211374D01*
X126663Y211397D01*
X126586Y211403D01*
X126510Y211419D01*
X126457Y211414D01*
X126428Y211419D01*
X126392Y211419D01*
X126380Y211420D01*
X126375Y211419D01*
X125475Y211419D01*
X125475Y216210D01*
X125467Y216268D01*
X125469Y216326D01*
X125447Y216408D01*
X125436Y216491D01*
X125412Y216545D01*
X125397Y216601D01*
X125354Y216674D01*
X125319Y216751D01*
X125282Y216795D01*
X125252Y216845D01*
X125251Y216846D01*
X125190Y216903D01*
X125136Y216968D01*
X125135Y216968D01*
X125087Y217000D01*
X125044Y217040D01*
X124969Y217079D01*
X124899Y217126D01*
X124843Y217143D01*
X124791Y217170D01*
X124723Y217181D01*
X124628Y217211D01*
X124528Y217214D01*
X124460Y217225D01*
X118460Y217225D01*
X118402Y217217D01*
X118344Y217219D01*
X118262Y217197D01*
X118179Y217186D01*
X118125Y217162D01*
X118069Y217147D01*
X117996Y217104D01*
X117919Y217069D01*
X117875Y217032D01*
X117825Y217002D01*
X117767Y216940D01*
X117702Y216886D01*
X117670Y216837D01*
X117630Y216794D01*
X117592Y216719D01*
X117545Y216649D01*
X117527Y216593D01*
X117501Y216541D01*
X117489Y216473D01*
X117459Y216378D01*
X117456Y216278D01*
X117445Y216210D01*
X117453Y216152D01*
X117452Y216094D01*
X117452Y216093D01*
X117473Y216012D01*
X117485Y215928D01*
X117509Y215875D01*
X117524Y215818D01*
X117567Y215746D01*
X117601Y215669D01*
X117639Y215624D01*
X117669Y215574D01*
X117730Y215516D01*
X117785Y215452D01*
X117833Y215420D01*
X117876Y215379D01*
X117951Y215341D01*
X118021Y215294D01*
X118077Y215277D01*
X118129Y215250D01*
X118197Y215239D01*
X118292Y215209D01*
X118392Y215206D01*
X118460Y215195D01*
X123445Y215195D01*
X123445Y211419D01*
X122626Y211419D01*
X121850Y211627D01*
X121849Y211627D01*
X121819Y211639D01*
X121780Y211643D01*
X121742Y211655D01*
X121639Y211658D01*
X121536Y211669D01*
X121497Y211662D01*
X121458Y211663D01*
X121358Y211637D01*
X121257Y211619D01*
X121221Y211601D01*
X121183Y211591D01*
X121094Y211538D01*
X121002Y211493D01*
X120972Y211466D01*
X120938Y211446D01*
X120868Y211370D01*
X120792Y211301D01*
X120771Y211267D01*
X120744Y211238D01*
X120697Y211147D01*
X120643Y211059D01*
X120632Y211021D01*
X120614Y210985D01*
X120601Y210909D01*
X120567Y210785D01*
X120568Y210710D01*
X120559Y210654D01*
X120559Y204124D01*
X120567Y204066D01*
X120565Y204009D01*
X120565Y204008D01*
X120587Y203926D01*
X120599Y203842D01*
X120622Y203789D01*
X120637Y203733D01*
X120680Y203660D01*
X120715Y203583D01*
X120753Y203538D01*
X120782Y203488D01*
X120844Y203430D01*
X120898Y203366D01*
X120947Y203334D01*
X120990Y203294D01*
X121065Y203255D01*
X121135Y203208D01*
X121191Y203191D01*
X121243Y203164D01*
X121311Y203153D01*
X121406Y203123D01*
X121506Y203120D01*
X121574Y203109D01*
X127346Y203109D01*
X127404Y203117D01*
G37*
%LPC*%
G36*
X95999Y258241D02*
X95999Y258241D01*
X102861Y258241D01*
X102732Y257591D01*
X102047Y255939D01*
X101053Y254451D01*
X99789Y253187D01*
X98301Y252193D01*
X96649Y251508D01*
X95999Y251379D01*
X95999Y258241D01*
G37*
%LPD*%
%LPC*%
G36*
X157351Y251508D02*
X157351Y251508D01*
X155699Y252193D01*
X154211Y253187D01*
X152947Y254451D01*
X151953Y255939D01*
X151268Y257591D01*
X151139Y258241D01*
X158001Y258241D01*
X158001Y251379D01*
X157351Y251508D01*
G37*
%LPD*%
%LPC*%
G36*
X110584Y250951D02*
X110584Y250951D01*
X110584Y254254D01*
X110757Y254901D01*
X111092Y255480D01*
X111565Y255953D01*
X112144Y256288D01*
X112791Y256461D01*
X116469Y256461D01*
X116469Y250951D01*
X110584Y250951D01*
G37*
%LPD*%
D10*
X91000Y288240D03*
X163000Y288240D03*
D11*
X160000Y260240D02*
X173080Y260240D01*
X94000Y260240D02*
X80920Y260240D01*
D12*
X104140Y172330D03*
X104140Y155330D03*
X88900Y168520D03*
X88900Y151520D03*
D13*
X124460Y216210D03*
X124460Y197810D03*
X130460Y216210D03*
X118460Y216210D03*
X130460Y197810D03*
X118460Y197810D03*
D14*
X133660Y210010D03*
X115260Y210010D03*
X133660Y204010D03*
X115260Y204010D03*
D15*
X218500Y178200D03*
X218500Y203200D03*
X218500Y228200D03*
X162500Y228200D03*
X162500Y203200D03*
X162500Y178200D03*
D16*
X137160Y106680D02*
X137160Y91440D01*
X162560Y91440D02*
X162560Y106680D01*
X90170Y106680D02*
X90170Y91440D01*
X115570Y91440D02*
X115570Y106680D01*
D12*
X45720Y267580D03*
X45720Y250580D03*
D17*
X68580Y270630D03*
X68580Y285630D03*
D18*
X74170Y222760D02*
X74170Y191260D01*
X42670Y191260D01*
X42670Y222760D01*
X74170Y222760D01*
X74170Y194585D02*
X42670Y194585D01*
X42670Y197910D02*
X74170Y197910D01*
X74170Y201235D02*
X42670Y201235D01*
X42670Y204560D02*
X74170Y204560D01*
X74170Y207885D02*
X42670Y207885D01*
X42670Y211210D02*
X74170Y211210D01*
X74170Y214535D02*
X42670Y214535D01*
X42670Y217860D02*
X74170Y217860D01*
X74170Y221185D02*
X42670Y221185D01*
D19*
X75920Y182010D03*
X70920Y182010D03*
X65920Y182010D03*
X60920Y182010D03*
X55920Y182010D03*
X50920Y182010D03*
X45920Y182010D03*
X40920Y182010D03*
D20*
X33420Y189510D03*
X33420Y194510D03*
X33420Y199510D03*
X33420Y204510D03*
X33420Y209510D03*
X33420Y214510D03*
X33420Y219510D03*
X33420Y224510D03*
D19*
X40920Y232010D03*
X45920Y232010D03*
X50920Y232010D03*
X55920Y232010D03*
X60920Y232010D03*
X65920Y232010D03*
X70920Y232010D03*
X75920Y232010D03*
D20*
X83420Y224510D03*
X83420Y219510D03*
X83420Y214510D03*
X83420Y209510D03*
X83420Y204510D03*
X83420Y199510D03*
X83420Y194510D03*
X83420Y189510D03*
D21*
X135500Y248920D03*
X118500Y248920D03*
D12*
X140970Y174870D03*
X140970Y157870D03*
X127000Y174870D03*
X127000Y157870D03*
D22*
X130460Y197810D02*
X130460Y199740D01*
X123190Y207010D01*
X123190Y214940D01*
X124460Y216210D01*
X118460Y216210D01*
X83420Y209510D02*
X71160Y209510D01*
X71120Y209550D01*
X57150Y209550D01*
X56388Y208788D01*
X41910Y194310D01*
X33620Y194310D01*
X33420Y194510D01*
X105414Y240534D02*
X105417Y240538D01*
X115570Y240538D01*
X116078Y240538D01*
X118500Y242960D02*
X118500Y248920D01*
X118500Y242960D02*
X116078Y240538D01*
X82296Y269748D02*
X68580Y269748D01*
X82296Y269748D02*
X85190Y266854D01*
X68580Y269748D02*
X68580Y270630D01*
X85190Y266854D02*
X94000Y260240D01*
X94488Y260096D02*
X94488Y251460D01*
X105414Y240534D01*
X94488Y260096D02*
X94000Y260240D01*
X56388Y208788D02*
X57912Y207264D01*
X58420Y207010D01*
D23*
X120142Y139700D03*
D22*
X169418Y141478D02*
X170180Y142240D01*
D23*
X170180Y142240D03*
D22*
X121920Y141478D02*
X120142Y139700D01*
X121920Y141478D02*
X169418Y141478D01*
D23*
X68580Y194310D03*
D22*
X83420Y209510D02*
X99020Y209510D01*
X102870Y213360D02*
X102870Y224790D01*
X107950Y229870D01*
X115570Y229870D01*
X115570Y240538D01*
X102870Y213360D02*
X99020Y209510D01*
X130460Y197810D02*
X130460Y193390D01*
X135454Y188396D02*
X136122Y188396D01*
D23*
X136122Y188396D03*
D22*
X135454Y188396D02*
X130460Y193390D01*
D23*
X29210Y151130D03*
D22*
X131445Y117475D02*
X137160Y111760D01*
X137160Y99060D01*
X29210Y144780D02*
X29210Y151130D01*
X107315Y117475D02*
X131445Y117475D01*
X107315Y117475D02*
X104140Y120650D01*
X58420Y120650D01*
X44450Y134620D01*
X39370Y134620D02*
X29210Y144780D01*
X39370Y134620D02*
X44450Y134620D01*
D23*
X145514Y200660D03*
X204470Y269240D03*
D22*
X145514Y200660D02*
X145514Y194846D01*
X153670Y186690D01*
X170180Y186690D01*
X173990Y182880D01*
X173990Y173990D01*
X179070Y168910D01*
X201930Y168910D02*
X207010Y173990D01*
X207010Y185420D02*
X208280Y186690D01*
X227330Y186690D01*
X229870Y189230D01*
X201930Y168910D02*
X179070Y168910D01*
X207010Y173990D02*
X207010Y185420D01*
X209550Y264160D02*
X204470Y269240D01*
X209550Y264160D02*
X209550Y242570D01*
X214630Y237490D01*
X228600Y237490D01*
X229870Y236220D01*
X229870Y189230D01*
D23*
X64770Y246380D03*
D22*
X22860Y233680D02*
X22860Y167640D01*
D23*
X186690Y138430D03*
D22*
X180975Y132715D01*
X111760Y132080D02*
X67310Y132080D01*
X111760Y132080D02*
X115570Y128270D01*
X124460Y128270D01*
X128905Y132715D02*
X180975Y132715D01*
X128905Y132715D02*
X124460Y128270D01*
X58420Y240030D02*
X64770Y246380D01*
X29210Y240030D02*
X22860Y233680D01*
X29210Y240030D02*
X58420Y240030D01*
X22860Y167640D02*
X26670Y163830D01*
X30480Y163830D01*
X35560Y158750D01*
X40640Y158750D02*
X67310Y132080D01*
X40640Y158750D02*
X35560Y158750D01*
X76200Y233172D02*
X83566Y233172D01*
X76200Y233172D02*
X75920Y232010D01*
D23*
X83566Y233172D03*
X93753Y233453D03*
D22*
X86133Y241073D01*
X73433Y241073D01*
X70920Y238560D02*
X70920Y232010D01*
X70920Y238560D02*
X73433Y241073D01*
D24*
X162500Y178200D02*
X175600Y165100D01*
X205400Y165100D02*
X218500Y178200D01*
X179070Y165100D02*
X175600Y165100D01*
X179070Y165100D02*
X205400Y165100D01*
D23*
X38100Y166370D03*
D22*
X68580Y135890D01*
X125730Y135890D02*
X173990Y135890D01*
X179070Y140970D01*
X179070Y161290D01*
D24*
X179070Y165100D01*
D22*
X125730Y135890D02*
X121920Y132080D01*
X118110Y132080D01*
X114300Y135890D01*
X68580Y135890D01*
X114674Y201007D02*
X115260Y201593D01*
X115260Y204010D01*
X114674Y201007D02*
X114674Y192144D01*
X104140Y181610D01*
X93980Y181610D01*
X88900Y176530D01*
X88900Y168520D01*
X118460Y188310D02*
X118460Y197810D01*
X118460Y188310D02*
X104140Y173990D01*
X104140Y172330D01*
X89970Y219510D02*
X83420Y219510D01*
X89970Y219510D02*
X91440Y220980D01*
X91440Y226060D01*
X92710Y227330D01*
X99060Y227330D01*
X102870Y231140D01*
X102870Y234950D01*
X90170Y247650D01*
X77470Y247650D02*
X66040Y259080D01*
X31750Y259080D01*
X27940Y255270D01*
X77470Y247650D02*
X90170Y247650D01*
X27940Y243840D02*
X27940Y255270D01*
X27940Y243840D02*
X19050Y234950D01*
X19050Y166370D01*
D23*
X201930Y157480D03*
D22*
X201930Y143510D02*
X187960Y129540D01*
X201930Y143510D02*
X201930Y157480D01*
X187960Y129540D02*
X130810Y129540D01*
X113030Y124460D02*
X109220Y128270D01*
X66040Y128270D01*
X125730Y124460D02*
X130810Y129540D01*
X125730Y124460D02*
X113030Y124460D01*
X25400Y160020D02*
X19050Y166370D01*
X29210Y160020D02*
X34290Y154940D01*
X39370Y154940D01*
X66040Y128270D01*
X29210Y160020D02*
X25400Y160020D01*
D23*
X133350Y234950D03*
D22*
X137160Y238760D01*
X161290Y238760D02*
X167640Y245110D01*
X190500Y245110D01*
X161290Y238760D02*
X137160Y238760D01*
X198656Y271648D02*
X202062Y275054D01*
X206878Y275054D01*
X212344Y269588D01*
X198656Y253266D02*
X190500Y245110D01*
X198656Y253266D02*
X198656Y271648D01*
X232664Y237377D02*
X232664Y167894D01*
X190500Y125730D01*
X218186Y240284D02*
X229757Y240284D01*
X232664Y237377D01*
X212344Y246126D02*
X212344Y269588D01*
X212344Y246126D02*
X218186Y240284D01*
X130951Y125730D02*
X126125Y120904D01*
X110236Y120904D02*
X106680Y124460D01*
X63500Y124460D01*
X130951Y125730D02*
X190500Y125730D01*
X126125Y120904D02*
X110236Y120904D01*
D23*
X69850Y172720D03*
D22*
X66368Y181562D02*
X65920Y182010D01*
X66368Y181562D02*
X66368Y178438D01*
X69850Y174956D02*
X69850Y172720D01*
X69850Y174956D02*
X66368Y178438D01*
D23*
X43180Y142240D03*
D22*
X45720Y142240D01*
X63500Y124460D01*
X124460Y171060D02*
X124460Y197810D01*
X125124Y171392D02*
X124460Y171060D01*
X123431Y173085D02*
X125632Y174186D01*
X127000Y174870D01*
X55920Y177838D02*
X55920Y182010D01*
X55920Y177838D02*
X57658Y176100D01*
X57658Y160020D01*
X74168Y143510D01*
X123431Y173085D02*
X125124Y171392D01*
X107950Y143510D02*
X74168Y143510D01*
X107950Y143510D02*
X114300Y149860D01*
X149860Y149860D01*
X149860Y163830D02*
X147320Y166370D01*
X130810Y166370D01*
X125632Y171548D01*
X125632Y174186D01*
X149860Y163830D02*
X149860Y149860D01*
X137160Y200510D02*
X133660Y204010D01*
X51114Y181816D02*
X50920Y182010D01*
X51114Y181816D02*
X51114Y178333D01*
X54610Y174837D01*
X54610Y154940D02*
X69850Y139700D01*
X140970Y174870D02*
X140998Y174842D01*
X146468Y171032D01*
X54610Y174837D02*
X54610Y154940D01*
X69850Y139700D02*
X109220Y139700D01*
X115570Y146050D01*
X152400Y146050D01*
X154940Y148590D01*
X147738Y171032D02*
X146468Y171032D01*
X154940Y163830D02*
X154940Y148590D01*
X154940Y163830D02*
X147738Y171032D01*
X140970Y174870D02*
X140970Y182880D01*
X146050Y187960D01*
X137160Y196850D02*
X137160Y200510D01*
X137160Y196850D02*
X146050Y187960D01*
X124070Y237490D02*
X135500Y248920D01*
X124070Y237490D02*
X119380Y237490D01*
X100370Y204510D02*
X83420Y204510D01*
X100370Y204510D02*
X106680Y210820D01*
X106680Y222250D01*
X110490Y226060D01*
X119380Y226060D01*
X119380Y237490D01*
X65920Y238640D02*
X65920Y232010D01*
X65920Y238640D02*
X72390Y245110D01*
X72390Y247650D01*
X49140Y254000D02*
X45720Y250580D01*
X66040Y254000D02*
X72390Y247650D01*
X66040Y254000D02*
X49140Y254000D01*
D25*
X50530Y267580D02*
X68580Y285630D01*
X50530Y267580D02*
X45720Y267580D01*
D22*
X125984Y228600D02*
X137160Y228600D01*
X161544Y204216D01*
X162500Y203200D01*
D23*
X125984Y228600D03*
D24*
X162500Y203200D02*
X173990Y214690D01*
X173990Y237490D01*
X205740Y237490D01*
X205740Y214630D01*
X217170Y203200D01*
X218500Y203200D01*
D22*
X133660Y210010D02*
X130460Y213210D01*
X130460Y216210D01*
X89916Y199510D02*
X83420Y199510D01*
X89916Y199510D02*
X92456Y199510D01*
X100450Y199510D01*
X110490Y209550D02*
X110490Y220980D01*
X111760Y222250D01*
X128270Y222250D01*
X130460Y220060D01*
X130460Y216210D01*
X110490Y209550D02*
X100450Y199510D01*
D25*
X92710Y155330D02*
X88900Y151520D01*
X104140Y155330D02*
X104970Y154500D01*
X106680Y152790D01*
D22*
X104140Y155330D02*
X103632Y155917D01*
X103632Y152400D01*
X126492Y154940D02*
X127000Y157870D01*
X88392Y152400D02*
X80772Y160020D01*
X83820Y179832D02*
X84836Y179832D01*
X92456Y187452D01*
X92456Y199510D01*
X88392Y152400D02*
X88900Y151520D01*
X89916Y199510D02*
X89916Y199644D01*
X33528Y188976D02*
X33420Y189510D01*
D23*
X83820Y179832D03*
X29210Y172720D03*
D22*
X29210Y185300D01*
X33420Y189510D01*
D25*
X88900Y151520D02*
X91880Y154500D01*
X104970Y154500D01*
X104140Y155330D02*
X124460Y155330D01*
X127000Y157870D01*
X140970Y157870D01*
D24*
X80772Y160020D02*
X80772Y178308D01*
X82296Y178308D02*
X83820Y179832D01*
X82296Y178308D02*
X80772Y178308D01*
M02*
