G04 EAGLE Gerber RS-274X export*
G75*
%MOMM*%
%FSLAX34Y34*%
%LPD*%
%INTop Copper*%
%IPPOS*%
%AMOC8*
5,1,8,0,0,1.08239X$1,22.5*%
G01*
%ADD10C,0.254000*%
%ADD11C,0.203200*%
%ADD12R,1.500000X1.240000*%
%ADD13R,1.000000X1.075000*%
%ADD14C,0.000000*%
%ADD15R,2.500000X2.500000*%
%ADD16C,1.308000*%
%ADD17R,0.400000X1.350000*%
%ADD18R,1.000000X2.000000*%
%ADD19R,0.550000X1.200000*%
%ADD20C,1.524000*%
%ADD21R,0.900000X0.900000*%
%ADD22R,0.900000X0.800000*%
%ADD23R,0.910000X1.220000*%
%ADD24R,0.800000X0.800000*%
%ADD25C,0.152400*%
%ADD26C,0.756400*%
%ADD27C,0.127000*%

G36*
X154404Y82809D02*
X154404Y82809D01*
X154433Y82806D01*
X154544Y82829D01*
X154656Y82845D01*
X154683Y82857D01*
X154712Y82862D01*
X154812Y82915D01*
X154916Y82961D01*
X154938Y82980D01*
X154964Y82993D01*
X155046Y83071D01*
X155133Y83145D01*
X155149Y83169D01*
X155170Y83189D01*
X155227Y83287D01*
X155290Y83381D01*
X155299Y83409D01*
X155314Y83434D01*
X155342Y83544D01*
X155376Y83652D01*
X155377Y83681D01*
X155384Y83710D01*
X155380Y83823D01*
X155383Y83936D01*
X155376Y83965D01*
X155375Y83994D01*
X155340Y84102D01*
X155312Y84211D01*
X155297Y84237D01*
X155287Y84265D01*
X155242Y84328D01*
X155166Y84456D01*
X155121Y84499D01*
X155093Y84538D01*
X154810Y84821D01*
X153870Y86115D01*
X153144Y87540D01*
X152649Y89061D01*
X152399Y90640D01*
X152399Y97029D01*
X161544Y97029D01*
X161602Y97037D01*
X161660Y97035D01*
X161742Y97057D01*
X161825Y97069D01*
X161879Y97093D01*
X161935Y97107D01*
X162008Y97150D01*
X162085Y97185D01*
X162129Y97223D01*
X162180Y97253D01*
X162237Y97314D01*
X162302Y97369D01*
X162334Y97417D01*
X162374Y97460D01*
X162413Y97535D01*
X162459Y97605D01*
X162477Y97661D01*
X162504Y97713D01*
X162515Y97781D01*
X162545Y97876D01*
X162548Y97976D01*
X162559Y98044D01*
X162559Y99061D01*
X162561Y99061D01*
X162561Y98044D01*
X162569Y97986D01*
X162568Y97928D01*
X162589Y97846D01*
X162601Y97763D01*
X162625Y97709D01*
X162639Y97653D01*
X162682Y97580D01*
X162717Y97503D01*
X162755Y97458D01*
X162785Y97408D01*
X162846Y97350D01*
X162901Y97286D01*
X162949Y97254D01*
X162992Y97214D01*
X163067Y97175D01*
X163137Y97129D01*
X163193Y97111D01*
X163245Y97084D01*
X163313Y97073D01*
X163408Y97043D01*
X163508Y97040D01*
X163576Y97029D01*
X172721Y97029D01*
X172721Y90640D01*
X172471Y89061D01*
X172035Y87719D01*
X172033Y87708D01*
X172028Y87698D01*
X172008Y87568D01*
X171986Y87439D01*
X171987Y87428D01*
X171985Y87416D01*
X172002Y87287D01*
X172016Y87157D01*
X172020Y87146D01*
X172022Y87135D01*
X172074Y87014D01*
X172124Y86894D01*
X172131Y86885D01*
X172135Y86874D01*
X172219Y86773D01*
X172300Y86671D01*
X172309Y86664D01*
X172317Y86655D01*
X172424Y86582D01*
X172531Y86505D01*
X172542Y86501D01*
X172552Y86495D01*
X172676Y86454D01*
X172799Y86410D01*
X172811Y86410D01*
X172822Y86406D01*
X172953Y86401D01*
X173083Y86394D01*
X173094Y86396D01*
X173106Y86396D01*
X173165Y86412D01*
X173360Y86456D01*
X173397Y86477D01*
X173429Y86485D01*
X184237Y91525D01*
X184326Y91583D01*
X184391Y91614D01*
X184648Y91794D01*
X184726Y91866D01*
X184784Y91908D01*
X226862Y133986D01*
X226926Y134071D01*
X226976Y134122D01*
X227156Y134379D01*
X227204Y134474D01*
X227245Y134533D01*
X235802Y152883D01*
X235832Y152984D01*
X235862Y153049D01*
X237201Y158045D01*
X237226Y158252D01*
X237235Y158308D01*
X237235Y227772D01*
X237206Y227979D01*
X237201Y228035D01*
X235862Y233031D01*
X235821Y233128D01*
X235802Y233197D01*
X227245Y251547D01*
X227187Y251636D01*
X227156Y251701D01*
X221043Y260431D01*
X220971Y260508D01*
X220930Y260566D01*
X213034Y268462D01*
X213010Y268479D01*
X212991Y268502D01*
X212897Y268565D01*
X212807Y268633D01*
X212779Y268643D01*
X212755Y268660D01*
X212647Y268694D01*
X212541Y268734D01*
X212512Y268736D01*
X212484Y268745D01*
X212370Y268748D01*
X212258Y268758D01*
X212229Y268752D01*
X212200Y268753D01*
X212090Y268724D01*
X211979Y268702D01*
X211953Y268688D01*
X211925Y268681D01*
X211827Y268623D01*
X211727Y268571D01*
X211705Y268551D01*
X211680Y268536D01*
X211603Y268453D01*
X211521Y268375D01*
X211506Y268350D01*
X211486Y268328D01*
X211434Y268227D01*
X211377Y268130D01*
X211370Y268101D01*
X211356Y268075D01*
X211343Y267998D01*
X211334Y267962D01*
X210261Y265371D01*
X208339Y263449D01*
X205829Y262409D01*
X203111Y262409D01*
X201243Y263183D01*
X201131Y263212D01*
X201022Y263247D01*
X200994Y263247D01*
X200967Y263254D01*
X200853Y263251D01*
X200738Y263254D01*
X200711Y263247D01*
X200683Y263246D01*
X200574Y263211D01*
X200463Y263182D01*
X200439Y263168D01*
X200412Y263160D01*
X200317Y263095D01*
X200218Y263037D01*
X200199Y263017D01*
X200176Y263001D01*
X200102Y262913D01*
X200024Y262830D01*
X200011Y262805D01*
X199993Y262784D01*
X199947Y262679D01*
X199894Y262576D01*
X199890Y262552D01*
X199878Y262524D01*
X199841Y262260D01*
X199839Y262245D01*
X199839Y254187D01*
X198045Y252394D01*
X198004Y252395D01*
X197922Y252373D01*
X197839Y252361D01*
X197785Y252338D01*
X197729Y252323D01*
X197656Y252280D01*
X197579Y252245D01*
X197535Y252208D01*
X197485Y252178D01*
X197427Y252116D01*
X197362Y252062D01*
X197330Y252013D01*
X197290Y251971D01*
X197251Y251895D01*
X197205Y251825D01*
X197187Y251769D01*
X197160Y251718D01*
X197149Y251649D01*
X197119Y251554D01*
X197116Y251454D01*
X197105Y251387D01*
X197105Y251192D01*
X197105Y251191D01*
X197105Y249416D01*
X195839Y248151D01*
X195838Y248151D01*
X191306Y243618D01*
X188479Y240791D01*
X177934Y240791D01*
X177876Y240783D01*
X177818Y240785D01*
X177736Y240763D01*
X177652Y240751D01*
X177599Y240728D01*
X177543Y240713D01*
X177470Y240670D01*
X177393Y240635D01*
X177348Y240597D01*
X177298Y240568D01*
X177240Y240506D01*
X177176Y240452D01*
X177144Y240403D01*
X177104Y240360D01*
X177065Y240285D01*
X177018Y240215D01*
X177001Y240159D01*
X176974Y240107D01*
X176963Y240039D01*
X176933Y239944D01*
X176930Y239844D01*
X176919Y239776D01*
X176919Y224897D01*
X175215Y223193D01*
X175185Y223154D01*
X175149Y223121D01*
X175100Y223041D01*
X175044Y222966D01*
X175026Y222920D01*
X175001Y222879D01*
X174976Y222788D01*
X174943Y222700D01*
X174938Y222652D01*
X174926Y222604D01*
X174927Y222510D01*
X174919Y222417D01*
X174929Y222369D01*
X174929Y222320D01*
X174956Y222230D01*
X174975Y222138D01*
X174997Y222095D01*
X175012Y222048D01*
X175063Y221969D01*
X175106Y221886D01*
X175139Y221851D01*
X175166Y221809D01*
X175223Y221762D01*
X175302Y221680D01*
X175377Y221636D01*
X175425Y221596D01*
X175430Y221593D01*
X175903Y221120D01*
X176238Y220541D01*
X176411Y219894D01*
X176411Y215391D01*
X167386Y215391D01*
X167328Y215383D01*
X167270Y215384D01*
X167188Y215363D01*
X167105Y215351D01*
X167051Y215327D01*
X166995Y215313D01*
X166922Y215270D01*
X166845Y215235D01*
X166801Y215197D01*
X166750Y215167D01*
X166693Y215106D01*
X166628Y215051D01*
X166596Y215003D01*
X166556Y214960D01*
X166517Y214885D01*
X166471Y214815D01*
X166453Y214759D01*
X166426Y214707D01*
X166415Y214639D01*
X166385Y214544D01*
X166382Y214444D01*
X166371Y214376D01*
X166371Y213359D01*
X165354Y213359D01*
X165296Y213351D01*
X165238Y213352D01*
X165156Y213331D01*
X165073Y213319D01*
X165019Y213295D01*
X164963Y213281D01*
X164890Y213238D01*
X164813Y213203D01*
X164768Y213165D01*
X164718Y213135D01*
X164660Y213074D01*
X164596Y213019D01*
X164564Y212971D01*
X164524Y212928D01*
X164485Y212853D01*
X164439Y212783D01*
X164421Y212727D01*
X164394Y212675D01*
X164383Y212607D01*
X164353Y212512D01*
X164350Y212412D01*
X164339Y212344D01*
X164339Y204619D01*
X158536Y204619D01*
X157997Y204764D01*
X157948Y204770D01*
X157902Y204784D01*
X157808Y204787D01*
X157715Y204798D01*
X157666Y204790D01*
X157618Y204792D01*
X157527Y204768D01*
X157434Y204753D01*
X157390Y204732D01*
X157343Y204720D01*
X157262Y204672D01*
X157177Y204632D01*
X157140Y204599D01*
X157098Y204574D01*
X157034Y204506D01*
X156963Y204444D01*
X156937Y204403D01*
X156904Y204367D01*
X156861Y204284D01*
X156810Y204204D01*
X156796Y204157D01*
X156774Y204114D01*
X156762Y204041D01*
X156730Y203932D01*
X156729Y203845D01*
X156719Y203783D01*
X156719Y186171D01*
X145309Y174762D01*
X145292Y174738D01*
X145269Y174719D01*
X145207Y174625D01*
X145139Y174535D01*
X145128Y174507D01*
X145112Y174483D01*
X145078Y174375D01*
X145037Y174269D01*
X145035Y174240D01*
X145026Y174212D01*
X145023Y174098D01*
X145014Y173986D01*
X145020Y173957D01*
X145019Y173928D01*
X145047Y173818D01*
X145070Y173707D01*
X145083Y173681D01*
X145091Y173653D01*
X145148Y173555D01*
X145201Y173455D01*
X145221Y173433D01*
X145236Y173408D01*
X145318Y173331D01*
X145396Y173249D01*
X145422Y173234D01*
X145443Y173214D01*
X145544Y173162D01*
X145642Y173105D01*
X145670Y173098D01*
X145696Y173084D01*
X145774Y173071D01*
X145917Y173035D01*
X145980Y173037D01*
X146027Y173029D01*
X156713Y173029D01*
X158499Y171243D01*
X158499Y170814D01*
X158507Y170756D01*
X158505Y170698D01*
X158527Y170616D01*
X158539Y170532D01*
X158562Y170479D01*
X158577Y170423D01*
X158620Y170350D01*
X158655Y170273D01*
X158693Y170228D01*
X158722Y170178D01*
X158784Y170120D01*
X158838Y170056D01*
X158887Y170024D01*
X158930Y169984D01*
X159005Y169945D01*
X159075Y169898D01*
X159131Y169881D01*
X159183Y169854D01*
X159251Y169843D01*
X159346Y169813D01*
X159446Y169810D01*
X159514Y169799D01*
X183386Y169799D01*
X183444Y169807D01*
X183502Y169805D01*
X183584Y169827D01*
X183668Y169839D01*
X183721Y169862D01*
X183777Y169877D01*
X183850Y169920D01*
X183927Y169955D01*
X183972Y169993D01*
X184022Y170022D01*
X184080Y170084D01*
X184144Y170138D01*
X184176Y170187D01*
X184216Y170230D01*
X184255Y170305D01*
X184302Y170375D01*
X184319Y170431D01*
X184346Y170483D01*
X184357Y170551D01*
X184387Y170646D01*
X184390Y170746D01*
X184401Y170814D01*
X184401Y171243D01*
X186187Y173029D01*
X197713Y173029D01*
X199499Y171243D01*
X199499Y165326D01*
X199507Y165268D01*
X199505Y165210D01*
X199527Y165128D01*
X199539Y165044D01*
X199562Y164991D01*
X199577Y164935D01*
X199620Y164862D01*
X199655Y164785D01*
X199693Y164740D01*
X199722Y164690D01*
X199784Y164632D01*
X199838Y164568D01*
X199887Y164536D01*
X199930Y164496D01*
X200005Y164457D01*
X200075Y164410D01*
X200131Y164393D01*
X200183Y164366D01*
X200251Y164355D01*
X200346Y164325D01*
X200446Y164322D01*
X200514Y164311D01*
X203289Y164311D01*
X205799Y163271D01*
X207721Y161349D01*
X208761Y158839D01*
X208761Y156121D01*
X207743Y153665D01*
X207722Y153581D01*
X207691Y153501D01*
X207686Y153444D01*
X207672Y153389D01*
X207675Y153303D01*
X207668Y153218D01*
X207679Y153162D01*
X207680Y153105D01*
X207707Y153023D01*
X207723Y152939D01*
X207750Y152889D01*
X207767Y152834D01*
X207815Y152763D01*
X207854Y152687D01*
X207894Y152645D01*
X207925Y152598D01*
X207991Y152543D01*
X208050Y152481D01*
X208099Y152452D01*
X208143Y152415D01*
X208221Y152380D01*
X208295Y152337D01*
X208351Y152323D01*
X208403Y152300D01*
X208488Y152288D01*
X208571Y152267D01*
X208628Y152269D01*
X208684Y152261D01*
X208769Y152273D01*
X208855Y152276D01*
X208909Y152293D01*
X208966Y152301D01*
X209044Y152337D01*
X209126Y152363D01*
X209166Y152392D01*
X209225Y152419D01*
X209335Y152513D01*
X209399Y152558D01*
X215602Y158761D01*
X215654Y158831D01*
X215714Y158895D01*
X215740Y158944D01*
X215773Y158988D01*
X215804Y159070D01*
X215844Y159148D01*
X215852Y159195D01*
X215874Y159254D01*
X215886Y159402D01*
X215899Y159479D01*
X215899Y196809D01*
X215891Y196867D01*
X215893Y196925D01*
X215871Y197007D01*
X215859Y197091D01*
X215836Y197144D01*
X215821Y197200D01*
X215778Y197273D01*
X215743Y197350D01*
X215705Y197395D01*
X215676Y197445D01*
X215614Y197503D01*
X215560Y197567D01*
X215511Y197599D01*
X215468Y197639D01*
X215393Y197678D01*
X215323Y197725D01*
X215267Y197742D01*
X215215Y197769D01*
X215147Y197780D01*
X215052Y197810D01*
X214952Y197813D01*
X214884Y197824D01*
X212851Y197824D01*
X212851Y204724D01*
X212843Y204782D01*
X212844Y204840D01*
X212823Y204922D01*
X212811Y205005D01*
X212787Y205059D01*
X212773Y205115D01*
X212730Y205188D01*
X212695Y205265D01*
X212657Y205309D01*
X212627Y205360D01*
X212566Y205417D01*
X212511Y205482D01*
X212463Y205514D01*
X212420Y205554D01*
X212345Y205593D01*
X212275Y205639D01*
X212219Y205657D01*
X212167Y205684D01*
X212099Y205695D01*
X212004Y205725D01*
X211904Y205728D01*
X211836Y205739D01*
X210819Y205739D01*
X210819Y206756D01*
X210811Y206814D01*
X210812Y206872D01*
X210791Y206954D01*
X210779Y207037D01*
X210755Y207091D01*
X210741Y207147D01*
X210698Y207220D01*
X210663Y207297D01*
X210625Y207341D01*
X210595Y207392D01*
X210534Y207449D01*
X210479Y207514D01*
X210431Y207546D01*
X210388Y207586D01*
X210313Y207625D01*
X210243Y207671D01*
X210187Y207689D01*
X210135Y207716D01*
X210067Y207727D01*
X209972Y207757D01*
X209872Y207760D01*
X209804Y207771D01*
X203279Y207771D01*
X203279Y211449D01*
X203452Y212096D01*
X203787Y212675D01*
X204275Y213163D01*
X204310Y213210D01*
X204352Y213250D01*
X204395Y213323D01*
X204446Y213390D01*
X204467Y213445D01*
X204496Y213495D01*
X204517Y213577D01*
X204547Y213656D01*
X204552Y213714D01*
X204566Y213771D01*
X204563Y213855D01*
X204570Y213939D01*
X204559Y213996D01*
X204557Y214055D01*
X204531Y214135D01*
X204515Y214218D01*
X204488Y214270D01*
X204470Y214325D01*
X204430Y214382D01*
X204384Y214470D01*
X204315Y214542D01*
X204275Y214599D01*
X202771Y216102D01*
X202771Y229378D01*
X204557Y231164D01*
X217083Y231164D01*
X218869Y229378D01*
X218869Y220501D01*
X218881Y220414D01*
X218884Y220327D01*
X218901Y220274D01*
X218909Y220219D01*
X218944Y220140D01*
X218971Y220056D01*
X218999Y220017D01*
X219025Y219960D01*
X219121Y219847D01*
X219166Y219783D01*
X220991Y217958D01*
X223521Y215428D01*
X223521Y155902D01*
X202238Y134619D01*
X192960Y134619D01*
X192873Y134607D01*
X192786Y134604D01*
X192733Y134587D01*
X192678Y134579D01*
X192599Y134544D01*
X192515Y134517D01*
X192476Y134489D01*
X192419Y134463D01*
X192306Y134367D01*
X192242Y134322D01*
X190559Y132639D01*
X188049Y131599D01*
X185331Y131599D01*
X182821Y132639D01*
X180899Y134561D01*
X179859Y137071D01*
X179859Y139789D01*
X180899Y142299D01*
X182821Y144221D01*
X184283Y144826D01*
X184284Y144827D01*
X184285Y144828D01*
X184366Y144875D01*
X184401Y144891D01*
X184421Y144908D01*
X184527Y144971D01*
X184528Y144972D01*
X184530Y144973D01*
X184627Y145077D01*
X184723Y145178D01*
X184723Y145179D01*
X184724Y145180D01*
X184789Y145306D01*
X184853Y145430D01*
X184853Y145432D01*
X184854Y145433D01*
X184856Y145448D01*
X184908Y145709D01*
X184905Y145740D01*
X184909Y145764D01*
X184909Y147449D01*
X190934Y147449D01*
X190992Y147457D01*
X191050Y147455D01*
X191132Y147477D01*
X191215Y147489D01*
X191269Y147513D01*
X191325Y147527D01*
X191398Y147570D01*
X191475Y147605D01*
X191519Y147643D01*
X191570Y147673D01*
X191627Y147734D01*
X191692Y147789D01*
X191724Y147837D01*
X191764Y147880D01*
X191803Y147955D01*
X191849Y148025D01*
X191867Y148081D01*
X191894Y148133D01*
X191905Y148201D01*
X191935Y148296D01*
X191938Y148396D01*
X191949Y148464D01*
X191949Y150496D01*
X191941Y150554D01*
X191942Y150612D01*
X191921Y150694D01*
X191909Y150777D01*
X191885Y150831D01*
X191871Y150887D01*
X191828Y150960D01*
X191793Y151037D01*
X191755Y151081D01*
X191725Y151132D01*
X191664Y151189D01*
X191609Y151254D01*
X191561Y151286D01*
X191518Y151326D01*
X191443Y151365D01*
X191373Y151411D01*
X191317Y151429D01*
X191265Y151456D01*
X191197Y151467D01*
X191102Y151497D01*
X191002Y151500D01*
X190934Y151511D01*
X184909Y151511D01*
X184909Y154314D01*
X185082Y154961D01*
X185417Y155540D01*
X185890Y156013D01*
X186149Y156162D01*
X186187Y156192D01*
X186230Y156215D01*
X186299Y156280D01*
X186373Y156338D01*
X186401Y156377D01*
X186436Y156411D01*
X186484Y156492D01*
X186539Y156568D01*
X186556Y156614D01*
X186580Y156656D01*
X186603Y156747D01*
X186635Y156836D01*
X186638Y156884D01*
X186650Y156932D01*
X186647Y157025D01*
X186653Y157119D01*
X186643Y157167D01*
X186641Y157216D01*
X186612Y157305D01*
X186592Y157397D01*
X186569Y157440D01*
X186554Y157486D01*
X186511Y157547D01*
X186456Y157647D01*
X186395Y157708D01*
X186359Y157760D01*
X184401Y159717D01*
X184401Y160146D01*
X184393Y160204D01*
X184395Y160262D01*
X184373Y160344D01*
X184361Y160428D01*
X184338Y160481D01*
X184323Y160537D01*
X184280Y160610D01*
X184245Y160687D01*
X184207Y160732D01*
X184178Y160782D01*
X184116Y160840D01*
X184062Y160904D01*
X184013Y160936D01*
X183970Y160976D01*
X183895Y161015D01*
X183825Y161062D01*
X183769Y161079D01*
X183717Y161106D01*
X183649Y161117D01*
X183554Y161147D01*
X183454Y161150D01*
X183386Y161161D01*
X159514Y161161D01*
X159456Y161153D01*
X159398Y161155D01*
X159316Y161133D01*
X159232Y161121D01*
X159179Y161098D01*
X159123Y161083D01*
X159050Y161040D01*
X158973Y161005D01*
X158928Y160967D01*
X158878Y160938D01*
X158820Y160876D01*
X158756Y160822D01*
X158724Y160773D01*
X158684Y160730D01*
X158645Y160655D01*
X158598Y160585D01*
X158581Y160529D01*
X158554Y160477D01*
X158543Y160409D01*
X158513Y160314D01*
X158510Y160214D01*
X158499Y160146D01*
X158499Y159717D01*
X156541Y157760D01*
X156512Y157721D01*
X156476Y157688D01*
X156427Y157608D01*
X156370Y157532D01*
X156353Y157487D01*
X156327Y157445D01*
X156302Y157355D01*
X156269Y157267D01*
X156265Y157218D01*
X156252Y157171D01*
X156253Y157077D01*
X156245Y156983D01*
X156255Y156936D01*
X156256Y156887D01*
X156283Y156797D01*
X156301Y156705D01*
X156324Y156661D01*
X156338Y156615D01*
X156389Y156536D01*
X156432Y156452D01*
X156466Y156417D01*
X156492Y156376D01*
X156550Y156329D01*
X156628Y156246D01*
X156703Y156202D01*
X156751Y156162D01*
X157010Y156013D01*
X157483Y155540D01*
X157818Y154961D01*
X157991Y154314D01*
X157991Y151511D01*
X152981Y151511D01*
X152981Y156916D01*
X152973Y156974D01*
X152974Y157032D01*
X152953Y157114D01*
X152941Y157198D01*
X152917Y157251D01*
X152903Y157307D01*
X152860Y157380D01*
X152825Y157457D01*
X152787Y157502D01*
X152757Y157552D01*
X152696Y157610D01*
X152641Y157674D01*
X152593Y157706D01*
X152550Y157746D01*
X152475Y157785D01*
X152405Y157832D01*
X152349Y157849D01*
X152297Y157876D01*
X152229Y157887D01*
X152134Y157917D01*
X152034Y157920D01*
X151966Y157931D01*
X149934Y157931D01*
X149876Y157923D01*
X149818Y157925D01*
X149736Y157903D01*
X149653Y157891D01*
X149599Y157868D01*
X149543Y157853D01*
X149470Y157810D01*
X149393Y157775D01*
X149348Y157737D01*
X149298Y157708D01*
X149240Y157646D01*
X149176Y157592D01*
X149144Y157543D01*
X149104Y157500D01*
X149065Y157425D01*
X149019Y157355D01*
X149001Y157299D01*
X148974Y157247D01*
X148963Y157179D01*
X148933Y157084D01*
X148930Y156984D01*
X148919Y156916D01*
X148919Y151511D01*
X143909Y151511D01*
X143909Y154314D01*
X144082Y154961D01*
X144417Y155540D01*
X144890Y156013D01*
X145149Y156162D01*
X145187Y156193D01*
X145230Y156215D01*
X145299Y156280D01*
X145373Y156338D01*
X145401Y156377D01*
X145436Y156411D01*
X145484Y156492D01*
X145539Y156568D01*
X145556Y156614D01*
X145580Y156656D01*
X145603Y156747D01*
X145635Y156836D01*
X145638Y156884D01*
X145650Y156932D01*
X145647Y157025D01*
X145653Y157119D01*
X145643Y157167D01*
X145641Y157216D01*
X145612Y157305D01*
X145592Y157397D01*
X145569Y157440D01*
X145554Y157486D01*
X145511Y157547D01*
X145456Y157647D01*
X145395Y157709D01*
X145359Y157760D01*
X143212Y159907D01*
X143188Y159924D01*
X143169Y159947D01*
X143075Y160010D01*
X142985Y160077D01*
X142957Y160088D01*
X142933Y160104D01*
X142825Y160138D01*
X142719Y160179D01*
X142690Y160181D01*
X142662Y160190D01*
X142548Y160193D01*
X142436Y160202D01*
X142407Y160197D01*
X142378Y160197D01*
X142268Y160169D01*
X142157Y160146D01*
X142131Y160133D01*
X142103Y160125D01*
X142005Y160068D01*
X141905Y160015D01*
X141883Y159995D01*
X141858Y159980D01*
X141781Y159898D01*
X141699Y159820D01*
X141684Y159794D01*
X141664Y159773D01*
X141612Y159672D01*
X141555Y159574D01*
X141548Y159546D01*
X141534Y159520D01*
X141521Y159442D01*
X141485Y159299D01*
X141487Y159236D01*
X141479Y159189D01*
X141479Y117117D01*
X141479Y117116D01*
X141479Y117114D01*
X141499Y116971D01*
X141519Y116836D01*
X141519Y116834D01*
X141519Y116833D01*
X141576Y116707D01*
X141635Y116576D01*
X141636Y116575D01*
X141637Y116574D01*
X141728Y116467D01*
X141818Y116359D01*
X141820Y116358D01*
X141821Y116357D01*
X141834Y116349D01*
X142055Y116202D01*
X142084Y116192D01*
X142105Y116179D01*
X143203Y115725D01*
X146204Y112723D01*
X147829Y108802D01*
X147829Y89318D01*
X146205Y85397D01*
X145346Y84538D01*
X145328Y84514D01*
X145306Y84496D01*
X145243Y84401D01*
X145175Y84311D01*
X145164Y84283D01*
X145148Y84259D01*
X145114Y84151D01*
X145074Y84045D01*
X145071Y84016D01*
X145062Y83988D01*
X145059Y83875D01*
X145050Y83762D01*
X145056Y83733D01*
X145055Y83704D01*
X145084Y83594D01*
X145106Y83483D01*
X145120Y83457D01*
X145127Y83429D01*
X145185Y83332D01*
X145237Y83231D01*
X145257Y83209D01*
X145272Y83184D01*
X145355Y83107D01*
X145433Y83025D01*
X145458Y83010D01*
X145479Y82990D01*
X145580Y82938D01*
X145678Y82881D01*
X145706Y82874D01*
X145733Y82860D01*
X145810Y82847D01*
X145954Y82811D01*
X146016Y82813D01*
X146064Y82805D01*
X154375Y82805D01*
X154404Y82809D01*
G37*
G36*
X63307Y221882D02*
X63307Y221882D01*
X63420Y221880D01*
X63449Y221887D01*
X63478Y221888D01*
X63586Y221923D01*
X63695Y221951D01*
X63721Y221966D01*
X63749Y221975D01*
X63812Y222021D01*
X63848Y222042D01*
X63866Y222050D01*
X63877Y222059D01*
X63940Y222097D01*
X63983Y222142D01*
X64022Y222170D01*
X66896Y225045D01*
X68406Y225045D01*
X68464Y225053D01*
X68522Y225051D01*
X68604Y225073D01*
X68688Y225085D01*
X68741Y225108D01*
X68797Y225123D01*
X68870Y225166D01*
X68947Y225201D01*
X68992Y225239D01*
X69042Y225268D01*
X69100Y225330D01*
X69164Y225384D01*
X69196Y225433D01*
X69236Y225476D01*
X69275Y225551D01*
X69322Y225621D01*
X69339Y225677D01*
X69366Y225729D01*
X69377Y225797D01*
X69407Y225892D01*
X69410Y225992D01*
X69421Y226060D01*
X69421Y227618D01*
X71207Y229404D01*
X76214Y229404D01*
X76328Y229420D01*
X76442Y229430D01*
X76468Y229440D01*
X76495Y229444D01*
X76600Y229491D01*
X76707Y229532D01*
X76730Y229548D01*
X76755Y229560D01*
X76842Y229634D01*
X76934Y229703D01*
X76951Y229726D01*
X76972Y229743D01*
X77035Y229839D01*
X77104Y229931D01*
X77114Y229957D01*
X77129Y229980D01*
X77164Y230090D01*
X77205Y230197D01*
X77207Y230225D01*
X77215Y230251D01*
X77218Y230366D01*
X77227Y230480D01*
X77222Y230505D01*
X77222Y230535D01*
X77155Y230792D01*
X77152Y230808D01*
X76735Y231813D01*
X76735Y234531D01*
X77775Y237041D01*
X79697Y238963D01*
X82207Y240003D01*
X84587Y240003D01*
X84674Y240015D01*
X84761Y240018D01*
X84814Y240035D01*
X84869Y240043D01*
X84948Y240078D01*
X85032Y240105D01*
X85071Y240133D01*
X85128Y240159D01*
X85241Y240255D01*
X85305Y240300D01*
X95702Y250697D01*
X95754Y250767D01*
X95814Y250831D01*
X95840Y250880D01*
X95873Y250924D01*
X95904Y251006D01*
X95944Y251084D01*
X95952Y251131D01*
X95974Y251190D01*
X95986Y251338D01*
X95999Y251415D01*
X95999Y258241D01*
X102861Y258241D01*
X102732Y257591D01*
X102047Y255939D01*
X101053Y254451D01*
X100558Y253956D01*
X100540Y253932D01*
X100518Y253913D01*
X100455Y253819D01*
X100387Y253729D01*
X100377Y253701D01*
X100360Y253677D01*
X100326Y253569D01*
X100286Y253463D01*
X100283Y253434D01*
X100275Y253406D01*
X100272Y253292D01*
X100262Y253180D01*
X100268Y253151D01*
X100267Y253122D01*
X100296Y253012D01*
X100318Y252901D01*
X100332Y252875D01*
X100339Y252847D01*
X100397Y252749D01*
X100449Y252649D01*
X100469Y252627D01*
X100484Y252602D01*
X100567Y252525D01*
X100645Y252443D01*
X100670Y252428D01*
X100692Y252408D01*
X100793Y252356D01*
X100890Y252299D01*
X100919Y252292D01*
X100945Y252278D01*
X101022Y252265D01*
X101166Y252229D01*
X101228Y252231D01*
X101276Y252223D01*
X108761Y252223D01*
X108800Y252228D01*
X108839Y252226D01*
X108940Y252248D01*
X109043Y252263D01*
X109078Y252279D01*
X109116Y252287D01*
X109208Y252336D01*
X109302Y252379D01*
X109332Y252404D01*
X109366Y252423D01*
X109440Y252496D01*
X109519Y252562D01*
X109541Y252595D01*
X109569Y252623D01*
X109619Y252713D01*
X109677Y252799D01*
X109688Y252836D01*
X109708Y252871D01*
X109731Y252971D01*
X109762Y253070D01*
X109763Y253109D01*
X109772Y253147D01*
X109767Y253251D01*
X109770Y253354D01*
X109760Y253392D01*
X109758Y253431D01*
X109731Y253504D01*
X109698Y253629D01*
X109660Y253693D01*
X109640Y253746D01*
X109632Y253759D01*
X109459Y254406D01*
X109459Y259644D01*
X109451Y259702D01*
X109453Y259760D01*
X109431Y259842D01*
X109419Y259926D01*
X109396Y259979D01*
X109381Y260035D01*
X109338Y260108D01*
X109303Y260185D01*
X109265Y260230D01*
X109236Y260280D01*
X109174Y260338D01*
X109120Y260402D01*
X109071Y260434D01*
X109028Y260474D01*
X108953Y260513D01*
X108883Y260560D01*
X108827Y260577D01*
X108775Y260604D01*
X108707Y260615D01*
X108612Y260645D01*
X108512Y260648D01*
X108444Y260659D01*
X105793Y260659D01*
X102622Y261973D01*
X102593Y261994D01*
X102529Y262054D01*
X102480Y262080D01*
X102436Y262113D01*
X102354Y262144D01*
X102276Y262184D01*
X102229Y262192D01*
X102170Y262214D01*
X102022Y262226D01*
X101945Y262239D01*
X95999Y262239D01*
X95999Y269101D01*
X96649Y268972D01*
X97515Y268613D01*
X97627Y268584D01*
X97736Y268549D01*
X97764Y268549D01*
X97791Y268542D01*
X97905Y268545D01*
X98020Y268542D01*
X98047Y268549D01*
X98075Y268550D01*
X98184Y268585D01*
X98295Y268614D01*
X98319Y268628D01*
X98346Y268637D01*
X98441Y268701D01*
X98540Y268759D01*
X98559Y268779D01*
X98582Y268795D01*
X98656Y268883D01*
X98734Y268967D01*
X98747Y268991D01*
X98765Y269012D01*
X98812Y269117D01*
X98864Y269220D01*
X98868Y269244D01*
X98880Y269272D01*
X98903Y269435D01*
X98905Y269443D01*
X98906Y269455D01*
X98917Y269536D01*
X98919Y269551D01*
X98919Y270947D01*
X99271Y271795D01*
X99299Y271907D01*
X99334Y272016D01*
X99335Y272044D01*
X99342Y272071D01*
X99338Y272185D01*
X99341Y272300D01*
X99334Y272327D01*
X99334Y272355D01*
X99299Y272464D01*
X99270Y272575D01*
X99255Y272599D01*
X99247Y272626D01*
X99183Y272721D01*
X99124Y272820D01*
X99104Y272839D01*
X99089Y272862D01*
X99001Y272936D01*
X98917Y273014D01*
X98892Y273027D01*
X98871Y273045D01*
X98766Y273091D01*
X98664Y273144D01*
X98639Y273148D01*
X98611Y273160D01*
X98348Y273197D01*
X98333Y273199D01*
X94709Y273199D01*
X94675Y273194D01*
X94641Y273197D01*
X94565Y273179D01*
X94428Y273159D01*
X94365Y273131D01*
X94315Y273119D01*
X92973Y272553D01*
X91126Y272784D01*
X90944Y272781D01*
X90874Y272784D01*
X89027Y272553D01*
X87685Y273119D01*
X87652Y273128D01*
X87622Y273144D01*
X87544Y273157D01*
X87411Y273192D01*
X87342Y273191D01*
X87291Y273199D01*
X78166Y273199D01*
X77519Y273372D01*
X76940Y273707D01*
X76467Y274180D01*
X76132Y274759D01*
X75959Y275406D01*
X75959Y286209D01*
X79134Y286209D01*
X79192Y286217D01*
X79250Y286215D01*
X79332Y286237D01*
X79416Y286249D01*
X79469Y286273D01*
X79525Y286287D01*
X79598Y286330D01*
X79675Y286365D01*
X79720Y286403D01*
X79770Y286433D01*
X79828Y286494D01*
X79892Y286549D01*
X79924Y286597D01*
X79964Y286640D01*
X80003Y286715D01*
X80050Y286785D01*
X80067Y286841D01*
X80094Y286893D01*
X80105Y286961D01*
X80135Y287056D01*
X80138Y287156D01*
X80149Y287224D01*
X80149Y287706D01*
X80118Y287930D01*
X80113Y287975D01*
X80042Y288234D01*
X80141Y289033D01*
X80140Y289105D01*
X80149Y289159D01*
X80149Y289256D01*
X80141Y289314D01*
X80143Y289372D01*
X80121Y289454D01*
X80109Y289537D01*
X80086Y289591D01*
X80071Y289647D01*
X80028Y289720D01*
X79993Y289797D01*
X79955Y289842D01*
X79926Y289892D01*
X79864Y289950D01*
X79810Y290014D01*
X79761Y290046D01*
X79718Y290086D01*
X79643Y290125D01*
X79573Y290171D01*
X79517Y290189D01*
X79465Y290216D01*
X79397Y290227D01*
X79302Y290257D01*
X79202Y290260D01*
X79134Y290271D01*
X75959Y290271D01*
X75959Y297035D01*
X75951Y297091D01*
X75953Y297139D01*
X75936Y297203D01*
X75922Y297306D01*
X75920Y297311D01*
X75919Y297316D01*
X75888Y297387D01*
X75881Y297414D01*
X75861Y297447D01*
X75809Y297567D01*
X75805Y297571D01*
X75803Y297576D01*
X75741Y297650D01*
X75736Y297658D01*
X75725Y297668D01*
X75715Y297680D01*
X75628Y297786D01*
X75623Y297789D01*
X75620Y297793D01*
X75505Y297869D01*
X75393Y297946D01*
X75387Y297947D01*
X75383Y297950D01*
X75253Y297992D01*
X75123Y298034D01*
X75117Y298035D01*
X75112Y298036D01*
X74976Y298040D01*
X74838Y298045D01*
X74834Y298043D01*
X74828Y298044D01*
X74673Y298003D01*
X74636Y297998D01*
X74612Y297987D01*
X74553Y297972D01*
X74533Y297960D01*
X74515Y297955D01*
X69458Y295597D01*
X69450Y295592D01*
X69442Y295589D01*
X69399Y295559D01*
X69219Y295442D01*
X69194Y295413D01*
X69169Y295395D01*
X33777Y260003D01*
X33760Y259979D01*
X33737Y259960D01*
X33674Y259866D01*
X33606Y259776D01*
X33596Y259748D01*
X33579Y259724D01*
X33545Y259616D01*
X33505Y259510D01*
X33503Y259481D01*
X33494Y259453D01*
X33491Y259339D01*
X33481Y259227D01*
X33487Y259198D01*
X33486Y259169D01*
X33515Y259059D01*
X33537Y258948D01*
X33551Y258922D01*
X33558Y258894D01*
X33616Y258796D01*
X33668Y258696D01*
X33688Y258674D01*
X33703Y258649D01*
X33786Y258572D01*
X33864Y258490D01*
X33889Y258475D01*
X33911Y258455D01*
X34012Y258403D01*
X34109Y258346D01*
X34138Y258339D01*
X34164Y258325D01*
X34241Y258312D01*
X34385Y258276D01*
X34447Y258278D01*
X34495Y258270D01*
X41503Y258270D01*
X42027Y257746D01*
X42081Y257705D01*
X42129Y257656D01*
X42194Y257620D01*
X42254Y257575D01*
X42318Y257551D01*
X42377Y257517D01*
X42450Y257500D01*
X42520Y257474D01*
X42588Y257468D01*
X42654Y257453D01*
X42728Y257456D01*
X42803Y257450D01*
X42870Y257464D01*
X42938Y257467D01*
X42997Y257489D01*
X43082Y257506D01*
X43183Y257559D01*
X43252Y257585D01*
X43259Y257589D01*
X43906Y257762D01*
X45616Y257762D01*
X45616Y249580D01*
X45624Y249522D01*
X45622Y249464D01*
X45644Y249382D01*
X45656Y249299D01*
X45679Y249245D01*
X45686Y249221D01*
X45671Y249193D01*
X45660Y249125D01*
X45630Y249030D01*
X45627Y248930D01*
X45616Y248862D01*
X45616Y240680D01*
X43906Y240680D01*
X43259Y240853D01*
X43252Y240857D01*
X43189Y240883D01*
X43130Y240917D01*
X43058Y240936D01*
X42989Y240964D01*
X42921Y240971D01*
X42855Y240988D01*
X42780Y240985D01*
X42706Y240993D01*
X42639Y240981D01*
X42571Y240979D01*
X42500Y240956D01*
X42426Y240942D01*
X42365Y240912D01*
X42300Y240891D01*
X42249Y240855D01*
X42171Y240816D01*
X42087Y240739D01*
X42027Y240696D01*
X41503Y240172D01*
X38972Y240172D01*
X38885Y240160D01*
X38798Y240157D01*
X38745Y240140D01*
X38690Y240132D01*
X38611Y240097D01*
X38527Y240070D01*
X38488Y240042D01*
X38431Y240016D01*
X38318Y239920D01*
X38254Y239875D01*
X32380Y234001D01*
X32362Y233977D01*
X32340Y233958D01*
X32277Y233864D01*
X32209Y233774D01*
X32199Y233746D01*
X32182Y233722D01*
X32148Y233614D01*
X32108Y233508D01*
X32105Y233479D01*
X32097Y233451D01*
X32094Y233337D01*
X32084Y233225D01*
X32090Y233196D01*
X32089Y233167D01*
X32118Y233057D01*
X32140Y232946D01*
X32154Y232920D01*
X32161Y232892D01*
X32219Y232794D01*
X32271Y232694D01*
X32291Y232672D01*
X32306Y232647D01*
X32389Y232570D01*
X32467Y232488D01*
X32492Y232473D01*
X32514Y232453D01*
X32615Y232401D01*
X32712Y232344D01*
X32741Y232337D01*
X32767Y232323D01*
X32844Y232310D01*
X32988Y232274D01*
X33050Y232276D01*
X33098Y232268D01*
X41503Y232268D01*
X43289Y230482D01*
X43289Y223589D01*
X43301Y223503D01*
X43304Y223415D01*
X43321Y223362D01*
X43329Y223308D01*
X43364Y223228D01*
X43391Y223145D01*
X43419Y223105D01*
X43445Y223048D01*
X43540Y222935D01*
X43586Y222871D01*
X43732Y222725D01*
X43756Y222708D01*
X43775Y222685D01*
X43869Y222623D01*
X43959Y222554D01*
X43987Y222544D01*
X44011Y222528D01*
X44119Y222493D01*
X44225Y222453D01*
X44254Y222451D01*
X44282Y222442D01*
X44395Y222439D01*
X44508Y222430D01*
X44537Y222435D01*
X44566Y222435D01*
X44676Y222463D01*
X44787Y222485D01*
X44813Y222499D01*
X44841Y222506D01*
X44939Y222564D01*
X45039Y222616D01*
X45061Y222637D01*
X45086Y222652D01*
X45163Y222734D01*
X45245Y222812D01*
X45260Y222838D01*
X45280Y222859D01*
X45332Y222960D01*
X45389Y223057D01*
X45396Y223086D01*
X45410Y223112D01*
X45423Y223189D01*
X45459Y223333D01*
X45457Y223396D01*
X45465Y223443D01*
X45465Y232824D01*
X51832Y239190D01*
X51842Y239204D01*
X51855Y239214D01*
X51857Y239217D01*
X51863Y239226D01*
X51928Y239318D01*
X52003Y239418D01*
X52009Y239433D01*
X52018Y239447D01*
X52059Y239566D01*
X52104Y239683D01*
X52105Y239700D01*
X52111Y239716D01*
X52117Y239842D01*
X52128Y239967D01*
X52124Y239983D01*
X52125Y240000D01*
X52096Y240122D01*
X52072Y240245D01*
X52064Y240260D01*
X52060Y240276D01*
X51999Y240386D01*
X51941Y240498D01*
X51929Y240510D01*
X51921Y240524D01*
X51831Y240613D01*
X51745Y240704D01*
X51730Y240712D01*
X51718Y240724D01*
X51608Y240784D01*
X51500Y240847D01*
X51483Y240852D01*
X51469Y240860D01*
X51345Y240887D01*
X51224Y240917D01*
X51207Y240917D01*
X51191Y240921D01*
X51065Y240912D01*
X50940Y240908D01*
X50924Y240903D01*
X50907Y240902D01*
X50878Y240891D01*
X50850Y240888D01*
X50074Y240680D01*
X48364Y240680D01*
X48364Y248862D01*
X48356Y248920D01*
X48358Y248978D01*
X48336Y249060D01*
X48324Y249143D01*
X48301Y249197D01*
X48294Y249221D01*
X48309Y249249D01*
X48320Y249317D01*
X48350Y249412D01*
X48353Y249512D01*
X48364Y249580D01*
X48364Y257762D01*
X50074Y257762D01*
X50721Y257589D01*
X50728Y257585D01*
X50791Y257559D01*
X50850Y257525D01*
X50922Y257506D01*
X50991Y257478D01*
X51059Y257471D01*
X51125Y257454D01*
X51200Y257457D01*
X51274Y257449D01*
X51341Y257461D01*
X51409Y257464D01*
X51480Y257486D01*
X51554Y257500D01*
X51615Y257530D01*
X51680Y257551D01*
X51731Y257587D01*
X51809Y257626D01*
X51893Y257703D01*
X51953Y257746D01*
X52477Y258270D01*
X60503Y258270D01*
X62289Y256484D01*
X62289Y254226D01*
X62297Y254168D01*
X62295Y254110D01*
X62317Y254028D01*
X62329Y253944D01*
X62352Y253891D01*
X62367Y253835D01*
X62410Y253762D01*
X62445Y253685D01*
X62483Y253640D01*
X62512Y253590D01*
X62574Y253532D01*
X62628Y253468D01*
X62677Y253436D01*
X62720Y253396D01*
X62795Y253357D01*
X62865Y253310D01*
X62921Y253293D01*
X62973Y253266D01*
X63041Y253255D01*
X63136Y253225D01*
X63236Y253222D01*
X63304Y253211D01*
X66129Y253211D01*
X68639Y252171D01*
X70561Y250249D01*
X71601Y247739D01*
X71601Y245021D01*
X70561Y242511D01*
X68878Y240828D01*
X68826Y240758D01*
X68766Y240694D01*
X68740Y240645D01*
X68707Y240601D01*
X68676Y240519D01*
X68636Y240441D01*
X68628Y240394D01*
X68606Y240335D01*
X68594Y240187D01*
X68581Y240110D01*
X68581Y238452D01*
X62168Y232039D01*
X62133Y231992D01*
X62090Y231952D01*
X62047Y231879D01*
X61997Y231811D01*
X61976Y231757D01*
X61946Y231706D01*
X61926Y231624D01*
X61896Y231546D01*
X61891Y231487D01*
X61876Y231431D01*
X61879Y231346D01*
X61872Y231262D01*
X61884Y231205D01*
X61885Y231147D01*
X61911Y231066D01*
X61928Y230984D01*
X61955Y230932D01*
X61973Y230876D01*
X62013Y230820D01*
X62059Y230731D01*
X62128Y230659D01*
X62168Y230603D01*
X62289Y230482D01*
X62289Y222888D01*
X62293Y222859D01*
X62290Y222830D01*
X62296Y222804D01*
X62295Y222793D01*
X62306Y222753D01*
X62313Y222719D01*
X62329Y222607D01*
X62341Y222580D01*
X62346Y222551D01*
X62399Y222451D01*
X62445Y222347D01*
X62464Y222325D01*
X62477Y222299D01*
X62555Y222217D01*
X62628Y222130D01*
X62653Y222114D01*
X62673Y222093D01*
X62771Y222035D01*
X62865Y221973D01*
X62893Y221964D01*
X62918Y221949D01*
X63028Y221921D01*
X63136Y221887D01*
X63166Y221886D01*
X63194Y221879D01*
X63307Y221882D01*
G37*
G36*
X106695Y82809D02*
X106695Y82809D01*
X106725Y82806D01*
X106836Y82829D01*
X106948Y82845D01*
X106975Y82857D01*
X107003Y82862D01*
X107104Y82915D01*
X107207Y82961D01*
X107230Y82980D01*
X107256Y82993D01*
X107338Y83071D01*
X107424Y83145D01*
X107441Y83169D01*
X107462Y83189D01*
X107519Y83287D01*
X107582Y83381D01*
X107591Y83409D01*
X107606Y83434D01*
X107633Y83544D01*
X107668Y83652D01*
X107668Y83682D01*
X107676Y83710D01*
X107672Y83823D01*
X107675Y83936D01*
X107668Y83965D01*
X107667Y83994D01*
X107632Y84102D01*
X107603Y84211D01*
X107588Y84237D01*
X107579Y84265D01*
X107533Y84329D01*
X107458Y84456D01*
X107412Y84499D01*
X107384Y84538D01*
X106525Y85397D01*
X104901Y89318D01*
X104901Y108802D01*
X106526Y112723D01*
X109527Y115725D01*
X110625Y116179D01*
X110626Y116180D01*
X110627Y116180D01*
X110748Y116252D01*
X110869Y116324D01*
X110870Y116325D01*
X110872Y116326D01*
X110969Y116430D01*
X111065Y116530D01*
X111065Y116532D01*
X111066Y116533D01*
X111131Y116659D01*
X111195Y116783D01*
X111195Y116785D01*
X111196Y116786D01*
X111198Y116801D01*
X111250Y117062D01*
X111247Y117093D01*
X111251Y117117D01*
X111251Y126249D01*
X121954Y136952D01*
X122006Y137021D01*
X122066Y137085D01*
X122092Y137135D01*
X122125Y137179D01*
X122156Y137260D01*
X122196Y137338D01*
X122204Y137386D01*
X122226Y137444D01*
X122238Y137592D01*
X122251Y137669D01*
X122251Y174816D01*
X122243Y174874D01*
X122245Y174932D01*
X122223Y175014D01*
X122211Y175098D01*
X122188Y175151D01*
X122173Y175207D01*
X122130Y175280D01*
X122095Y175357D01*
X122057Y175402D01*
X122028Y175452D01*
X121966Y175510D01*
X121912Y175574D01*
X121863Y175606D01*
X121820Y175646D01*
X121745Y175685D01*
X121675Y175732D01*
X121619Y175749D01*
X121567Y175776D01*
X121499Y175787D01*
X121404Y175817D01*
X121304Y175820D01*
X121236Y175831D01*
X120807Y175831D01*
X119021Y177617D01*
X119021Y188143D01*
X120915Y190036D01*
X120932Y190060D01*
X120955Y190079D01*
X121017Y190173D01*
X121085Y190263D01*
X121096Y190291D01*
X121112Y190315D01*
X121146Y190423D01*
X121187Y190529D01*
X121189Y190558D01*
X121198Y190586D01*
X121201Y190700D01*
X121210Y190812D01*
X121205Y190841D01*
X121205Y190870D01*
X121177Y190980D01*
X121154Y191091D01*
X121141Y191117D01*
X121133Y191145D01*
X121076Y191243D01*
X121023Y191343D01*
X121003Y191365D01*
X120988Y191390D01*
X120906Y191467D01*
X120828Y191549D01*
X120802Y191564D01*
X120781Y191584D01*
X120680Y191636D01*
X120582Y191693D01*
X120554Y191700D01*
X120528Y191714D01*
X120450Y191727D01*
X120307Y191763D01*
X120244Y191761D01*
X120197Y191769D01*
X117569Y191769D01*
X117482Y191757D01*
X117395Y191754D01*
X117342Y191737D01*
X117287Y191729D01*
X117208Y191694D01*
X117124Y191667D01*
X117085Y191639D01*
X117028Y191613D01*
X116915Y191517D01*
X116851Y191472D01*
X116210Y190831D01*
X116158Y190761D01*
X116098Y190697D01*
X116072Y190648D01*
X116039Y190604D01*
X116008Y190522D01*
X115968Y190444D01*
X115960Y190397D01*
X115938Y190338D01*
X115926Y190190D01*
X115913Y190113D01*
X115913Y183842D01*
X113680Y181609D01*
X111615Y181609D01*
X111596Y181607D01*
X111576Y181609D01*
X111455Y181587D01*
X111334Y181569D01*
X111316Y181561D01*
X111296Y181558D01*
X111187Y181504D01*
X111074Y181453D01*
X111059Y181441D01*
X111042Y181432D01*
X110951Y181349D01*
X110857Y181270D01*
X110846Y181253D01*
X110832Y181240D01*
X110768Y181135D01*
X110700Y181033D01*
X110694Y181014D01*
X110683Y180998D01*
X110651Y180879D01*
X110614Y180762D01*
X110613Y180742D01*
X110608Y180723D01*
X110610Y180601D01*
X110607Y180478D01*
X110611Y180459D01*
X110612Y180439D01*
X110647Y180321D01*
X110678Y180203D01*
X110688Y180186D01*
X110694Y180167D01*
X110761Y180063D01*
X110824Y179958D01*
X110838Y179945D01*
X110848Y179928D01*
X110905Y179881D01*
X111031Y179764D01*
X111076Y179740D01*
X111107Y179715D01*
X111630Y179413D01*
X112103Y178940D01*
X112438Y178361D01*
X112611Y177714D01*
X112611Y175379D01*
X107569Y175379D01*
X107569Y180594D01*
X107561Y180652D01*
X107563Y180710D01*
X107541Y180792D01*
X107529Y180876D01*
X107506Y180929D01*
X107491Y180985D01*
X107448Y181058D01*
X107413Y181135D01*
X107375Y181180D01*
X107346Y181230D01*
X107284Y181288D01*
X107230Y181352D01*
X107181Y181384D01*
X107138Y181424D01*
X107063Y181463D01*
X106993Y181510D01*
X106937Y181527D01*
X106885Y181554D01*
X106817Y181565D01*
X106722Y181595D01*
X106622Y181598D01*
X106554Y181609D01*
X104586Y181609D01*
X104528Y181601D01*
X104470Y181603D01*
X104388Y181581D01*
X104304Y181569D01*
X104251Y181546D01*
X104195Y181531D01*
X104122Y181488D01*
X104045Y181453D01*
X104000Y181415D01*
X103950Y181386D01*
X103892Y181324D01*
X103828Y181270D01*
X103796Y181221D01*
X103756Y181178D01*
X103717Y181103D01*
X103670Y181033D01*
X103653Y180977D01*
X103626Y180925D01*
X103615Y180857D01*
X103585Y180762D01*
X103582Y180662D01*
X103571Y180594D01*
X103571Y175379D01*
X98529Y175379D01*
X98529Y177714D01*
X98702Y178361D01*
X99037Y178940D01*
X99510Y179413D01*
X100033Y179715D01*
X100048Y179727D01*
X100066Y179735D01*
X100159Y179814D01*
X100256Y179890D01*
X100268Y179906D01*
X100283Y179919D01*
X100351Y180021D01*
X100423Y180120D01*
X100430Y180139D01*
X100440Y180155D01*
X100478Y180272D01*
X100519Y180388D01*
X100520Y180408D01*
X100526Y180426D01*
X100529Y180549D01*
X100537Y180672D01*
X100533Y180691D01*
X100533Y180710D01*
X100502Y180829D01*
X100476Y180949D01*
X100467Y180967D01*
X100462Y180985D01*
X100399Y181091D01*
X100340Y181199D01*
X100326Y181213D01*
X100316Y181230D01*
X100227Y181314D01*
X100140Y181401D01*
X100123Y181411D01*
X100109Y181424D01*
X100000Y181480D01*
X99893Y181540D01*
X99873Y181545D01*
X99856Y181554D01*
X99783Y181566D01*
X99616Y181605D01*
X99565Y181603D01*
X99525Y181609D01*
X93182Y181609D01*
X92174Y182617D01*
X92106Y182668D01*
X92043Y182727D01*
X91993Y182753D01*
X91947Y182787D01*
X91867Y182818D01*
X91790Y182857D01*
X91735Y182868D01*
X91681Y182889D01*
X91596Y182896D01*
X91512Y182912D01*
X91455Y182908D01*
X91398Y182912D01*
X91314Y182895D01*
X91228Y182888D01*
X91175Y182868D01*
X91119Y182856D01*
X91043Y182817D01*
X90963Y182786D01*
X90918Y182752D01*
X90867Y182725D01*
X90805Y182666D01*
X90736Y182614D01*
X90702Y182569D01*
X90661Y182530D01*
X90617Y182455D01*
X90566Y182387D01*
X90546Y182333D01*
X90517Y182284D01*
X90496Y182201D01*
X90466Y182121D01*
X90461Y182064D01*
X90447Y182009D01*
X90450Y181923D01*
X90443Y181837D01*
X90454Y181789D01*
X90456Y181725D01*
X90501Y181587D01*
X90518Y181510D01*
X90651Y181191D01*
X90651Y178473D01*
X89611Y175963D01*
X89198Y175550D01*
X89146Y175480D01*
X89086Y175416D01*
X89060Y175367D01*
X89027Y175323D01*
X88996Y175241D01*
X88956Y175163D01*
X88948Y175116D01*
X88926Y175057D01*
X88914Y174909D01*
X88901Y174832D01*
X88901Y172774D01*
X88909Y172716D01*
X88907Y172658D01*
X88929Y172576D01*
X88941Y172492D01*
X88964Y172439D01*
X88979Y172383D01*
X89022Y172310D01*
X89057Y172233D01*
X89095Y172188D01*
X89124Y172138D01*
X89186Y172080D01*
X89240Y172016D01*
X89289Y171984D01*
X89332Y171944D01*
X89407Y171905D01*
X89477Y171858D01*
X89533Y171841D01*
X89585Y171814D01*
X89653Y171803D01*
X89748Y171773D01*
X89848Y171770D01*
X89916Y171759D01*
X93853Y171759D01*
X95110Y170501D01*
X95180Y170449D01*
X95244Y170389D01*
X95294Y170363D01*
X95338Y170330D01*
X95419Y170299D01*
X95497Y170259D01*
X95545Y170251D01*
X95603Y170229D01*
X95751Y170217D01*
X95828Y170204D01*
X97514Y170204D01*
X97572Y170212D01*
X97630Y170210D01*
X97712Y170232D01*
X97796Y170244D01*
X97849Y170267D01*
X97905Y170282D01*
X97978Y170325D01*
X98055Y170360D01*
X98100Y170398D01*
X98150Y170427D01*
X98208Y170489D01*
X98272Y170543D01*
X98304Y170592D01*
X98344Y170635D01*
X98383Y170710D01*
X98430Y170780D01*
X98447Y170836D01*
X98474Y170888D01*
X98485Y170956D01*
X98515Y171051D01*
X98518Y171151D01*
X98529Y171219D01*
X98529Y171381D01*
X104586Y171381D01*
X104644Y171389D01*
X104702Y171387D01*
X104784Y171409D01*
X104867Y171421D01*
X104921Y171444D01*
X104977Y171459D01*
X105050Y171502D01*
X105127Y171537D01*
X105171Y171575D01*
X105222Y171604D01*
X105279Y171666D01*
X105344Y171720D01*
X105376Y171769D01*
X105416Y171812D01*
X105455Y171887D01*
X105501Y171957D01*
X105519Y172013D01*
X105546Y172065D01*
X105557Y172133D01*
X105570Y172175D01*
X105579Y172114D01*
X105603Y172061D01*
X105617Y172005D01*
X105661Y171932D01*
X105695Y171855D01*
X105733Y171810D01*
X105763Y171760D01*
X105824Y171702D01*
X105879Y171638D01*
X105927Y171606D01*
X105970Y171566D01*
X106045Y171527D01*
X106115Y171480D01*
X106171Y171463D01*
X106223Y171436D01*
X106291Y171425D01*
X106386Y171395D01*
X106486Y171392D01*
X106554Y171381D01*
X112611Y171381D01*
X112611Y169046D01*
X112438Y168399D01*
X112103Y167820D01*
X111630Y167347D01*
X111051Y167012D01*
X110401Y166838D01*
X110338Y166812D01*
X110273Y166794D01*
X110208Y166756D01*
X110140Y166727D01*
X110087Y166684D01*
X110028Y166649D01*
X109977Y166595D01*
X109919Y166548D01*
X109880Y166492D01*
X109834Y166442D01*
X109800Y166375D01*
X109757Y166314D01*
X109735Y166250D01*
X109704Y166189D01*
X109694Y166127D01*
X109666Y166045D01*
X109661Y165931D01*
X109649Y165858D01*
X109649Y155142D01*
X108145Y153639D01*
X108110Y153592D01*
X108068Y153552D01*
X108025Y153479D01*
X107974Y153412D01*
X107953Y153357D01*
X107924Y153306D01*
X107903Y153225D01*
X107873Y153146D01*
X107868Y153087D01*
X107854Y153031D01*
X107857Y152947D01*
X107850Y152863D01*
X107861Y152805D01*
X107863Y152747D01*
X107889Y152667D01*
X107905Y152584D01*
X107932Y152532D01*
X107950Y152476D01*
X107990Y152420D01*
X108036Y152331D01*
X108105Y152259D01*
X108145Y152203D01*
X108633Y151715D01*
X108968Y151136D01*
X109141Y150489D01*
X109141Y146811D01*
X102616Y146811D01*
X102558Y146803D01*
X102500Y146804D01*
X102418Y146783D01*
X102335Y146771D01*
X102281Y146747D01*
X102225Y146733D01*
X102152Y146690D01*
X102075Y146655D01*
X102031Y146617D01*
X101980Y146587D01*
X101923Y146526D01*
X101858Y146471D01*
X101826Y146423D01*
X101786Y146380D01*
X101747Y146305D01*
X101701Y146235D01*
X101683Y146179D01*
X101656Y146127D01*
X101645Y146059D01*
X101615Y145964D01*
X101612Y145864D01*
X101601Y145796D01*
X101601Y144779D01*
X101599Y144779D01*
X101599Y145796D01*
X101592Y145847D01*
X101592Y145867D01*
X101591Y145871D01*
X101592Y145912D01*
X101571Y145994D01*
X101559Y146077D01*
X101535Y146131D01*
X101521Y146187D01*
X101478Y146260D01*
X101443Y146337D01*
X101405Y146381D01*
X101375Y146432D01*
X101314Y146489D01*
X101259Y146554D01*
X101211Y146586D01*
X101168Y146626D01*
X101093Y146665D01*
X101023Y146711D01*
X100967Y146729D01*
X100915Y146756D01*
X100847Y146767D01*
X100752Y146797D01*
X100652Y146800D01*
X100584Y146811D01*
X96146Y146811D01*
X96088Y146803D01*
X96030Y146804D01*
X95948Y146783D01*
X95864Y146771D01*
X95811Y146747D01*
X95755Y146733D01*
X95682Y146690D01*
X95605Y146655D01*
X95560Y146617D01*
X95510Y146587D01*
X95452Y146526D01*
X95388Y146471D01*
X95356Y146423D01*
X95316Y146380D01*
X95277Y146305D01*
X95230Y146235D01*
X95213Y146179D01*
X95186Y146127D01*
X95175Y146059D01*
X95145Y145964D01*
X95142Y145864D01*
X95131Y145796D01*
X95131Y145541D01*
X87121Y145541D01*
X87121Y152246D01*
X87113Y152304D01*
X87114Y152362D01*
X87093Y152444D01*
X87081Y152528D01*
X87057Y152581D01*
X87043Y152637D01*
X87000Y152710D01*
X86965Y152787D01*
X86927Y152832D01*
X86897Y152882D01*
X86836Y152940D01*
X86781Y153004D01*
X86733Y153036D01*
X86690Y153076D01*
X86615Y153115D01*
X86545Y153162D01*
X86489Y153179D01*
X86437Y153206D01*
X86369Y153217D01*
X86274Y153247D01*
X86174Y153250D01*
X86106Y153261D01*
X84074Y153261D01*
X84016Y153253D01*
X83958Y153255D01*
X83876Y153233D01*
X83793Y153221D01*
X83739Y153198D01*
X83683Y153183D01*
X83610Y153140D01*
X83533Y153105D01*
X83488Y153067D01*
X83438Y153038D01*
X83380Y152976D01*
X83316Y152922D01*
X83284Y152873D01*
X83244Y152830D01*
X83205Y152755D01*
X83159Y152685D01*
X83141Y152629D01*
X83114Y152577D01*
X83103Y152509D01*
X83073Y152414D01*
X83070Y152314D01*
X83059Y152246D01*
X83059Y144526D01*
X83067Y144468D01*
X83065Y144410D01*
X83087Y144328D01*
X83099Y144245D01*
X83123Y144191D01*
X83137Y144135D01*
X83180Y144062D01*
X83215Y143985D01*
X83253Y143941D01*
X83283Y143890D01*
X83344Y143833D01*
X83399Y143768D01*
X83447Y143736D01*
X83490Y143696D01*
X83565Y143657D01*
X83635Y143611D01*
X83691Y143593D01*
X83743Y143566D01*
X83811Y143555D01*
X83906Y143525D01*
X84006Y143522D01*
X84074Y143511D01*
X85091Y143511D01*
X85091Y142494D01*
X85099Y142436D01*
X85098Y142378D01*
X85119Y142296D01*
X85131Y142213D01*
X85155Y142159D01*
X85169Y142103D01*
X85212Y142030D01*
X85247Y141953D01*
X85285Y141908D01*
X85315Y141858D01*
X85376Y141800D01*
X85431Y141736D01*
X85479Y141704D01*
X85522Y141664D01*
X85597Y141625D01*
X85667Y141579D01*
X85723Y141561D01*
X85775Y141534D01*
X85843Y141523D01*
X85938Y141493D01*
X86038Y141490D01*
X86106Y141479D01*
X93044Y141479D01*
X93102Y141487D01*
X93160Y141485D01*
X93242Y141507D01*
X93326Y141519D01*
X93379Y141543D01*
X93435Y141557D01*
X93508Y141600D01*
X93585Y141635D01*
X93630Y141673D01*
X93680Y141703D01*
X93738Y141764D01*
X93802Y141819D01*
X93834Y141867D01*
X93874Y141910D01*
X93913Y141985D01*
X93960Y142055D01*
X93977Y142111D01*
X94004Y142163D01*
X94015Y142231D01*
X94045Y142326D01*
X94048Y142426D01*
X94059Y142494D01*
X94059Y142749D01*
X99569Y142749D01*
X99569Y136864D01*
X96265Y136864D01*
X96153Y136894D01*
X96085Y136903D01*
X96019Y136921D01*
X95945Y136920D01*
X95871Y136929D01*
X95803Y136918D01*
X95735Y136917D01*
X95664Y136896D01*
X95590Y136884D01*
X95528Y136855D01*
X95463Y136835D01*
X95400Y136794D01*
X95333Y136763D01*
X95282Y136717D01*
X95224Y136680D01*
X95185Y136632D01*
X95119Y136575D01*
X95058Y136479D01*
X95011Y136421D01*
X94623Y135750D01*
X94150Y135277D01*
X93571Y134942D01*
X92924Y134769D01*
X88060Y134769D01*
X88031Y134765D01*
X88002Y134768D01*
X87891Y134745D01*
X87779Y134729D01*
X87752Y134717D01*
X87723Y134712D01*
X87623Y134660D01*
X87519Y134613D01*
X87497Y134594D01*
X87471Y134581D01*
X87389Y134503D01*
X87302Y134430D01*
X87286Y134405D01*
X87265Y134385D01*
X87207Y134287D01*
X87145Y134193D01*
X87136Y134165D01*
X87121Y134140D01*
X87093Y134030D01*
X87059Y133922D01*
X87058Y133892D01*
X87051Y133864D01*
X87054Y133751D01*
X87052Y133638D01*
X87059Y133609D01*
X87060Y133580D01*
X87095Y133472D01*
X87123Y133363D01*
X87138Y133337D01*
X87147Y133309D01*
X87193Y133246D01*
X87269Y133118D01*
X87314Y133075D01*
X87342Y133036D01*
X94235Y126144D01*
X94235Y117222D01*
X94235Y117221D01*
X94235Y117219D01*
X94255Y117079D01*
X94275Y116941D01*
X94275Y116940D01*
X94275Y116938D01*
X94332Y116812D01*
X94391Y116682D01*
X94392Y116680D01*
X94393Y116679D01*
X94487Y116568D01*
X94574Y116465D01*
X94576Y116464D01*
X94577Y116462D01*
X94590Y116454D01*
X94811Y116307D01*
X94840Y116298D01*
X94861Y116284D01*
X96213Y115724D01*
X99214Y112723D01*
X100839Y108802D01*
X100839Y89318D01*
X99215Y85397D01*
X98356Y84538D01*
X98338Y84514D01*
X98316Y84496D01*
X98253Y84401D01*
X98185Y84311D01*
X98174Y84283D01*
X98158Y84259D01*
X98124Y84151D01*
X98084Y84045D01*
X98081Y84016D01*
X98072Y83988D01*
X98069Y83875D01*
X98060Y83762D01*
X98066Y83733D01*
X98065Y83704D01*
X98094Y83594D01*
X98116Y83483D01*
X98130Y83457D01*
X98137Y83429D01*
X98195Y83332D01*
X98247Y83231D01*
X98267Y83209D01*
X98282Y83184D01*
X98365Y83107D01*
X98443Y83025D01*
X98468Y83010D01*
X98489Y82990D01*
X98590Y82938D01*
X98688Y82881D01*
X98716Y82874D01*
X98743Y82860D01*
X98820Y82847D01*
X98964Y82811D01*
X99026Y82813D01*
X99074Y82805D01*
X106666Y82805D01*
X106695Y82809D01*
G37*
G36*
X116735Y271159D02*
X116735Y271159D01*
X116850Y271163D01*
X116876Y271171D01*
X116904Y271174D01*
X117011Y271215D01*
X117120Y271250D01*
X117141Y271265D01*
X117169Y271276D01*
X117186Y271289D01*
X137383Y271289D01*
X137384Y271289D01*
X137386Y271289D01*
X137525Y271309D01*
X137664Y271329D01*
X137665Y271329D01*
X137667Y271329D01*
X137793Y271386D01*
X137923Y271445D01*
X137925Y271446D01*
X137926Y271447D01*
X138033Y271537D01*
X138140Y271628D01*
X138141Y271630D01*
X138143Y271631D01*
X138151Y271644D01*
X138298Y271865D01*
X138307Y271894D01*
X138320Y271915D01*
X139226Y274101D01*
X140091Y274966D01*
X140109Y274990D01*
X140131Y275009D01*
X140194Y275103D01*
X140262Y275193D01*
X140272Y275221D01*
X140289Y275245D01*
X140323Y275353D01*
X140363Y275459D01*
X140366Y275488D01*
X140375Y275516D01*
X140377Y275630D01*
X140387Y275742D01*
X140381Y275771D01*
X140382Y275800D01*
X140353Y275910D01*
X140331Y276021D01*
X140317Y276047D01*
X140310Y276075D01*
X140252Y276173D01*
X140200Y276273D01*
X140180Y276295D01*
X140165Y276320D01*
X140082Y276397D01*
X140004Y276479D01*
X139979Y276494D01*
X139957Y276514D01*
X139856Y276566D01*
X139759Y276623D01*
X139730Y276630D01*
X139704Y276644D01*
X139627Y276657D01*
X139483Y276693D01*
X139421Y276691D01*
X139373Y276699D01*
X136531Y276699D01*
X136531Y287209D01*
X142041Y287209D01*
X142041Y278906D01*
X141903Y278391D01*
X141890Y278287D01*
X141870Y278184D01*
X141873Y278146D01*
X141869Y278109D01*
X141885Y278005D01*
X141894Y277901D01*
X141908Y277866D01*
X141914Y277829D01*
X141959Y277733D01*
X141996Y277635D01*
X142019Y277605D01*
X142035Y277571D01*
X142105Y277492D01*
X142168Y277409D01*
X142198Y277386D01*
X142223Y277358D01*
X142311Y277301D01*
X142396Y277238D01*
X142431Y277225D01*
X142462Y277205D01*
X142563Y277175D01*
X142662Y277138D01*
X142699Y277135D01*
X142735Y277124D01*
X142840Y277124D01*
X142945Y277115D01*
X142978Y277123D01*
X143019Y277123D01*
X143213Y277177D01*
X143272Y277191D01*
X144793Y277821D01*
X146944Y277821D01*
X147002Y277829D01*
X147060Y277827D01*
X147142Y277849D01*
X147226Y277861D01*
X147279Y277884D01*
X147335Y277899D01*
X147408Y277942D01*
X147485Y277977D01*
X147530Y278015D01*
X147580Y278044D01*
X147638Y278106D01*
X147702Y278160D01*
X147734Y278209D01*
X147774Y278252D01*
X147813Y278327D01*
X147860Y278397D01*
X147877Y278453D01*
X147904Y278505D01*
X147915Y278573D01*
X147945Y278668D01*
X147948Y278768D01*
X147959Y278836D01*
X147959Y286209D01*
X151134Y286209D01*
X151192Y286217D01*
X151250Y286215D01*
X151332Y286237D01*
X151416Y286249D01*
X151469Y286273D01*
X151525Y286287D01*
X151598Y286330D01*
X151675Y286365D01*
X151720Y286403D01*
X151770Y286433D01*
X151828Y286494D01*
X151892Y286549D01*
X151924Y286597D01*
X151964Y286640D01*
X152003Y286715D01*
X152050Y286785D01*
X152067Y286841D01*
X152094Y286893D01*
X152105Y286961D01*
X152135Y287056D01*
X152138Y287156D01*
X152149Y287224D01*
X152149Y287955D01*
X152144Y287992D01*
X152147Y288022D01*
X152060Y289323D01*
X152055Y289348D01*
X152056Y289372D01*
X152026Y289486D01*
X152002Y289602D01*
X151990Y289624D01*
X151984Y289647D01*
X151924Y289749D01*
X151869Y289853D01*
X151851Y289871D01*
X151839Y289892D01*
X151753Y289973D01*
X151671Y290057D01*
X151649Y290069D01*
X151631Y290086D01*
X151526Y290140D01*
X151424Y290199D01*
X151400Y290204D01*
X151378Y290216D01*
X151302Y290228D01*
X151148Y290266D01*
X151091Y290264D01*
X151047Y290271D01*
X147959Y290271D01*
X147959Y301074D01*
X148132Y301721D01*
X148467Y302300D01*
X148940Y302773D01*
X149519Y303108D01*
X150166Y303281D01*
X157604Y303281D01*
X157613Y303282D01*
X157623Y303281D01*
X157754Y303302D01*
X157885Y303321D01*
X157894Y303325D01*
X157904Y303326D01*
X158024Y303383D01*
X158145Y303437D01*
X158152Y303443D01*
X158161Y303447D01*
X158261Y303535D01*
X158362Y303620D01*
X158367Y303629D01*
X158374Y303635D01*
X158446Y303747D01*
X158519Y303857D01*
X158522Y303866D01*
X158527Y303875D01*
X158565Y304002D01*
X158605Y304128D01*
X158605Y304138D01*
X158608Y304147D01*
X158609Y304280D01*
X158612Y304412D01*
X158610Y304422D01*
X158610Y304432D01*
X158574Y304560D01*
X158540Y304687D01*
X158535Y304696D01*
X158533Y304705D01*
X158463Y304818D01*
X158395Y304932D01*
X158388Y304939D01*
X158383Y304947D01*
X158285Y305036D01*
X158188Y305126D01*
X158179Y305131D01*
X158172Y305137D01*
X158120Y305161D01*
X157935Y305256D01*
X157899Y305262D01*
X157866Y305277D01*
X155113Y306014D01*
X154934Y306036D01*
X154864Y306049D01*
X99533Y306828D01*
X99279Y306796D01*
X99256Y306794D01*
X93594Y305277D01*
X93584Y305273D01*
X93575Y305271D01*
X93453Y305217D01*
X93332Y305165D01*
X93324Y305159D01*
X93315Y305155D01*
X93214Y305070D01*
X93111Y304986D01*
X93106Y304978D01*
X93098Y304971D01*
X93025Y304861D01*
X92949Y304752D01*
X92946Y304743D01*
X92941Y304735D01*
X92901Y304608D01*
X92858Y304483D01*
X92858Y304473D01*
X92855Y304464D01*
X92852Y304331D01*
X92846Y304199D01*
X92848Y304189D01*
X92848Y304180D01*
X92881Y304052D01*
X92912Y303923D01*
X92917Y303914D01*
X92920Y303905D01*
X92987Y303791D01*
X93053Y303675D01*
X93060Y303669D01*
X93065Y303660D01*
X93161Y303570D01*
X93256Y303477D01*
X93265Y303472D01*
X93272Y303466D01*
X93389Y303406D01*
X93507Y303343D01*
X93517Y303341D01*
X93525Y303336D01*
X93581Y303327D01*
X93785Y303283D01*
X93821Y303287D01*
X93856Y303281D01*
X103834Y303281D01*
X104481Y303108D01*
X105060Y302773D01*
X105533Y302300D01*
X105868Y301721D01*
X106041Y301074D01*
X106041Y290271D01*
X102866Y290271D01*
X102808Y290263D01*
X102750Y290265D01*
X102668Y290243D01*
X102584Y290231D01*
X102531Y290207D01*
X102475Y290193D01*
X102402Y290150D01*
X102325Y290115D01*
X102280Y290077D01*
X102230Y290047D01*
X102172Y289986D01*
X102108Y289931D01*
X102076Y289883D01*
X102036Y289840D01*
X101997Y289765D01*
X101950Y289695D01*
X101933Y289639D01*
X101906Y289587D01*
X101895Y289519D01*
X101865Y289424D01*
X101862Y289324D01*
X101851Y289256D01*
X101851Y289159D01*
X101861Y289087D01*
X101859Y289033D01*
X101958Y288234D01*
X101887Y287975D01*
X101858Y287750D01*
X101851Y287706D01*
X101851Y287224D01*
X101859Y287166D01*
X101857Y287108D01*
X101879Y287026D01*
X101891Y286943D01*
X101914Y286889D01*
X101929Y286833D01*
X101972Y286760D01*
X102007Y286683D01*
X102045Y286638D01*
X102074Y286588D01*
X102136Y286530D01*
X102190Y286466D01*
X102239Y286434D01*
X102282Y286394D01*
X102357Y286355D01*
X102427Y286309D01*
X102483Y286291D01*
X102535Y286264D01*
X102603Y286253D01*
X102698Y286223D01*
X102798Y286220D01*
X102866Y286209D01*
X106041Y286209D01*
X106041Y278836D01*
X106049Y278778D01*
X106047Y278720D01*
X106069Y278638D01*
X106081Y278554D01*
X106104Y278501D01*
X106119Y278445D01*
X106162Y278372D01*
X106197Y278295D01*
X106235Y278250D01*
X106264Y278200D01*
X106326Y278142D01*
X106380Y278078D01*
X106429Y278046D01*
X106472Y278006D01*
X106547Y277967D01*
X106617Y277920D01*
X106673Y277903D01*
X106725Y277876D01*
X106793Y277865D01*
X106888Y277835D01*
X106988Y277832D01*
X107056Y277821D01*
X109207Y277821D01*
X110728Y277191D01*
X110830Y277164D01*
X110929Y277131D01*
X110967Y277129D01*
X111003Y277120D01*
X111108Y277123D01*
X111213Y277118D01*
X111250Y277127D01*
X111287Y277128D01*
X111387Y277160D01*
X111490Y277185D01*
X111522Y277203D01*
X111558Y277215D01*
X111645Y277273D01*
X111737Y277325D01*
X111763Y277352D01*
X111794Y277373D01*
X111862Y277453D01*
X111935Y277529D01*
X111953Y277562D01*
X111977Y277590D01*
X112020Y277686D01*
X112070Y277779D01*
X112077Y277816D01*
X112093Y277850D01*
X112107Y277954D01*
X112129Y278057D01*
X112126Y278091D01*
X112132Y278132D01*
X112103Y278331D01*
X112097Y278391D01*
X111959Y278906D01*
X111959Y287209D01*
X117469Y287209D01*
X117469Y276699D01*
X114627Y276699D01*
X114598Y276695D01*
X114568Y276698D01*
X114457Y276675D01*
X114345Y276659D01*
X114319Y276647D01*
X114290Y276642D01*
X114189Y276589D01*
X114086Y276543D01*
X114063Y276524D01*
X114037Y276511D01*
X113955Y276433D01*
X113869Y276360D01*
X113853Y276335D01*
X113831Y276315D01*
X113774Y276217D01*
X113711Y276123D01*
X113702Y276095D01*
X113688Y276070D01*
X113660Y275960D01*
X113625Y275852D01*
X113625Y275822D01*
X113617Y275794D01*
X113621Y275681D01*
X113618Y275568D01*
X113626Y275539D01*
X113627Y275510D01*
X113661Y275402D01*
X113690Y275293D01*
X113705Y275267D01*
X113714Y275239D01*
X113760Y275175D01*
X113835Y275048D01*
X113881Y275005D01*
X113909Y274966D01*
X114774Y274101D01*
X115738Y271775D01*
X115796Y271676D01*
X115849Y271574D01*
X115868Y271554D01*
X115882Y271530D01*
X115966Y271451D01*
X116045Y271368D01*
X116069Y271354D01*
X116089Y271335D01*
X116191Y271282D01*
X116290Y271224D01*
X116317Y271217D01*
X116342Y271204D01*
X116454Y271182D01*
X116566Y271154D01*
X116593Y271155D01*
X116621Y271149D01*
X116735Y271159D01*
G37*
G36*
X161042Y249437D02*
X161042Y249437D01*
X161100Y249435D01*
X161182Y249457D01*
X161266Y249469D01*
X161319Y249492D01*
X161375Y249507D01*
X161448Y249550D01*
X161525Y249585D01*
X161570Y249623D01*
X161620Y249652D01*
X161678Y249714D01*
X161742Y249768D01*
X161774Y249817D01*
X161814Y249860D01*
X161853Y249935D01*
X161900Y250005D01*
X161917Y250061D01*
X161944Y250113D01*
X161955Y250181D01*
X161985Y250276D01*
X161988Y250376D01*
X161999Y250444D01*
X161999Y258241D01*
X181941Y258241D01*
X181812Y257591D01*
X181127Y255939D01*
X180133Y254451D01*
X178869Y253187D01*
X177381Y252193D01*
X175729Y251508D01*
X175384Y251440D01*
X175344Y251425D01*
X175301Y251419D01*
X175210Y251379D01*
X175116Y251346D01*
X175081Y251321D01*
X175041Y251303D01*
X174965Y251239D01*
X174884Y251181D01*
X174857Y251147D01*
X174824Y251119D01*
X174769Y251037D01*
X174707Y250959D01*
X174691Y250919D01*
X174667Y250883D01*
X174637Y250788D01*
X174599Y250696D01*
X174594Y250653D01*
X174581Y250612D01*
X174579Y250512D01*
X174568Y250413D01*
X174575Y250371D01*
X174574Y250328D01*
X174599Y250231D01*
X174616Y250133D01*
X174635Y250094D01*
X174646Y250053D01*
X174696Y249967D01*
X174740Y249877D01*
X174769Y249845D01*
X174791Y249808D01*
X174863Y249740D01*
X174930Y249666D01*
X174967Y249643D01*
X174998Y249614D01*
X175087Y249568D01*
X175171Y249516D01*
X175213Y249504D01*
X175251Y249484D01*
X175327Y249472D01*
X175445Y249438D01*
X175514Y249440D01*
X175582Y249429D01*
X184481Y249429D01*
X184567Y249441D01*
X184655Y249444D01*
X184707Y249461D01*
X184762Y249469D01*
X184842Y249504D01*
X184925Y249531D01*
X184964Y249559D01*
X185021Y249585D01*
X185135Y249681D01*
X185198Y249726D01*
X186983Y251510D01*
X187018Y251557D01*
X187060Y251597D01*
X187103Y251670D01*
X187153Y251737D01*
X187174Y251792D01*
X187204Y251842D01*
X187225Y251924D01*
X187255Y252003D01*
X187259Y252061D01*
X187274Y252118D01*
X187271Y252202D01*
X187278Y252286D01*
X187267Y252344D01*
X187265Y252402D01*
X187239Y252482D01*
X187222Y252565D01*
X187195Y252617D01*
X187177Y252673D01*
X187137Y252729D01*
X187091Y252817D01*
X187023Y252890D01*
X186983Y252946D01*
X185741Y254187D01*
X185741Y264713D01*
X187261Y266232D01*
X187296Y266279D01*
X187338Y266319D01*
X187381Y266392D01*
X187431Y266459D01*
X187452Y266514D01*
X187482Y266564D01*
X187503Y266646D01*
X187533Y266725D01*
X187538Y266783D01*
X187552Y266840D01*
X187549Y266924D01*
X187556Y267008D01*
X187545Y267066D01*
X187543Y267124D01*
X187517Y267204D01*
X187500Y267287D01*
X187473Y267339D01*
X187455Y267395D01*
X187415Y267451D01*
X187369Y267539D01*
X187301Y267612D01*
X187261Y267668D01*
X185741Y269187D01*
X185741Y279713D01*
X187527Y281499D01*
X197546Y281499D01*
X197575Y281503D01*
X197604Y281500D01*
X197715Y281523D01*
X197828Y281539D01*
X197854Y281551D01*
X197883Y281556D01*
X197984Y281608D01*
X198087Y281655D01*
X198109Y281674D01*
X198135Y281687D01*
X198217Y281765D01*
X198304Y281838D01*
X198320Y281863D01*
X198341Y281883D01*
X198399Y281981D01*
X198462Y282075D01*
X198470Y282103D01*
X198485Y282128D01*
X198513Y282238D01*
X198547Y282346D01*
X198548Y282376D01*
X198555Y282404D01*
X198552Y282517D01*
X198555Y282630D01*
X198547Y282659D01*
X198546Y282688D01*
X198511Y282796D01*
X198483Y282905D01*
X198468Y282931D01*
X198459Y282959D01*
X198413Y283022D01*
X198338Y283150D01*
X198292Y283193D01*
X198264Y283232D01*
X193256Y288240D01*
X193172Y288303D01*
X193121Y288353D01*
X184391Y294466D01*
X184296Y294514D01*
X184237Y294555D01*
X179485Y296771D01*
X179354Y296811D01*
X179224Y296852D01*
X179218Y296852D01*
X179213Y296854D01*
X179076Y296856D01*
X178940Y296859D01*
X178934Y296858D01*
X178929Y296858D01*
X178796Y296822D01*
X178665Y296787D01*
X178660Y296785D01*
X178655Y296783D01*
X178537Y296712D01*
X178420Y296642D01*
X178416Y296638D01*
X178412Y296635D01*
X178320Y296535D01*
X178226Y296435D01*
X178223Y296430D01*
X178219Y296426D01*
X178158Y296303D01*
X178096Y296182D01*
X178095Y296177D01*
X178093Y296171D01*
X178042Y295892D01*
X178044Y295869D01*
X178041Y295851D01*
X178041Y290271D01*
X174953Y290271D01*
X174928Y290268D01*
X174904Y290270D01*
X174788Y290248D01*
X174671Y290231D01*
X174649Y290221D01*
X174624Y290217D01*
X174519Y290163D01*
X174412Y290115D01*
X174393Y290099D01*
X174371Y290088D01*
X174285Y290008D01*
X174195Y289931D01*
X174181Y289911D01*
X174163Y289894D01*
X174103Y289793D01*
X174037Y289695D01*
X174030Y289671D01*
X174017Y289650D01*
X173999Y289575D01*
X173951Y289424D01*
X173950Y289367D01*
X173940Y289323D01*
X173853Y288022D01*
X173856Y287985D01*
X173851Y287955D01*
X173851Y287224D01*
X173859Y287166D01*
X173857Y287108D01*
X173879Y287026D01*
X173891Y286943D01*
X173914Y286889D01*
X173929Y286833D01*
X173972Y286760D01*
X174007Y286683D01*
X174045Y286638D01*
X174074Y286588D01*
X174136Y286530D01*
X174190Y286466D01*
X174239Y286434D01*
X174282Y286394D01*
X174357Y286355D01*
X174427Y286309D01*
X174483Y286291D01*
X174535Y286264D01*
X174603Y286253D01*
X174698Y286223D01*
X174798Y286220D01*
X174866Y286209D01*
X178041Y286209D01*
X178041Y275406D01*
X177868Y274759D01*
X177533Y274180D01*
X177060Y273707D01*
X176481Y273372D01*
X175834Y273199D01*
X167518Y273199D01*
X167422Y273186D01*
X167325Y273181D01*
X167287Y273167D01*
X167236Y273159D01*
X167079Y273089D01*
X167010Y273063D01*
X166640Y272849D01*
X159361Y272849D01*
X158990Y273063D01*
X158900Y273100D01*
X158813Y273144D01*
X158774Y273150D01*
X158726Y273170D01*
X158555Y273187D01*
X158482Y273199D01*
X155667Y273199D01*
X155553Y273183D01*
X155439Y273173D01*
X155413Y273163D01*
X155386Y273159D01*
X155281Y273112D01*
X155174Y273071D01*
X155152Y273055D01*
X155126Y273043D01*
X155039Y272969D01*
X154947Y272900D01*
X154930Y272877D01*
X154909Y272860D01*
X154846Y272764D01*
X154777Y272672D01*
X154767Y272646D01*
X154752Y272623D01*
X154717Y272513D01*
X154676Y272406D01*
X154674Y272378D01*
X154666Y272352D01*
X154663Y272237D01*
X154654Y272123D01*
X154659Y272098D01*
X154659Y272068D01*
X154726Y271811D01*
X154729Y271795D01*
X155081Y270947D01*
X155081Y269551D01*
X155088Y269502D01*
X155087Y269494D01*
X155090Y269484D01*
X155097Y269437D01*
X155107Y269323D01*
X155117Y269297D01*
X155121Y269269D01*
X155168Y269164D01*
X155209Y269057D01*
X155225Y269035D01*
X155237Y269010D01*
X155311Y268922D01*
X155380Y268831D01*
X155403Y268814D01*
X155420Y268793D01*
X155516Y268729D01*
X155608Y268660D01*
X155634Y268651D01*
X155657Y268635D01*
X155767Y268600D01*
X155874Y268560D01*
X155902Y268558D01*
X155928Y268549D01*
X156043Y268546D01*
X156157Y268537D01*
X156182Y268543D01*
X156212Y268542D01*
X156469Y268609D01*
X156485Y268613D01*
X157351Y268972D01*
X158001Y269101D01*
X158001Y262239D01*
X152055Y262239D01*
X151968Y262227D01*
X151881Y262224D01*
X151828Y262207D01*
X151773Y262199D01*
X151693Y262164D01*
X151610Y262137D01*
X151571Y262109D01*
X151514Y262083D01*
X151401Y261987D01*
X151383Y261975D01*
X148460Y260764D01*
X148361Y260706D01*
X148259Y260653D01*
X148239Y260634D01*
X148215Y260619D01*
X148136Y260536D01*
X148053Y260457D01*
X148039Y260433D01*
X148020Y260413D01*
X147967Y260311D01*
X147909Y260212D01*
X147902Y260185D01*
X147889Y260160D01*
X147867Y260047D01*
X147839Y259936D01*
X147840Y259908D01*
X147834Y259881D01*
X147844Y259767D01*
X147848Y259652D01*
X147856Y259626D01*
X147859Y259598D01*
X147900Y259491D01*
X147935Y259381D01*
X147950Y259361D01*
X147961Y259333D01*
X148122Y259120D01*
X148130Y259108D01*
X149304Y257934D01*
X149407Y257857D01*
X149507Y257777D01*
X149520Y257772D01*
X149531Y257763D01*
X149651Y257718D01*
X149770Y257669D01*
X149784Y257667D01*
X149797Y257662D01*
X149925Y257651D01*
X150053Y257637D01*
X150067Y257640D01*
X150080Y257639D01*
X150206Y257664D01*
X150333Y257686D01*
X150345Y257692D01*
X150359Y257694D01*
X150473Y257754D01*
X150589Y257810D01*
X150599Y257819D01*
X150611Y257825D01*
X150705Y257914D01*
X150800Y258000D01*
X150807Y258012D01*
X150818Y258021D01*
X150883Y258132D01*
X150950Y258241D01*
X158001Y258241D01*
X158001Y250444D01*
X158009Y250386D01*
X158007Y250328D01*
X158029Y250246D01*
X158041Y250162D01*
X158064Y250109D01*
X158079Y250053D01*
X158122Y249980D01*
X158157Y249903D01*
X158195Y249858D01*
X158224Y249808D01*
X158286Y249750D01*
X158340Y249686D01*
X158389Y249654D01*
X158432Y249614D01*
X158507Y249575D01*
X158577Y249528D01*
X158633Y249511D01*
X158685Y249484D01*
X158753Y249473D01*
X158848Y249443D01*
X158948Y249440D01*
X159016Y249429D01*
X160984Y249429D01*
X161042Y249437D01*
G37*
G36*
X63307Y176264D02*
X63307Y176264D01*
X63420Y176261D01*
X63449Y176269D01*
X63478Y176270D01*
X63586Y176305D01*
X63695Y176333D01*
X63721Y176348D01*
X63749Y176357D01*
X63812Y176403D01*
X63940Y176478D01*
X63983Y176524D01*
X64022Y176552D01*
X65981Y178511D01*
X68491Y179551D01*
X71209Y179551D01*
X73719Y178511D01*
X75666Y176564D01*
X75735Y176513D01*
X75797Y176454D01*
X75848Y176428D01*
X75893Y176393D01*
X75973Y176363D01*
X76050Y176323D01*
X76106Y176312D01*
X76159Y176292D01*
X76244Y176285D01*
X76329Y176268D01*
X76385Y176273D01*
X76442Y176269D01*
X76526Y176285D01*
X76612Y176293D01*
X76665Y176313D01*
X76721Y176324D01*
X76797Y176364D01*
X76877Y176395D01*
X76923Y176429D01*
X76973Y176455D01*
X77035Y176515D01*
X77104Y176566D01*
X77138Y176612D01*
X77179Y176651D01*
X77223Y176725D01*
X77274Y176794D01*
X77294Y176847D01*
X77323Y176896D01*
X77344Y176980D01*
X77374Y177060D01*
X77379Y177117D01*
X77393Y177172D01*
X77390Y177258D01*
X77397Y177344D01*
X77386Y177392D01*
X77384Y177456D01*
X77339Y177594D01*
X77322Y177671D01*
X76989Y178473D01*
X76989Y181191D01*
X78029Y183701D01*
X79951Y185623D01*
X82461Y186663D01*
X85179Y186663D01*
X85498Y186530D01*
X85581Y186509D01*
X85662Y186478D01*
X85718Y186474D01*
X85773Y186459D01*
X85859Y186462D01*
X85945Y186455D01*
X86001Y186466D01*
X86058Y186468D01*
X86139Y186494D01*
X86224Y186511D01*
X86274Y186537D01*
X86328Y186554D01*
X86400Y186602D01*
X86476Y186642D01*
X86517Y186681D01*
X86565Y186713D01*
X86620Y186778D01*
X86682Y186838D01*
X86711Y186887D01*
X86747Y186930D01*
X86782Y187009D01*
X86826Y187083D01*
X86840Y187138D01*
X86863Y187190D01*
X86875Y187275D01*
X86896Y187358D01*
X86894Y187415D01*
X86902Y187472D01*
X86890Y187557D01*
X86887Y187642D01*
X86869Y187697D01*
X86861Y187753D01*
X86826Y187831D01*
X86799Y187913D01*
X86771Y187953D01*
X86744Y188012D01*
X86650Y188122D01*
X86605Y188186D01*
X79532Y195259D01*
X79462Y195311D01*
X79398Y195371D01*
X79349Y195397D01*
X79305Y195430D01*
X79223Y195461D01*
X79145Y195501D01*
X79098Y195509D01*
X79039Y195531D01*
X78891Y195543D01*
X78814Y195556D01*
X71207Y195556D01*
X69421Y197342D01*
X69421Y206002D01*
X69417Y206031D01*
X69420Y206060D01*
X69397Y206171D01*
X69381Y206283D01*
X69369Y206310D01*
X69364Y206339D01*
X69311Y206440D01*
X69265Y206543D01*
X69246Y206565D01*
X69233Y206591D01*
X69155Y206673D01*
X69082Y206760D01*
X69057Y206776D01*
X69037Y206797D01*
X68939Y206854D01*
X68845Y206917D01*
X68817Y206926D01*
X68792Y206941D01*
X68682Y206969D01*
X68574Y207003D01*
X68544Y207004D01*
X68516Y207011D01*
X68403Y207008D01*
X68290Y207010D01*
X68261Y207003D01*
X68232Y207002D01*
X68124Y206967D01*
X68015Y206939D01*
X67989Y206924D01*
X67961Y206915D01*
X67897Y206869D01*
X67770Y206793D01*
X67727Y206748D01*
X67688Y206720D01*
X66592Y205624D01*
X66540Y205554D01*
X66480Y205490D01*
X66454Y205441D01*
X66421Y205396D01*
X66390Y205315D01*
X66350Y205237D01*
X66342Y205189D01*
X66320Y205131D01*
X66308Y204983D01*
X66295Y204906D01*
X66295Y193896D01*
X63914Y191515D01*
X47846Y191515D01*
X45168Y194194D01*
X43289Y196073D01*
X43242Y196108D01*
X43202Y196150D01*
X43129Y196193D01*
X43062Y196244D01*
X43007Y196264D01*
X42957Y196294D01*
X42875Y196315D01*
X42796Y196345D01*
X42738Y196350D01*
X42681Y196364D01*
X42597Y196361D01*
X42513Y196368D01*
X42456Y196357D01*
X42397Y196355D01*
X42317Y196329D01*
X42234Y196312D01*
X42182Y196286D01*
X42127Y196268D01*
X42070Y196227D01*
X41982Y196181D01*
X41909Y196113D01*
X41853Y196073D01*
X41503Y195722D01*
X34251Y195722D01*
X34164Y195710D01*
X34077Y195707D01*
X34024Y195690D01*
X33969Y195682D01*
X33890Y195647D01*
X33806Y195620D01*
X33767Y195592D01*
X33710Y195566D01*
X33597Y195470D01*
X33533Y195425D01*
X33318Y195210D01*
X33280Y195160D01*
X33278Y195158D01*
X33272Y195148D01*
X33266Y195140D01*
X33206Y195076D01*
X33180Y195027D01*
X33147Y194983D01*
X33128Y194933D01*
X33120Y194921D01*
X33111Y194891D01*
X33076Y194823D01*
X33068Y194776D01*
X33046Y194717D01*
X33042Y194675D01*
X33035Y194650D01*
X33032Y194562D01*
X33021Y194492D01*
X33021Y188833D01*
X33029Y188775D01*
X33027Y188717D01*
X33049Y188635D01*
X33061Y188551D01*
X33084Y188498D01*
X33099Y188442D01*
X33142Y188369D01*
X33177Y188292D01*
X33215Y188247D01*
X33244Y188197D01*
X33306Y188139D01*
X33360Y188075D01*
X33409Y188043D01*
X33452Y188003D01*
X33527Y187964D01*
X33597Y187917D01*
X33653Y187900D01*
X33705Y187873D01*
X33773Y187862D01*
X33868Y187832D01*
X33968Y187829D01*
X34036Y187818D01*
X41503Y187818D01*
X42027Y187294D01*
X42081Y187253D01*
X42129Y187204D01*
X42194Y187168D01*
X42254Y187123D01*
X42318Y187099D01*
X42377Y187065D01*
X42450Y187048D01*
X42520Y187022D01*
X42588Y187016D01*
X42654Y187001D01*
X42728Y187004D01*
X42803Y186998D01*
X42870Y187012D01*
X42938Y187015D01*
X42997Y187037D01*
X43082Y187054D01*
X43183Y187107D01*
X43252Y187133D01*
X43259Y187137D01*
X43906Y187310D01*
X45616Y187310D01*
X45616Y179128D01*
X45624Y179070D01*
X45622Y179012D01*
X45644Y178930D01*
X45656Y178847D01*
X45679Y178793D01*
X45694Y178737D01*
X45737Y178664D01*
X45772Y178587D01*
X45810Y178543D01*
X45839Y178492D01*
X45901Y178435D01*
X45955Y178370D01*
X46004Y178338D01*
X46047Y178298D01*
X46122Y178259D01*
X46192Y178213D01*
X46248Y178195D01*
X46300Y178168D01*
X46368Y178157D01*
X46463Y178127D01*
X46563Y178124D01*
X46631Y178113D01*
X47349Y178113D01*
X47407Y178121D01*
X47465Y178120D01*
X47547Y178141D01*
X47631Y178153D01*
X47684Y178177D01*
X47740Y178191D01*
X47813Y178235D01*
X47890Y178269D01*
X47935Y178307D01*
X47985Y178337D01*
X48043Y178398D01*
X48107Y178453D01*
X48139Y178501D01*
X48179Y178544D01*
X48218Y178619D01*
X48265Y178689D01*
X48282Y178745D01*
X48309Y178797D01*
X48320Y178865D01*
X48350Y178960D01*
X48353Y179060D01*
X48364Y179128D01*
X48364Y187310D01*
X50074Y187310D01*
X50721Y187137D01*
X50728Y187133D01*
X50791Y187107D01*
X50850Y187073D01*
X50922Y187054D01*
X50991Y187026D01*
X51059Y187019D01*
X51125Y187002D01*
X51200Y187005D01*
X51274Y186997D01*
X51341Y187009D01*
X51409Y187011D01*
X51480Y187034D01*
X51554Y187048D01*
X51615Y187078D01*
X51680Y187099D01*
X51731Y187135D01*
X51809Y187174D01*
X51893Y187251D01*
X51953Y187294D01*
X52477Y187818D01*
X60503Y187818D01*
X62289Y186032D01*
X62289Y177270D01*
X62293Y177241D01*
X62290Y177212D01*
X62313Y177101D01*
X62329Y176988D01*
X62341Y176962D01*
X62346Y176933D01*
X62399Y176832D01*
X62445Y176729D01*
X62464Y176707D01*
X62477Y176681D01*
X62555Y176598D01*
X62628Y176512D01*
X62653Y176496D01*
X62673Y176474D01*
X62771Y176417D01*
X62865Y176354D01*
X62893Y176345D01*
X62918Y176331D01*
X63028Y176303D01*
X63136Y176269D01*
X63166Y176268D01*
X63194Y176261D01*
X63307Y176264D01*
G37*
%LPC*%
G36*
X188495Y208119D02*
X188495Y208119D01*
X184790Y209654D01*
X181954Y212490D01*
X180419Y216195D01*
X180419Y220205D01*
X181954Y223910D01*
X184790Y226746D01*
X188495Y228281D01*
X192505Y228281D01*
X196210Y226746D01*
X199046Y223910D01*
X200581Y220205D01*
X200581Y216195D01*
X199046Y212490D01*
X196210Y209654D01*
X192505Y208119D01*
X188495Y208119D01*
G37*
%LPD*%
%LPC*%
G36*
X188495Y178119D02*
X188495Y178119D01*
X184790Y179654D01*
X181954Y182490D01*
X180419Y186195D01*
X180419Y190205D01*
X181954Y193910D01*
X184790Y196746D01*
X188495Y198281D01*
X192505Y198281D01*
X196210Y196746D01*
X199046Y193910D01*
X200581Y190205D01*
X200581Y186195D01*
X199046Y182490D01*
X196210Y179654D01*
X192505Y178119D01*
X188495Y178119D01*
G37*
%LPD*%
G36*
X135187Y177230D02*
X135187Y177230D01*
X135250Y177229D01*
X135279Y177236D01*
X135308Y177237D01*
X135365Y177256D01*
X135416Y177263D01*
X135466Y177285D01*
X135525Y177301D01*
X135551Y177316D01*
X135579Y177325D01*
X135620Y177354D01*
X135676Y177379D01*
X135719Y177416D01*
X135770Y177446D01*
X135813Y177491D01*
X135852Y177519D01*
X147784Y189452D01*
X147836Y189521D01*
X147896Y189585D01*
X147922Y189635D01*
X147955Y189679D01*
X147986Y189760D01*
X148026Y189838D01*
X148034Y189886D01*
X148056Y189944D01*
X148068Y190092D01*
X148081Y190169D01*
X148081Y192814D01*
X148073Y192872D01*
X148075Y192930D01*
X148053Y193012D01*
X148041Y193096D01*
X148018Y193149D01*
X148003Y193205D01*
X147960Y193278D01*
X147925Y193355D01*
X147887Y193400D01*
X147858Y193450D01*
X147796Y193508D01*
X147742Y193572D01*
X147693Y193604D01*
X147650Y193644D01*
X147575Y193683D01*
X147505Y193730D01*
X147449Y193747D01*
X147397Y193774D01*
X147329Y193785D01*
X147234Y193815D01*
X147134Y193818D01*
X147066Y193829D01*
X144493Y193829D01*
X144406Y193817D01*
X144319Y193814D01*
X144266Y193797D01*
X144211Y193789D01*
X144132Y193754D01*
X144048Y193727D01*
X144009Y193699D01*
X143952Y193673D01*
X143839Y193577D01*
X143775Y193532D01*
X142012Y191769D01*
X132943Y191769D01*
X132914Y191765D01*
X132885Y191768D01*
X132774Y191745D01*
X132662Y191729D01*
X132635Y191717D01*
X132606Y191712D01*
X132506Y191659D01*
X132402Y191613D01*
X132380Y191594D01*
X132354Y191581D01*
X132272Y191503D01*
X132185Y191430D01*
X132169Y191405D01*
X132148Y191385D01*
X132091Y191287D01*
X132028Y191193D01*
X132019Y191165D01*
X132004Y191140D01*
X131976Y191030D01*
X131942Y190922D01*
X131941Y190892D01*
X131934Y190864D01*
X131938Y190751D01*
X131935Y190638D01*
X131942Y190609D01*
X131943Y190580D01*
X131978Y190472D01*
X132007Y190363D01*
X132022Y190337D01*
X132031Y190309D01*
X132076Y190246D01*
X132152Y190118D01*
X132197Y190075D01*
X132225Y190036D01*
X134119Y188143D01*
X134119Y178237D01*
X134123Y178208D01*
X134120Y178179D01*
X134126Y178150D01*
X134125Y178122D01*
X134146Y178041D01*
X134159Y177956D01*
X134171Y177929D01*
X134176Y177900D01*
X134190Y177873D01*
X134197Y177847D01*
X134239Y177777D01*
X134275Y177696D01*
X134294Y177674D01*
X134307Y177648D01*
X134329Y177625D01*
X134342Y177602D01*
X134400Y177548D01*
X134458Y177479D01*
X134483Y177463D01*
X134503Y177442D01*
X134531Y177426D01*
X134550Y177408D01*
X134619Y177373D01*
X134695Y177322D01*
X134723Y177313D01*
X134748Y177298D01*
X134780Y177290D01*
X134803Y177279D01*
X134865Y177268D01*
X134966Y177236D01*
X134996Y177235D01*
X135024Y177228D01*
X135091Y177230D01*
X135134Y177223D01*
X135135Y177223D01*
X135187Y177230D01*
G37*
%LPC*%
G36*
X161999Y262239D02*
X161999Y262239D01*
X161999Y269321D01*
X173974Y269321D01*
X175729Y268972D01*
X177381Y268287D01*
X178869Y267293D01*
X180133Y266029D01*
X181127Y264541D01*
X181812Y262889D01*
X181941Y262239D01*
X161999Y262239D01*
G37*
%LPD*%
%LPC*%
G36*
X72059Y262239D02*
X72059Y262239D01*
X72188Y262889D01*
X72873Y264541D01*
X73867Y266029D01*
X75131Y267293D01*
X76619Y268287D01*
X78271Y268972D01*
X80026Y269321D01*
X92001Y269321D01*
X92001Y262239D01*
X72059Y262239D01*
G37*
%LPD*%
%LPC*%
G36*
X80026Y251159D02*
X80026Y251159D01*
X78271Y251508D01*
X76619Y252193D01*
X75131Y253187D01*
X73867Y254451D01*
X72873Y255939D01*
X72188Y257591D01*
X72059Y258241D01*
X92001Y258241D01*
X92001Y251159D01*
X80026Y251159D01*
G37*
%LPD*%
%LPC*%
G36*
X121531Y291271D02*
X121531Y291271D01*
X121531Y301781D01*
X124834Y301781D01*
X125481Y301608D01*
X126060Y301273D01*
X126282Y301051D01*
X126329Y301016D01*
X126369Y300973D01*
X126442Y300931D01*
X126509Y300880D01*
X126564Y300859D01*
X126614Y300830D01*
X126696Y300809D01*
X126775Y300779D01*
X126833Y300774D01*
X126890Y300760D01*
X126974Y300762D01*
X127058Y300755D01*
X127116Y300767D01*
X127174Y300769D01*
X127254Y300795D01*
X127337Y300811D01*
X127389Y300838D01*
X127445Y300856D01*
X127501Y300896D01*
X127589Y300942D01*
X127662Y301011D01*
X127718Y301051D01*
X127940Y301273D01*
X128519Y301608D01*
X129166Y301781D01*
X132469Y301781D01*
X132469Y291271D01*
X121531Y291271D01*
G37*
%LPD*%
%LPC*%
G36*
X121531Y276699D02*
X121531Y276699D01*
X121531Y287209D01*
X132469Y287209D01*
X132469Y276699D01*
X129166Y276699D01*
X128519Y276872D01*
X127940Y277207D01*
X127718Y277429D01*
X127671Y277464D01*
X127631Y277507D01*
X127558Y277549D01*
X127491Y277600D01*
X127436Y277621D01*
X127386Y277650D01*
X127304Y277671D01*
X127225Y277701D01*
X127167Y277706D01*
X127110Y277720D01*
X127026Y277718D01*
X126942Y277725D01*
X126884Y277713D01*
X126826Y277711D01*
X126746Y277685D01*
X126663Y277669D01*
X126611Y277642D01*
X126555Y277624D01*
X126499Y277584D01*
X126411Y277538D01*
X126338Y277469D01*
X126282Y277429D01*
X126060Y277207D01*
X125481Y276872D01*
X124834Y276699D01*
X121531Y276699D01*
G37*
%LPD*%
%LPC*%
G36*
X164591Y101091D02*
X164591Y101091D01*
X164591Y116646D01*
X164939Y116591D01*
X166460Y116096D01*
X167885Y115370D01*
X169179Y114430D01*
X170310Y113299D01*
X171250Y112005D01*
X171976Y110580D01*
X172471Y109059D01*
X172721Y107480D01*
X172721Y101091D01*
X164591Y101091D01*
G37*
%LPD*%
%LPC*%
G36*
X152399Y101091D02*
X152399Y101091D01*
X152399Y107480D01*
X152649Y109059D01*
X153144Y110580D01*
X153870Y112005D01*
X154810Y113299D01*
X155941Y114430D01*
X157235Y115370D01*
X158660Y116096D01*
X160181Y116591D01*
X160529Y116646D01*
X160529Y101091D01*
X152399Y101091D01*
G37*
%LPD*%
G36*
X200009Y143595D02*
X200009Y143595D01*
X200122Y143592D01*
X200151Y143600D01*
X200180Y143601D01*
X200288Y143636D01*
X200397Y143664D01*
X200423Y143679D01*
X200451Y143688D01*
X200514Y143734D01*
X200642Y143809D01*
X200685Y143855D01*
X200724Y143883D01*
X206852Y150011D01*
X206903Y150080D01*
X206963Y150142D01*
X206989Y150193D01*
X207023Y150238D01*
X207053Y150318D01*
X207093Y150395D01*
X207104Y150451D01*
X207124Y150504D01*
X207131Y150590D01*
X207148Y150674D01*
X207143Y150731D01*
X207148Y150787D01*
X207131Y150871D01*
X207123Y150957D01*
X207103Y151010D01*
X207092Y151066D01*
X207052Y151142D01*
X207021Y151222D01*
X206987Y151268D01*
X206961Y151318D01*
X206902Y151380D01*
X206850Y151449D01*
X206804Y151483D01*
X206765Y151524D01*
X206691Y151568D01*
X206622Y151619D01*
X206569Y151639D01*
X206520Y151668D01*
X206436Y151689D01*
X206356Y151720D01*
X206299Y151724D01*
X206244Y151738D01*
X206158Y151735D01*
X206073Y151742D01*
X206024Y151731D01*
X205960Y151729D01*
X205822Y151685D01*
X205745Y151667D01*
X203289Y150649D01*
X200571Y150649D01*
X198677Y151434D01*
X198647Y151442D01*
X198620Y151456D01*
X198542Y151469D01*
X198402Y151505D01*
X198337Y151503D01*
X198288Y151511D01*
X192966Y151511D01*
X192908Y151503D01*
X192850Y151504D01*
X192768Y151483D01*
X192685Y151471D01*
X192631Y151447D01*
X192575Y151433D01*
X192502Y151390D01*
X192425Y151355D01*
X192381Y151317D01*
X192330Y151287D01*
X192273Y151226D01*
X192208Y151171D01*
X192176Y151123D01*
X192136Y151080D01*
X192097Y151005D01*
X192051Y150935D01*
X192033Y150879D01*
X192006Y150827D01*
X191995Y150759D01*
X191965Y150664D01*
X191962Y150564D01*
X191951Y150496D01*
X191951Y148464D01*
X191959Y148406D01*
X191958Y148348D01*
X191979Y148266D01*
X191991Y148183D01*
X192015Y148129D01*
X192029Y148073D01*
X192072Y148000D01*
X192107Y147923D01*
X192145Y147878D01*
X192175Y147828D01*
X192236Y147770D01*
X192291Y147706D01*
X192339Y147674D01*
X192382Y147634D01*
X192457Y147595D01*
X192527Y147549D01*
X192583Y147531D01*
X192635Y147504D01*
X192703Y147493D01*
X192798Y147463D01*
X192898Y147460D01*
X192966Y147449D01*
X198991Y147449D01*
X198991Y144601D01*
X198995Y144572D01*
X198992Y144543D01*
X199015Y144432D01*
X199031Y144319D01*
X199043Y144293D01*
X199048Y144264D01*
X199100Y144163D01*
X199147Y144060D01*
X199166Y144038D01*
X199179Y144012D01*
X199257Y143929D01*
X199330Y143843D01*
X199355Y143827D01*
X199375Y143805D01*
X199473Y143748D01*
X199567Y143685D01*
X199595Y143677D01*
X199620Y143662D01*
X199730Y143634D01*
X199838Y143600D01*
X199868Y143599D01*
X199896Y143592D01*
X200009Y143595D01*
G37*
%LPC*%
G36*
X136531Y291271D02*
X136531Y291271D01*
X136531Y301781D01*
X139834Y301781D01*
X140481Y301608D01*
X141060Y301273D01*
X141533Y300800D01*
X141868Y300221D01*
X142041Y299574D01*
X142041Y291271D01*
X136531Y291271D01*
G37*
%LPD*%
%LPC*%
G36*
X111959Y291271D02*
X111959Y291271D01*
X111959Y299574D01*
X112132Y300221D01*
X112467Y300800D01*
X112940Y301273D01*
X113519Y301608D01*
X114166Y301781D01*
X117469Y301781D01*
X117469Y291271D01*
X111959Y291271D01*
G37*
%LPD*%
%LPC*%
G36*
X168401Y204619D02*
X168401Y204619D01*
X168401Y211329D01*
X176411Y211329D01*
X176411Y206826D01*
X176238Y206179D01*
X175903Y205600D01*
X175430Y205127D01*
X174851Y204792D01*
X174204Y204619D01*
X168401Y204619D01*
G37*
%LPD*%
G36*
X67368Y141487D02*
X67368Y141487D01*
X67426Y141485D01*
X67508Y141507D01*
X67592Y141519D01*
X67645Y141543D01*
X67701Y141557D01*
X67774Y141600D01*
X67851Y141635D01*
X67896Y141673D01*
X67946Y141703D01*
X68004Y141764D01*
X68068Y141819D01*
X68100Y141867D01*
X68140Y141910D01*
X68179Y141985D01*
X68226Y142055D01*
X68243Y142111D01*
X68270Y142163D01*
X68281Y142231D01*
X68311Y142326D01*
X68314Y142426D01*
X68325Y142494D01*
X68325Y144526D01*
X68317Y144584D01*
X68319Y144642D01*
X68297Y144724D01*
X68285Y144807D01*
X68262Y144861D01*
X68247Y144917D01*
X68204Y144990D01*
X68169Y145067D01*
X68131Y145111D01*
X68102Y145162D01*
X68040Y145219D01*
X67986Y145284D01*
X67937Y145316D01*
X67894Y145356D01*
X67819Y145395D01*
X67749Y145441D01*
X67693Y145459D01*
X67641Y145486D01*
X67573Y145497D01*
X67478Y145527D01*
X67378Y145530D01*
X67310Y145541D01*
X58166Y145541D01*
X58108Y145533D01*
X58050Y145534D01*
X57968Y145513D01*
X57885Y145501D01*
X57831Y145477D01*
X57775Y145463D01*
X57702Y145420D01*
X57625Y145385D01*
X57581Y145347D01*
X57530Y145317D01*
X57473Y145256D01*
X57408Y145201D01*
X57376Y145153D01*
X57336Y145110D01*
X57297Y145035D01*
X57251Y144965D01*
X57233Y144909D01*
X57206Y144857D01*
X57195Y144789D01*
X57165Y144694D01*
X57162Y144594D01*
X57151Y144526D01*
X57151Y142494D01*
X57159Y142436D01*
X57158Y142378D01*
X57179Y142296D01*
X57191Y142213D01*
X57215Y142159D01*
X57229Y142103D01*
X57272Y142030D01*
X57307Y141953D01*
X57345Y141908D01*
X57375Y141858D01*
X57436Y141800D01*
X57491Y141736D01*
X57539Y141704D01*
X57582Y141664D01*
X57657Y141625D01*
X57727Y141579D01*
X57783Y141561D01*
X57835Y141534D01*
X57903Y141523D01*
X57998Y141493D01*
X58098Y141490D01*
X58166Y141479D01*
X67310Y141479D01*
X67368Y141487D01*
G37*
%LPC*%
G36*
X103631Y136864D02*
X103631Y136864D01*
X103631Y142749D01*
X109141Y142749D01*
X109141Y139071D01*
X108968Y138424D01*
X108633Y137845D01*
X108160Y137372D01*
X107581Y137037D01*
X106934Y136864D01*
X103631Y136864D01*
G37*
%LPD*%
%LPC*%
G36*
X205486Y197824D02*
X205486Y197824D01*
X204839Y197997D01*
X204260Y198332D01*
X203787Y198805D01*
X203452Y199384D01*
X203279Y200031D01*
X203279Y203709D01*
X208789Y203709D01*
X208789Y197824D01*
X205486Y197824D01*
G37*
%LPD*%
%LPC*%
G36*
X152981Y142439D02*
X152981Y142439D01*
X152981Y147449D01*
X157991Y147449D01*
X157991Y144646D01*
X157818Y143999D01*
X157483Y143420D01*
X157010Y142947D01*
X156431Y142612D01*
X155784Y142439D01*
X152981Y142439D01*
G37*
%LPD*%
%LPC*%
G36*
X146116Y142439D02*
X146116Y142439D01*
X145469Y142612D01*
X144890Y142947D01*
X144417Y143420D01*
X144082Y143999D01*
X143909Y144646D01*
X143909Y147449D01*
X148919Y147449D01*
X148919Y142439D01*
X146116Y142439D01*
G37*
%LPD*%
G36*
X114058Y252231D02*
X114058Y252231D01*
X114116Y252229D01*
X114198Y252251D01*
X114282Y252263D01*
X114335Y252286D01*
X114392Y252301D01*
X114464Y252344D01*
X114541Y252379D01*
X114586Y252417D01*
X114636Y252446D01*
X114694Y252508D01*
X114758Y252562D01*
X114790Y252611D01*
X114830Y252654D01*
X114869Y252729D01*
X114916Y252799D01*
X114933Y252855D01*
X114960Y252907D01*
X114971Y252975D01*
X115001Y253070D01*
X115004Y253170D01*
X115015Y253238D01*
X115015Y261490D01*
X115007Y261547D01*
X115009Y261605D01*
X115009Y261606D01*
X114987Y261688D01*
X114976Y261771D01*
X114952Y261825D01*
X114937Y261881D01*
X114894Y261954D01*
X114859Y262031D01*
X114822Y262075D01*
X114792Y262125D01*
X114730Y262183D01*
X114676Y262248D01*
X114627Y262280D01*
X114584Y262320D01*
X114509Y262358D01*
X114439Y262405D01*
X114383Y262423D01*
X114331Y262449D01*
X114263Y262461D01*
X114168Y262491D01*
X114068Y262494D01*
X114000Y262505D01*
X113942Y262497D01*
X113884Y262498D01*
X113883Y262498D01*
X113802Y262477D01*
X113718Y262465D01*
X113665Y262441D01*
X113608Y262426D01*
X113536Y262383D01*
X113459Y262349D01*
X113414Y262311D01*
X113364Y262281D01*
X113306Y262220D01*
X113242Y262165D01*
X113210Y262117D01*
X113169Y262074D01*
X113131Y261999D01*
X113084Y261929D01*
X113067Y261873D01*
X113040Y261821D01*
X113029Y261753D01*
X112999Y261658D01*
X112996Y261558D01*
X112985Y261490D01*
X112985Y253238D01*
X112993Y253180D01*
X112991Y253122D01*
X113013Y253040D01*
X113024Y252956D01*
X113048Y252903D01*
X113063Y252847D01*
X113106Y252774D01*
X113141Y252697D01*
X113178Y252652D01*
X113208Y252602D01*
X113270Y252544D01*
X113324Y252480D01*
X113373Y252448D01*
X113416Y252408D01*
X113491Y252369D01*
X113561Y252322D01*
X113617Y252305D01*
X113669Y252278D01*
X113737Y252267D01*
X113832Y252237D01*
X113932Y252234D01*
X114000Y252223D01*
X114058Y252231D01*
G37*
%LPC*%
G36*
X150949Y149479D02*
X150949Y149479D01*
X150949Y149481D01*
X150951Y149481D01*
X150951Y149479D01*
X150949Y149479D01*
G37*
%LPD*%
%LPC*%
G36*
X134499Y289239D02*
X134499Y289239D01*
X134499Y289241D01*
X134501Y289241D01*
X134501Y289239D01*
X134499Y289239D01*
G37*
%LPD*%
%LPC*%
G36*
X119499Y289239D02*
X119499Y289239D01*
X119499Y289241D01*
X119501Y289241D01*
X119501Y289239D01*
X119499Y289239D01*
G37*
%LPD*%
D10*
X164000Y279200D02*
X164117Y279202D01*
X164234Y279208D01*
X164350Y279218D01*
X164467Y279231D01*
X164582Y279249D01*
X164697Y279270D01*
X164811Y279295D01*
X164925Y279324D01*
X165037Y279357D01*
X165148Y279394D01*
X165258Y279434D01*
X165366Y279478D01*
X165473Y279525D01*
X165579Y279576D01*
X165682Y279631D01*
X165784Y279689D01*
X165883Y279750D01*
X165981Y279814D01*
X166076Y279882D01*
X166169Y279953D01*
X166260Y280027D01*
X166348Y280104D01*
X166433Y280184D01*
X166516Y280267D01*
X166596Y280352D01*
X166673Y280440D01*
X166747Y280531D01*
X166818Y280624D01*
X166886Y280719D01*
X166950Y280817D01*
X167011Y280916D01*
X167069Y281018D01*
X167124Y281121D01*
X167175Y281227D01*
X167222Y281334D01*
X167266Y281442D01*
X167306Y281552D01*
X167343Y281663D01*
X167376Y281775D01*
X167405Y281889D01*
X167430Y282003D01*
X167451Y282118D01*
X167469Y282233D01*
X167482Y282350D01*
X167492Y282466D01*
X167498Y282583D01*
X167500Y282700D01*
X164000Y279200D02*
X162000Y279200D01*
X161883Y279202D01*
X161766Y279208D01*
X161650Y279218D01*
X161533Y279231D01*
X161418Y279249D01*
X161303Y279270D01*
X161189Y279295D01*
X161075Y279324D01*
X160963Y279357D01*
X160852Y279394D01*
X160742Y279434D01*
X160634Y279478D01*
X160527Y279525D01*
X160421Y279576D01*
X160318Y279631D01*
X160216Y279689D01*
X160117Y279750D01*
X160019Y279814D01*
X159924Y279882D01*
X159831Y279953D01*
X159740Y280027D01*
X159652Y280104D01*
X159567Y280184D01*
X159484Y280267D01*
X159404Y280352D01*
X159327Y280440D01*
X159253Y280531D01*
X159182Y280624D01*
X159114Y280719D01*
X159050Y280817D01*
X158989Y280916D01*
X158931Y281018D01*
X158876Y281121D01*
X158825Y281227D01*
X158778Y281334D01*
X158734Y281442D01*
X158694Y281552D01*
X158657Y281663D01*
X158624Y281775D01*
X158595Y281889D01*
X158570Y282003D01*
X158549Y282118D01*
X158531Y282233D01*
X158518Y282350D01*
X158508Y282466D01*
X158502Y282583D01*
X158500Y282700D01*
X158500Y288200D01*
X158494Y288320D01*
X158492Y288441D01*
X158494Y288561D01*
X158499Y288682D01*
X158508Y288802D01*
X158522Y288921D01*
X158539Y289041D01*
X158560Y289159D01*
X158584Y289277D01*
X158613Y289394D01*
X158645Y289510D01*
X158681Y289625D01*
X158720Y289739D01*
X158763Y289852D01*
X158810Y289963D01*
X158860Y290072D01*
X158914Y290180D01*
X158971Y290286D01*
X159032Y290390D01*
X159095Y290492D01*
X159163Y290592D01*
X159233Y290690D01*
X159306Y290786D01*
X159383Y290879D01*
X159462Y290970D01*
X159544Y291058D01*
X159629Y291143D01*
X159717Y291226D01*
X159807Y291306D01*
X159900Y291382D01*
X159995Y291456D01*
X160092Y291527D01*
X160192Y291594D01*
X160294Y291659D01*
X160398Y291720D01*
X160504Y291778D01*
X160611Y291832D01*
X160720Y291883D01*
X160831Y291930D01*
X160943Y291974D01*
X161057Y292014D01*
X161172Y292050D01*
X161288Y292083D01*
X161405Y292112D01*
X161523Y292137D01*
X161641Y292158D01*
X161760Y292176D01*
X161880Y292190D01*
X162000Y292200D01*
X164000Y292200D01*
X164120Y292190D01*
X164240Y292176D01*
X164359Y292158D01*
X164477Y292137D01*
X164595Y292112D01*
X164712Y292083D01*
X164828Y292050D01*
X164943Y292014D01*
X165057Y291974D01*
X165169Y291930D01*
X165280Y291883D01*
X165389Y291832D01*
X165496Y291778D01*
X165602Y291720D01*
X165706Y291659D01*
X165808Y291594D01*
X165908Y291527D01*
X166005Y291456D01*
X166100Y291382D01*
X166193Y291306D01*
X166283Y291226D01*
X166371Y291143D01*
X166456Y291058D01*
X166538Y290970D01*
X166617Y290879D01*
X166694Y290786D01*
X166767Y290690D01*
X166837Y290592D01*
X166905Y290492D01*
X166968Y290390D01*
X167029Y290286D01*
X167086Y290180D01*
X167140Y290072D01*
X167190Y289963D01*
X167237Y289852D01*
X167280Y289739D01*
X167319Y289625D01*
X167355Y289510D01*
X167387Y289394D01*
X167416Y289277D01*
X167440Y289159D01*
X167461Y289041D01*
X167478Y288921D01*
X167492Y288802D01*
X167501Y288682D01*
X167506Y288561D01*
X167508Y288441D01*
X167506Y288320D01*
X167500Y288200D01*
X167500Y282700D01*
X91000Y279200D02*
X90877Y279187D01*
X90753Y279177D01*
X90629Y279171D01*
X90505Y279169D01*
X90381Y279171D01*
X90256Y279176D01*
X90133Y279186D01*
X90009Y279199D01*
X89886Y279216D01*
X89764Y279237D01*
X89642Y279261D01*
X89521Y279290D01*
X89401Y279322D01*
X89282Y279357D01*
X89165Y279397D01*
X89048Y279440D01*
X88933Y279486D01*
X88819Y279536D01*
X88707Y279590D01*
X88597Y279646D01*
X88489Y279707D01*
X88382Y279770D01*
X88277Y279837D01*
X88175Y279907D01*
X88074Y279980D01*
X87976Y280057D01*
X87881Y280136D01*
X87788Y280218D01*
X87697Y280303D01*
X87609Y280391D01*
X87524Y280481D01*
X87442Y280574D01*
X87362Y280669D01*
X87286Y280767D01*
X87213Y280867D01*
X87142Y280970D01*
X87075Y281074D01*
X87011Y281180D01*
X86951Y281289D01*
X86894Y281399D01*
X86840Y281511D01*
X86790Y281624D01*
X86743Y281739D01*
X86700Y281856D01*
X86660Y281974D01*
X86624Y282092D01*
X86592Y282212D01*
X86563Y282333D01*
X86538Y282455D01*
X86517Y282577D01*
X86500Y282700D01*
X86500Y288700D01*
X86517Y288823D01*
X86538Y288945D01*
X86563Y289067D01*
X86592Y289188D01*
X86624Y289308D01*
X86660Y289426D01*
X86700Y289544D01*
X86743Y289661D01*
X86790Y289776D01*
X86840Y289889D01*
X86894Y290001D01*
X86951Y290111D01*
X87011Y290220D01*
X87075Y290326D01*
X87142Y290430D01*
X87213Y290533D01*
X87286Y290633D01*
X87362Y290731D01*
X87442Y290826D01*
X87524Y290919D01*
X87609Y291009D01*
X87697Y291097D01*
X87788Y291182D01*
X87881Y291264D01*
X87976Y291343D01*
X88074Y291420D01*
X88175Y291493D01*
X88277Y291563D01*
X88382Y291630D01*
X88489Y291693D01*
X88597Y291754D01*
X88707Y291810D01*
X88819Y291864D01*
X88933Y291914D01*
X89048Y291960D01*
X89165Y292003D01*
X89282Y292043D01*
X89401Y292078D01*
X89521Y292110D01*
X89642Y292139D01*
X89764Y292163D01*
X89886Y292184D01*
X90009Y292201D01*
X90133Y292214D01*
X90256Y292224D01*
X90381Y292229D01*
X90505Y292231D01*
X90629Y292229D01*
X90753Y292223D01*
X90877Y292213D01*
X91000Y292200D01*
X91123Y292213D01*
X91247Y292223D01*
X91371Y292229D01*
X91495Y292231D01*
X91619Y292229D01*
X91744Y292224D01*
X91867Y292214D01*
X91991Y292201D01*
X92114Y292184D01*
X92236Y292163D01*
X92358Y292139D01*
X92479Y292110D01*
X92599Y292078D01*
X92718Y292043D01*
X92835Y292003D01*
X92952Y291960D01*
X93067Y291914D01*
X93181Y291864D01*
X93293Y291810D01*
X93403Y291754D01*
X93511Y291693D01*
X93618Y291630D01*
X93723Y291563D01*
X93825Y291493D01*
X93926Y291420D01*
X94024Y291343D01*
X94119Y291264D01*
X94212Y291182D01*
X94303Y291097D01*
X94391Y291009D01*
X94476Y290919D01*
X94558Y290826D01*
X94638Y290731D01*
X94714Y290633D01*
X94787Y290533D01*
X94858Y290430D01*
X94925Y290326D01*
X94989Y290220D01*
X95049Y290111D01*
X95106Y290001D01*
X95160Y289889D01*
X95210Y289776D01*
X95257Y289661D01*
X95300Y289544D01*
X95340Y289426D01*
X95376Y289308D01*
X95408Y289188D01*
X95437Y289067D01*
X95462Y288945D01*
X95483Y288823D01*
X95500Y288700D01*
X95500Y282700D01*
X95483Y282577D01*
X95462Y282455D01*
X95437Y282333D01*
X95408Y282212D01*
X95376Y282092D01*
X95340Y281974D01*
X95300Y281856D01*
X95257Y281739D01*
X95210Y281624D01*
X95160Y281511D01*
X95106Y281399D01*
X95049Y281289D01*
X94989Y281180D01*
X94925Y281074D01*
X94858Y280970D01*
X94787Y280867D01*
X94714Y280767D01*
X94638Y280669D01*
X94558Y280574D01*
X94476Y280481D01*
X94391Y280391D01*
X94303Y280303D01*
X94212Y280218D01*
X94119Y280136D01*
X94024Y280057D01*
X93926Y279980D01*
X93825Y279907D01*
X93723Y279837D01*
X93618Y279770D01*
X93511Y279707D01*
X93403Y279646D01*
X93293Y279590D01*
X93181Y279536D01*
X93067Y279486D01*
X92952Y279440D01*
X92835Y279397D01*
X92718Y279357D01*
X92599Y279322D01*
X92479Y279290D01*
X92358Y279261D01*
X92236Y279237D01*
X92114Y279216D01*
X91991Y279199D01*
X91867Y279186D01*
X91744Y279176D01*
X91619Y279171D01*
X91495Y279169D01*
X91371Y279171D01*
X91247Y279177D01*
X91123Y279187D01*
X91000Y279200D01*
D11*
X2461Y193040D02*
X2498Y196065D01*
X2609Y199089D01*
X2795Y202108D01*
X3055Y205122D01*
X3388Y208129D01*
X3795Y211127D01*
X4276Y214114D01*
X4830Y217089D01*
X5456Y220048D01*
X6155Y222992D01*
X6926Y225917D01*
X7769Y228823D01*
X8683Y231707D01*
X9667Y234568D01*
X10721Y237404D01*
X11844Y240213D01*
X13036Y242994D01*
X14296Y245744D01*
X15623Y248463D01*
X17016Y251149D01*
X18475Y253799D01*
X19999Y256413D01*
X21586Y258989D01*
X23236Y261525D01*
X24947Y264019D01*
X26719Y266471D01*
X28551Y268879D01*
X30442Y271241D01*
X32390Y273556D01*
X34394Y275822D01*
X36453Y278039D01*
X38566Y280204D01*
X40731Y282317D01*
X42948Y284376D01*
X45214Y286380D01*
X47529Y288328D01*
X49891Y290219D01*
X52299Y292051D01*
X54751Y293823D01*
X57245Y295534D01*
X59781Y297184D01*
X62357Y298771D01*
X64971Y300295D01*
X67621Y301754D01*
X70307Y303147D01*
X73026Y304474D01*
X75776Y305734D01*
X78557Y306926D01*
X81366Y308049D01*
X84202Y309103D01*
X87063Y310087D01*
X89947Y311001D01*
X92853Y311844D01*
X95778Y312615D01*
X98722Y313314D01*
X101681Y313940D01*
X104656Y314494D01*
X107643Y314975D01*
X110641Y315382D01*
X113648Y315715D01*
X116662Y315975D01*
X119681Y316161D01*
X122705Y316272D01*
X125730Y316309D01*
X128755Y316272D01*
X131779Y316161D01*
X134798Y315975D01*
X137812Y315715D01*
X140819Y315382D01*
X143817Y314975D01*
X146804Y314494D01*
X149779Y313940D01*
X152738Y313314D01*
X155682Y312615D01*
X158607Y311844D01*
X161513Y311001D01*
X164397Y310087D01*
X167258Y309103D01*
X170094Y308049D01*
X172903Y306926D01*
X175684Y305734D01*
X178434Y304474D01*
X181153Y303147D01*
X183839Y301754D01*
X186489Y300295D01*
X189103Y298771D01*
X191679Y297184D01*
X194215Y295534D01*
X196709Y293823D01*
X199161Y292051D01*
X201569Y290219D01*
X203931Y288328D01*
X206246Y286380D01*
X208512Y284376D01*
X210729Y282317D01*
X212894Y280204D01*
X215007Y278039D01*
X217066Y275822D01*
X219070Y273556D01*
X221018Y271241D01*
X222909Y268879D01*
X224741Y266471D01*
X226513Y264019D01*
X228224Y261525D01*
X229874Y258989D01*
X231461Y256413D01*
X232985Y253799D01*
X234444Y251149D01*
X235837Y248463D01*
X237164Y245744D01*
X238424Y242994D01*
X239616Y240213D01*
X240739Y237404D01*
X241793Y234568D01*
X242777Y231707D01*
X243691Y228823D01*
X244534Y225917D01*
X245305Y222992D01*
X246004Y220048D01*
X246630Y217089D01*
X247184Y214114D01*
X247665Y211127D01*
X248072Y208129D01*
X248405Y205122D01*
X248665Y202108D01*
X248851Y199089D01*
X248962Y196065D01*
X248999Y193040D01*
X248962Y190015D01*
X248851Y186991D01*
X248665Y183972D01*
X248405Y180958D01*
X248072Y177951D01*
X247665Y174953D01*
X247184Y171966D01*
X246630Y168991D01*
X246004Y166032D01*
X245305Y163088D01*
X244534Y160163D01*
X243691Y157257D01*
X242777Y154373D01*
X241793Y151512D01*
X240739Y148676D01*
X239616Y145867D01*
X238424Y143086D01*
X237164Y140336D01*
X235837Y137617D01*
X234444Y134931D01*
X232985Y132281D01*
X231461Y129667D01*
X229874Y127091D01*
X228224Y124555D01*
X226513Y122061D01*
X224741Y119609D01*
X222909Y117201D01*
X221018Y114839D01*
X219070Y112524D01*
X217066Y110258D01*
X215007Y108041D01*
X212894Y105876D01*
X210729Y103763D01*
X208512Y101704D01*
X206246Y99700D01*
X203931Y97752D01*
X201569Y95861D01*
X199161Y94029D01*
X196709Y92257D01*
X194215Y90546D01*
X191679Y88896D01*
X189103Y87309D01*
X186489Y85785D01*
X183839Y84326D01*
X181153Y82933D01*
X178434Y81606D01*
X175684Y80346D01*
X172903Y79154D01*
X170094Y78031D01*
X167258Y76977D01*
X164397Y75993D01*
X161513Y75079D01*
X158607Y74236D01*
X155682Y73465D01*
X152738Y72766D01*
X149779Y72140D01*
X146804Y71586D01*
X143817Y71105D01*
X140819Y70698D01*
X137812Y70365D01*
X134798Y70105D01*
X131779Y69919D01*
X128755Y69808D01*
X125730Y69771D01*
X122705Y69808D01*
X119681Y69919D01*
X116662Y70105D01*
X113648Y70365D01*
X110641Y70698D01*
X107643Y71105D01*
X104656Y71586D01*
X101681Y72140D01*
X98722Y72766D01*
X95778Y73465D01*
X92853Y74236D01*
X89947Y75079D01*
X87063Y75993D01*
X84202Y76977D01*
X81366Y78031D01*
X78557Y79154D01*
X75776Y80346D01*
X73026Y81606D01*
X70307Y82933D01*
X67621Y84326D01*
X64971Y85785D01*
X62357Y87309D01*
X59781Y88896D01*
X57245Y90546D01*
X54751Y92257D01*
X52299Y94029D01*
X49891Y95861D01*
X47529Y97752D01*
X45214Y99700D01*
X42948Y101704D01*
X40731Y103763D01*
X38566Y105876D01*
X36453Y108041D01*
X34394Y110258D01*
X32390Y112524D01*
X30442Y114839D01*
X28551Y117201D01*
X26719Y119609D01*
X24947Y122061D01*
X23236Y124555D01*
X21586Y127091D01*
X19999Y129667D01*
X18475Y132281D01*
X17016Y134931D01*
X15623Y137617D01*
X14296Y140336D01*
X13036Y143086D01*
X11844Y145867D01*
X10721Y148676D01*
X9667Y151512D01*
X8683Y154373D01*
X7769Y157257D01*
X6926Y160163D01*
X6155Y163088D01*
X5456Y166032D01*
X4830Y168991D01*
X4276Y171966D01*
X3795Y174953D01*
X3388Y177951D01*
X3055Y180958D01*
X2795Y183972D01*
X2609Y186991D01*
X2498Y190015D01*
X2461Y193040D01*
D12*
X57150Y162510D03*
X57150Y143510D03*
D13*
X101600Y161780D03*
X101600Y144780D03*
D12*
X85090Y162510D03*
X85090Y143510D03*
D14*
X143000Y269240D02*
X143002Y269358D01*
X143008Y269476D01*
X143018Y269594D01*
X143032Y269711D01*
X143050Y269828D01*
X143072Y269945D01*
X143097Y270060D01*
X143127Y270174D01*
X143161Y270288D01*
X143198Y270400D01*
X143239Y270511D01*
X143284Y270620D01*
X143332Y270728D01*
X143384Y270834D01*
X143440Y270939D01*
X143499Y271041D01*
X143561Y271141D01*
X143627Y271239D01*
X143696Y271335D01*
X143769Y271429D01*
X143844Y271520D01*
X143923Y271608D01*
X144004Y271694D01*
X144089Y271777D01*
X144176Y271857D01*
X144265Y271934D01*
X144358Y272008D01*
X144452Y272078D01*
X144549Y272146D01*
X144649Y272210D01*
X144750Y272271D01*
X144853Y272328D01*
X144959Y272382D01*
X145066Y272433D01*
X145174Y272479D01*
X145284Y272522D01*
X145396Y272561D01*
X145509Y272597D01*
X145623Y272628D01*
X145738Y272656D01*
X145853Y272680D01*
X145970Y272700D01*
X146087Y272716D01*
X146205Y272728D01*
X146323Y272736D01*
X146441Y272740D01*
X146559Y272740D01*
X146677Y272736D01*
X146795Y272728D01*
X146913Y272716D01*
X147030Y272700D01*
X147147Y272680D01*
X147262Y272656D01*
X147377Y272628D01*
X147491Y272597D01*
X147604Y272561D01*
X147716Y272522D01*
X147826Y272479D01*
X147934Y272433D01*
X148041Y272382D01*
X148147Y272328D01*
X148250Y272271D01*
X148351Y272210D01*
X148451Y272146D01*
X148548Y272078D01*
X148642Y272008D01*
X148735Y271934D01*
X148824Y271857D01*
X148911Y271777D01*
X148996Y271694D01*
X149077Y271608D01*
X149156Y271520D01*
X149231Y271429D01*
X149304Y271335D01*
X149373Y271239D01*
X149439Y271141D01*
X149501Y271041D01*
X149560Y270939D01*
X149616Y270834D01*
X149668Y270728D01*
X149716Y270620D01*
X149761Y270511D01*
X149802Y270400D01*
X149839Y270288D01*
X149873Y270174D01*
X149903Y270060D01*
X149928Y269945D01*
X149950Y269828D01*
X149968Y269711D01*
X149982Y269594D01*
X149992Y269476D01*
X149998Y269358D01*
X150000Y269240D01*
X149998Y269122D01*
X149992Y269004D01*
X149982Y268886D01*
X149968Y268769D01*
X149950Y268652D01*
X149928Y268535D01*
X149903Y268420D01*
X149873Y268306D01*
X149839Y268192D01*
X149802Y268080D01*
X149761Y267969D01*
X149716Y267860D01*
X149668Y267752D01*
X149616Y267646D01*
X149560Y267541D01*
X149501Y267439D01*
X149439Y267339D01*
X149373Y267241D01*
X149304Y267145D01*
X149231Y267051D01*
X149156Y266960D01*
X149077Y266872D01*
X148996Y266786D01*
X148911Y266703D01*
X148824Y266623D01*
X148735Y266546D01*
X148642Y266472D01*
X148548Y266402D01*
X148451Y266334D01*
X148351Y266270D01*
X148250Y266209D01*
X148147Y266152D01*
X148041Y266098D01*
X147934Y266047D01*
X147826Y266001D01*
X147716Y265958D01*
X147604Y265919D01*
X147491Y265883D01*
X147377Y265852D01*
X147262Y265824D01*
X147147Y265800D01*
X147030Y265780D01*
X146913Y265764D01*
X146795Y265752D01*
X146677Y265744D01*
X146559Y265740D01*
X146441Y265740D01*
X146323Y265744D01*
X146205Y265752D01*
X146087Y265764D01*
X145970Y265780D01*
X145853Y265800D01*
X145738Y265824D01*
X145623Y265852D01*
X145509Y265883D01*
X145396Y265919D01*
X145284Y265958D01*
X145174Y266001D01*
X145066Y266047D01*
X144959Y266098D01*
X144853Y266152D01*
X144750Y266209D01*
X144649Y266270D01*
X144549Y266334D01*
X144452Y266402D01*
X144358Y266472D01*
X144265Y266546D01*
X144176Y266623D01*
X144089Y266703D01*
X144004Y266786D01*
X143923Y266872D01*
X143844Y266960D01*
X143769Y267051D01*
X143696Y267145D01*
X143627Y267241D01*
X143561Y267339D01*
X143499Y267439D01*
X143440Y267541D01*
X143384Y267646D01*
X143332Y267752D01*
X143284Y267860D01*
X143239Y267969D01*
X143198Y268080D01*
X143161Y268192D01*
X143127Y268306D01*
X143097Y268420D01*
X143072Y268535D01*
X143050Y268652D01*
X143032Y268769D01*
X143018Y268886D01*
X143008Y269004D01*
X143002Y269122D01*
X143000Y269240D01*
X104000Y269240D02*
X104002Y269358D01*
X104008Y269476D01*
X104018Y269594D01*
X104032Y269711D01*
X104050Y269828D01*
X104072Y269945D01*
X104097Y270060D01*
X104127Y270174D01*
X104161Y270288D01*
X104198Y270400D01*
X104239Y270511D01*
X104284Y270620D01*
X104332Y270728D01*
X104384Y270834D01*
X104440Y270939D01*
X104499Y271041D01*
X104561Y271141D01*
X104627Y271239D01*
X104696Y271335D01*
X104769Y271429D01*
X104844Y271520D01*
X104923Y271608D01*
X105004Y271694D01*
X105089Y271777D01*
X105176Y271857D01*
X105265Y271934D01*
X105358Y272008D01*
X105452Y272078D01*
X105549Y272146D01*
X105649Y272210D01*
X105750Y272271D01*
X105853Y272328D01*
X105959Y272382D01*
X106066Y272433D01*
X106174Y272479D01*
X106284Y272522D01*
X106396Y272561D01*
X106509Y272597D01*
X106623Y272628D01*
X106738Y272656D01*
X106853Y272680D01*
X106970Y272700D01*
X107087Y272716D01*
X107205Y272728D01*
X107323Y272736D01*
X107441Y272740D01*
X107559Y272740D01*
X107677Y272736D01*
X107795Y272728D01*
X107913Y272716D01*
X108030Y272700D01*
X108147Y272680D01*
X108262Y272656D01*
X108377Y272628D01*
X108491Y272597D01*
X108604Y272561D01*
X108716Y272522D01*
X108826Y272479D01*
X108934Y272433D01*
X109041Y272382D01*
X109147Y272328D01*
X109250Y272271D01*
X109351Y272210D01*
X109451Y272146D01*
X109548Y272078D01*
X109642Y272008D01*
X109735Y271934D01*
X109824Y271857D01*
X109911Y271777D01*
X109996Y271694D01*
X110077Y271608D01*
X110156Y271520D01*
X110231Y271429D01*
X110304Y271335D01*
X110373Y271239D01*
X110439Y271141D01*
X110501Y271041D01*
X110560Y270939D01*
X110616Y270834D01*
X110668Y270728D01*
X110716Y270620D01*
X110761Y270511D01*
X110802Y270400D01*
X110839Y270288D01*
X110873Y270174D01*
X110903Y270060D01*
X110928Y269945D01*
X110950Y269828D01*
X110968Y269711D01*
X110982Y269594D01*
X110992Y269476D01*
X110998Y269358D01*
X111000Y269240D01*
X110998Y269122D01*
X110992Y269004D01*
X110982Y268886D01*
X110968Y268769D01*
X110950Y268652D01*
X110928Y268535D01*
X110903Y268420D01*
X110873Y268306D01*
X110839Y268192D01*
X110802Y268080D01*
X110761Y267969D01*
X110716Y267860D01*
X110668Y267752D01*
X110616Y267646D01*
X110560Y267541D01*
X110501Y267439D01*
X110439Y267339D01*
X110373Y267241D01*
X110304Y267145D01*
X110231Y267051D01*
X110156Y266960D01*
X110077Y266872D01*
X109996Y266786D01*
X109911Y266703D01*
X109824Y266623D01*
X109735Y266546D01*
X109642Y266472D01*
X109548Y266402D01*
X109451Y266334D01*
X109351Y266270D01*
X109250Y266209D01*
X109147Y266152D01*
X109041Y266098D01*
X108934Y266047D01*
X108826Y266001D01*
X108716Y265958D01*
X108604Y265919D01*
X108491Y265883D01*
X108377Y265852D01*
X108262Y265824D01*
X108147Y265800D01*
X108030Y265780D01*
X107913Y265764D01*
X107795Y265752D01*
X107677Y265744D01*
X107559Y265740D01*
X107441Y265740D01*
X107323Y265744D01*
X107205Y265752D01*
X107087Y265764D01*
X106970Y265780D01*
X106853Y265800D01*
X106738Y265824D01*
X106623Y265852D01*
X106509Y265883D01*
X106396Y265919D01*
X106284Y265958D01*
X106174Y266001D01*
X106066Y266047D01*
X105959Y266098D01*
X105853Y266152D01*
X105750Y266209D01*
X105649Y266270D01*
X105549Y266334D01*
X105452Y266402D01*
X105358Y266472D01*
X105265Y266546D01*
X105176Y266623D01*
X105089Y266703D01*
X105004Y266786D01*
X104923Y266872D01*
X104844Y266960D01*
X104769Y267051D01*
X104696Y267145D01*
X104627Y267241D01*
X104561Y267339D01*
X104499Y267439D01*
X104440Y267541D01*
X104384Y267646D01*
X104332Y267752D01*
X104284Y267860D01*
X104239Y267969D01*
X104198Y268080D01*
X104161Y268192D01*
X104127Y268306D01*
X104097Y268420D01*
X104072Y268535D01*
X104050Y268652D01*
X104032Y268769D01*
X104018Y268886D01*
X104008Y269004D01*
X104002Y269122D01*
X104000Y269240D01*
D15*
X91000Y288240D03*
X163000Y288240D03*
D16*
X160000Y260240D02*
X173080Y260240D01*
X94000Y260240D02*
X80920Y260240D01*
D17*
X140000Y261490D03*
X133500Y261490D03*
X127000Y261490D03*
X120500Y261490D03*
X114000Y261490D03*
D14*
X164000Y281740D02*
X164117Y281742D01*
X164234Y281748D01*
X164350Y281758D01*
X164467Y281771D01*
X164582Y281789D01*
X164697Y281810D01*
X164811Y281835D01*
X164925Y281864D01*
X165037Y281897D01*
X165148Y281934D01*
X165258Y281974D01*
X165366Y282018D01*
X165473Y282065D01*
X165579Y282116D01*
X165682Y282171D01*
X165784Y282229D01*
X165883Y282290D01*
X165981Y282354D01*
X166076Y282422D01*
X166169Y282493D01*
X166260Y282567D01*
X166348Y282644D01*
X166433Y282724D01*
X166516Y282807D01*
X166596Y282892D01*
X166673Y282980D01*
X166747Y283071D01*
X166818Y283164D01*
X166886Y283259D01*
X166950Y283357D01*
X167011Y283456D01*
X167069Y283558D01*
X167124Y283661D01*
X167175Y283767D01*
X167222Y283874D01*
X167266Y283982D01*
X167306Y284092D01*
X167343Y284203D01*
X167376Y284315D01*
X167405Y284429D01*
X167430Y284543D01*
X167451Y284658D01*
X167469Y284773D01*
X167482Y284890D01*
X167492Y285006D01*
X167498Y285123D01*
X167500Y285240D01*
X164000Y281740D02*
X162000Y281740D01*
X161883Y281742D01*
X161766Y281748D01*
X161650Y281758D01*
X161533Y281771D01*
X161418Y281789D01*
X161303Y281810D01*
X161189Y281835D01*
X161075Y281864D01*
X160963Y281897D01*
X160852Y281934D01*
X160742Y281974D01*
X160634Y282018D01*
X160527Y282065D01*
X160421Y282116D01*
X160318Y282171D01*
X160216Y282229D01*
X160117Y282290D01*
X160019Y282354D01*
X159924Y282422D01*
X159831Y282493D01*
X159740Y282567D01*
X159652Y282644D01*
X159567Y282724D01*
X159484Y282807D01*
X159404Y282892D01*
X159327Y282980D01*
X159253Y283071D01*
X159182Y283164D01*
X159114Y283259D01*
X159050Y283357D01*
X158989Y283456D01*
X158931Y283558D01*
X158876Y283661D01*
X158825Y283767D01*
X158778Y283874D01*
X158734Y283982D01*
X158694Y284092D01*
X158657Y284203D01*
X158624Y284315D01*
X158595Y284429D01*
X158570Y284543D01*
X158549Y284658D01*
X158531Y284773D01*
X158518Y284890D01*
X158508Y285006D01*
X158502Y285123D01*
X158500Y285240D01*
X158500Y290740D01*
X158494Y290860D01*
X158492Y290981D01*
X158494Y291101D01*
X158499Y291222D01*
X158508Y291342D01*
X158522Y291461D01*
X158539Y291581D01*
X158560Y291699D01*
X158584Y291817D01*
X158613Y291934D01*
X158645Y292050D01*
X158681Y292165D01*
X158720Y292279D01*
X158763Y292392D01*
X158810Y292503D01*
X158860Y292612D01*
X158914Y292720D01*
X158971Y292826D01*
X159032Y292930D01*
X159095Y293032D01*
X159163Y293132D01*
X159233Y293230D01*
X159306Y293326D01*
X159383Y293419D01*
X159462Y293510D01*
X159544Y293598D01*
X159629Y293683D01*
X159717Y293766D01*
X159807Y293846D01*
X159900Y293922D01*
X159995Y293996D01*
X160092Y294067D01*
X160192Y294134D01*
X160294Y294199D01*
X160398Y294260D01*
X160504Y294318D01*
X160611Y294372D01*
X160720Y294423D01*
X160831Y294470D01*
X160943Y294514D01*
X161057Y294554D01*
X161172Y294590D01*
X161288Y294623D01*
X161405Y294652D01*
X161523Y294677D01*
X161641Y294698D01*
X161760Y294716D01*
X161880Y294730D01*
X162000Y294740D01*
X164000Y294740D01*
X164120Y294730D01*
X164240Y294716D01*
X164359Y294698D01*
X164477Y294677D01*
X164595Y294652D01*
X164712Y294623D01*
X164828Y294590D01*
X164943Y294554D01*
X165057Y294514D01*
X165169Y294470D01*
X165280Y294423D01*
X165389Y294372D01*
X165496Y294318D01*
X165602Y294260D01*
X165706Y294199D01*
X165808Y294134D01*
X165908Y294067D01*
X166005Y293996D01*
X166100Y293922D01*
X166193Y293846D01*
X166283Y293766D01*
X166371Y293683D01*
X166456Y293598D01*
X166538Y293510D01*
X166617Y293419D01*
X166694Y293326D01*
X166767Y293230D01*
X166837Y293132D01*
X166905Y293032D01*
X166968Y292930D01*
X167029Y292826D01*
X167086Y292720D01*
X167140Y292612D01*
X167190Y292503D01*
X167237Y292392D01*
X167280Y292279D01*
X167319Y292165D01*
X167355Y292050D01*
X167387Y291934D01*
X167416Y291817D01*
X167440Y291699D01*
X167461Y291581D01*
X167478Y291461D01*
X167492Y291342D01*
X167501Y291222D01*
X167506Y291101D01*
X167508Y290981D01*
X167506Y290860D01*
X167500Y290740D01*
X167500Y285240D01*
X91000Y294740D02*
X90877Y294753D01*
X90753Y294763D01*
X90629Y294769D01*
X90505Y294771D01*
X90381Y294769D01*
X90256Y294764D01*
X90133Y294754D01*
X90009Y294741D01*
X89886Y294724D01*
X89764Y294703D01*
X89642Y294679D01*
X89521Y294650D01*
X89401Y294618D01*
X89282Y294583D01*
X89165Y294543D01*
X89048Y294500D01*
X88933Y294454D01*
X88819Y294404D01*
X88707Y294350D01*
X88597Y294294D01*
X88489Y294233D01*
X88382Y294170D01*
X88277Y294103D01*
X88175Y294033D01*
X88074Y293960D01*
X87976Y293883D01*
X87881Y293804D01*
X87788Y293722D01*
X87697Y293637D01*
X87609Y293549D01*
X87524Y293459D01*
X87442Y293366D01*
X87362Y293271D01*
X87286Y293173D01*
X87213Y293073D01*
X87142Y292970D01*
X87075Y292866D01*
X87011Y292760D01*
X86951Y292651D01*
X86894Y292541D01*
X86840Y292429D01*
X86790Y292316D01*
X86743Y292201D01*
X86700Y292084D01*
X86660Y291966D01*
X86624Y291848D01*
X86592Y291728D01*
X86563Y291607D01*
X86538Y291485D01*
X86517Y291363D01*
X86500Y291240D01*
X91000Y294740D02*
X91123Y294753D01*
X91247Y294763D01*
X91371Y294769D01*
X91495Y294771D01*
X91619Y294769D01*
X91744Y294764D01*
X91867Y294754D01*
X91991Y294741D01*
X92114Y294724D01*
X92236Y294703D01*
X92358Y294679D01*
X92479Y294650D01*
X92599Y294618D01*
X92718Y294583D01*
X92835Y294543D01*
X92952Y294500D01*
X93067Y294454D01*
X93181Y294404D01*
X93293Y294350D01*
X93403Y294294D01*
X93511Y294233D01*
X93618Y294170D01*
X93723Y294103D01*
X93825Y294033D01*
X93926Y293960D01*
X94024Y293883D01*
X94119Y293804D01*
X94212Y293722D01*
X94303Y293637D01*
X94391Y293549D01*
X94476Y293459D01*
X94558Y293366D01*
X94638Y293271D01*
X94714Y293173D01*
X94787Y293073D01*
X94858Y292970D01*
X94925Y292866D01*
X94989Y292760D01*
X95049Y292651D01*
X95106Y292541D01*
X95160Y292429D01*
X95210Y292316D01*
X95257Y292201D01*
X95300Y292084D01*
X95340Y291966D01*
X95376Y291848D01*
X95408Y291728D01*
X95437Y291607D01*
X95462Y291485D01*
X95483Y291363D01*
X95500Y291240D01*
X86500Y291240D02*
X86500Y285240D01*
X86517Y285117D01*
X86538Y284995D01*
X86563Y284873D01*
X86592Y284752D01*
X86624Y284632D01*
X86660Y284514D01*
X86700Y284396D01*
X86743Y284279D01*
X86790Y284164D01*
X86840Y284051D01*
X86894Y283939D01*
X86951Y283829D01*
X87011Y283720D01*
X87075Y283614D01*
X87142Y283510D01*
X87213Y283407D01*
X87286Y283307D01*
X87362Y283209D01*
X87442Y283114D01*
X87524Y283021D01*
X87609Y282931D01*
X87697Y282843D01*
X87788Y282758D01*
X87881Y282676D01*
X87976Y282597D01*
X88074Y282520D01*
X88175Y282447D01*
X88277Y282377D01*
X88382Y282310D01*
X88489Y282247D01*
X88597Y282186D01*
X88707Y282130D01*
X88819Y282076D01*
X88933Y282026D01*
X89048Y281980D01*
X89165Y281937D01*
X89282Y281897D01*
X89401Y281862D01*
X89521Y281830D01*
X89642Y281801D01*
X89764Y281777D01*
X89886Y281756D01*
X90009Y281739D01*
X90133Y281726D01*
X90256Y281716D01*
X90381Y281711D01*
X90505Y281709D01*
X90629Y281711D01*
X90753Y281717D01*
X90877Y281727D01*
X91000Y281740D01*
X91123Y281727D01*
X91247Y281717D01*
X91371Y281711D01*
X91495Y281709D01*
X91619Y281711D01*
X91744Y281716D01*
X91867Y281726D01*
X91991Y281739D01*
X92114Y281756D01*
X92236Y281777D01*
X92358Y281801D01*
X92479Y281830D01*
X92599Y281862D01*
X92718Y281897D01*
X92835Y281937D01*
X92952Y281980D01*
X93067Y282026D01*
X93181Y282076D01*
X93293Y282130D01*
X93403Y282186D01*
X93511Y282247D01*
X93618Y282310D01*
X93723Y282377D01*
X93825Y282447D01*
X93926Y282520D01*
X94024Y282597D01*
X94119Y282676D01*
X94212Y282758D01*
X94303Y282843D01*
X94391Y282931D01*
X94476Y283021D01*
X94558Y283114D01*
X94638Y283209D01*
X94714Y283307D01*
X94787Y283407D01*
X94858Y283510D01*
X94925Y283614D01*
X94989Y283720D01*
X95049Y283829D01*
X95106Y283939D01*
X95160Y284051D01*
X95210Y284164D01*
X95257Y284279D01*
X95300Y284396D01*
X95340Y284514D01*
X95376Y284632D01*
X95408Y284752D01*
X95437Y284873D01*
X95462Y284995D01*
X95483Y285117D01*
X95500Y285240D01*
X95500Y291240D01*
D18*
X134500Y289240D03*
X119500Y289240D03*
D19*
X37490Y178769D03*
X46990Y178769D03*
X56490Y178769D03*
X56490Y204771D03*
X37490Y204771D03*
X56490Y249221D03*
X46990Y249221D03*
X37490Y249221D03*
X37490Y223219D03*
X56490Y223219D03*
D13*
X77470Y203980D03*
X77470Y220980D03*
D12*
X166370Y232360D03*
X166370Y213360D03*
D13*
X210820Y222740D03*
X210820Y205740D03*
D14*
X185500Y218200D02*
X185502Y218341D01*
X185508Y218482D01*
X185518Y218622D01*
X185532Y218762D01*
X185550Y218902D01*
X185571Y219041D01*
X185597Y219180D01*
X185626Y219318D01*
X185660Y219454D01*
X185697Y219590D01*
X185738Y219725D01*
X185783Y219859D01*
X185832Y219991D01*
X185884Y220122D01*
X185940Y220251D01*
X186000Y220378D01*
X186063Y220504D01*
X186129Y220628D01*
X186200Y220751D01*
X186273Y220871D01*
X186350Y220989D01*
X186430Y221105D01*
X186514Y221218D01*
X186600Y221329D01*
X186690Y221438D01*
X186783Y221544D01*
X186878Y221647D01*
X186977Y221748D01*
X187078Y221846D01*
X187182Y221941D01*
X187289Y222033D01*
X187398Y222122D01*
X187510Y222207D01*
X187624Y222290D01*
X187740Y222370D01*
X187859Y222446D01*
X187980Y222518D01*
X188102Y222588D01*
X188227Y222653D01*
X188353Y222716D01*
X188481Y222774D01*
X188611Y222829D01*
X188742Y222881D01*
X188875Y222928D01*
X189009Y222972D01*
X189144Y223013D01*
X189280Y223049D01*
X189417Y223081D01*
X189555Y223110D01*
X189693Y223135D01*
X189833Y223155D01*
X189973Y223172D01*
X190113Y223185D01*
X190254Y223194D01*
X190394Y223199D01*
X190535Y223200D01*
X190676Y223197D01*
X190817Y223190D01*
X190957Y223179D01*
X191097Y223164D01*
X191237Y223145D01*
X191376Y223123D01*
X191514Y223096D01*
X191652Y223066D01*
X191788Y223031D01*
X191924Y222993D01*
X192058Y222951D01*
X192192Y222905D01*
X192324Y222856D01*
X192454Y222802D01*
X192583Y222745D01*
X192710Y222685D01*
X192836Y222621D01*
X192959Y222553D01*
X193081Y222482D01*
X193201Y222408D01*
X193318Y222330D01*
X193433Y222249D01*
X193546Y222165D01*
X193657Y222078D01*
X193765Y221987D01*
X193870Y221894D01*
X193973Y221797D01*
X194073Y221698D01*
X194170Y221596D01*
X194264Y221491D01*
X194355Y221384D01*
X194443Y221274D01*
X194528Y221162D01*
X194610Y221047D01*
X194689Y220930D01*
X194764Y220811D01*
X194836Y220690D01*
X194904Y220567D01*
X194969Y220442D01*
X195031Y220315D01*
X195088Y220186D01*
X195143Y220056D01*
X195193Y219925D01*
X195240Y219792D01*
X195283Y219658D01*
X195322Y219522D01*
X195357Y219386D01*
X195389Y219249D01*
X195416Y219111D01*
X195440Y218972D01*
X195460Y218832D01*
X195476Y218692D01*
X195488Y218552D01*
X195496Y218411D01*
X195500Y218270D01*
X195500Y218130D01*
X195496Y217989D01*
X195488Y217848D01*
X195476Y217708D01*
X195460Y217568D01*
X195440Y217428D01*
X195416Y217289D01*
X195389Y217151D01*
X195357Y217014D01*
X195322Y216878D01*
X195283Y216742D01*
X195240Y216608D01*
X195193Y216475D01*
X195143Y216344D01*
X195088Y216214D01*
X195031Y216085D01*
X194969Y215958D01*
X194904Y215833D01*
X194836Y215710D01*
X194764Y215589D01*
X194689Y215470D01*
X194610Y215353D01*
X194528Y215238D01*
X194443Y215126D01*
X194355Y215016D01*
X194264Y214909D01*
X194170Y214804D01*
X194073Y214702D01*
X193973Y214603D01*
X193870Y214506D01*
X193765Y214413D01*
X193657Y214322D01*
X193546Y214235D01*
X193433Y214151D01*
X193318Y214070D01*
X193201Y213992D01*
X193081Y213918D01*
X192959Y213847D01*
X192836Y213779D01*
X192710Y213715D01*
X192583Y213655D01*
X192454Y213598D01*
X192324Y213544D01*
X192192Y213495D01*
X192058Y213449D01*
X191924Y213407D01*
X191788Y213369D01*
X191652Y213334D01*
X191514Y213304D01*
X191376Y213277D01*
X191237Y213255D01*
X191097Y213236D01*
X190957Y213221D01*
X190817Y213210D01*
X190676Y213203D01*
X190535Y213200D01*
X190394Y213201D01*
X190254Y213206D01*
X190113Y213215D01*
X189973Y213228D01*
X189833Y213245D01*
X189693Y213265D01*
X189555Y213290D01*
X189417Y213319D01*
X189280Y213351D01*
X189144Y213387D01*
X189009Y213428D01*
X188875Y213472D01*
X188742Y213519D01*
X188611Y213571D01*
X188481Y213626D01*
X188353Y213684D01*
X188227Y213747D01*
X188102Y213812D01*
X187980Y213882D01*
X187859Y213954D01*
X187740Y214030D01*
X187624Y214110D01*
X187510Y214193D01*
X187398Y214278D01*
X187289Y214367D01*
X187182Y214459D01*
X187078Y214554D01*
X186977Y214652D01*
X186878Y214753D01*
X186783Y214856D01*
X186690Y214962D01*
X186600Y215071D01*
X186514Y215182D01*
X186430Y215295D01*
X186350Y215411D01*
X186273Y215529D01*
X186200Y215649D01*
X186129Y215772D01*
X186063Y215896D01*
X186000Y216022D01*
X185940Y216149D01*
X185884Y216278D01*
X185832Y216409D01*
X185783Y216541D01*
X185738Y216675D01*
X185697Y216810D01*
X185660Y216946D01*
X185626Y217082D01*
X185597Y217220D01*
X185571Y217359D01*
X185550Y217498D01*
X185532Y217638D01*
X185518Y217778D01*
X185508Y217918D01*
X185502Y218059D01*
X185500Y218200D01*
X185500Y188200D02*
X185502Y188341D01*
X185508Y188482D01*
X185518Y188622D01*
X185532Y188762D01*
X185550Y188902D01*
X185571Y189041D01*
X185597Y189180D01*
X185626Y189318D01*
X185660Y189454D01*
X185697Y189590D01*
X185738Y189725D01*
X185783Y189859D01*
X185832Y189991D01*
X185884Y190122D01*
X185940Y190251D01*
X186000Y190378D01*
X186063Y190504D01*
X186129Y190628D01*
X186200Y190751D01*
X186273Y190871D01*
X186350Y190989D01*
X186430Y191105D01*
X186514Y191218D01*
X186600Y191329D01*
X186690Y191438D01*
X186783Y191544D01*
X186878Y191647D01*
X186977Y191748D01*
X187078Y191846D01*
X187182Y191941D01*
X187289Y192033D01*
X187398Y192122D01*
X187510Y192207D01*
X187624Y192290D01*
X187740Y192370D01*
X187859Y192446D01*
X187980Y192518D01*
X188102Y192588D01*
X188227Y192653D01*
X188353Y192716D01*
X188481Y192774D01*
X188611Y192829D01*
X188742Y192881D01*
X188875Y192928D01*
X189009Y192972D01*
X189144Y193013D01*
X189280Y193049D01*
X189417Y193081D01*
X189555Y193110D01*
X189693Y193135D01*
X189833Y193155D01*
X189973Y193172D01*
X190113Y193185D01*
X190254Y193194D01*
X190394Y193199D01*
X190535Y193200D01*
X190676Y193197D01*
X190817Y193190D01*
X190957Y193179D01*
X191097Y193164D01*
X191237Y193145D01*
X191376Y193123D01*
X191514Y193096D01*
X191652Y193066D01*
X191788Y193031D01*
X191924Y192993D01*
X192058Y192951D01*
X192192Y192905D01*
X192324Y192856D01*
X192454Y192802D01*
X192583Y192745D01*
X192710Y192685D01*
X192836Y192621D01*
X192959Y192553D01*
X193081Y192482D01*
X193201Y192408D01*
X193318Y192330D01*
X193433Y192249D01*
X193546Y192165D01*
X193657Y192078D01*
X193765Y191987D01*
X193870Y191894D01*
X193973Y191797D01*
X194073Y191698D01*
X194170Y191596D01*
X194264Y191491D01*
X194355Y191384D01*
X194443Y191274D01*
X194528Y191162D01*
X194610Y191047D01*
X194689Y190930D01*
X194764Y190811D01*
X194836Y190690D01*
X194904Y190567D01*
X194969Y190442D01*
X195031Y190315D01*
X195088Y190186D01*
X195143Y190056D01*
X195193Y189925D01*
X195240Y189792D01*
X195283Y189658D01*
X195322Y189522D01*
X195357Y189386D01*
X195389Y189249D01*
X195416Y189111D01*
X195440Y188972D01*
X195460Y188832D01*
X195476Y188692D01*
X195488Y188552D01*
X195496Y188411D01*
X195500Y188270D01*
X195500Y188130D01*
X195496Y187989D01*
X195488Y187848D01*
X195476Y187708D01*
X195460Y187568D01*
X195440Y187428D01*
X195416Y187289D01*
X195389Y187151D01*
X195357Y187014D01*
X195322Y186878D01*
X195283Y186742D01*
X195240Y186608D01*
X195193Y186475D01*
X195143Y186344D01*
X195088Y186214D01*
X195031Y186085D01*
X194969Y185958D01*
X194904Y185833D01*
X194836Y185710D01*
X194764Y185589D01*
X194689Y185470D01*
X194610Y185353D01*
X194528Y185238D01*
X194443Y185126D01*
X194355Y185016D01*
X194264Y184909D01*
X194170Y184804D01*
X194073Y184702D01*
X193973Y184603D01*
X193870Y184506D01*
X193765Y184413D01*
X193657Y184322D01*
X193546Y184235D01*
X193433Y184151D01*
X193318Y184070D01*
X193201Y183992D01*
X193081Y183918D01*
X192959Y183847D01*
X192836Y183779D01*
X192710Y183715D01*
X192583Y183655D01*
X192454Y183598D01*
X192324Y183544D01*
X192192Y183495D01*
X192058Y183449D01*
X191924Y183407D01*
X191788Y183369D01*
X191652Y183334D01*
X191514Y183304D01*
X191376Y183277D01*
X191237Y183255D01*
X191097Y183236D01*
X190957Y183221D01*
X190817Y183210D01*
X190676Y183203D01*
X190535Y183200D01*
X190394Y183201D01*
X190254Y183206D01*
X190113Y183215D01*
X189973Y183228D01*
X189833Y183245D01*
X189693Y183265D01*
X189555Y183290D01*
X189417Y183319D01*
X189280Y183351D01*
X189144Y183387D01*
X189009Y183428D01*
X188875Y183472D01*
X188742Y183519D01*
X188611Y183571D01*
X188481Y183626D01*
X188353Y183684D01*
X188227Y183747D01*
X188102Y183812D01*
X187980Y183882D01*
X187859Y183954D01*
X187740Y184030D01*
X187624Y184110D01*
X187510Y184193D01*
X187398Y184278D01*
X187289Y184367D01*
X187182Y184459D01*
X187078Y184554D01*
X186977Y184652D01*
X186878Y184753D01*
X186783Y184856D01*
X186690Y184962D01*
X186600Y185071D01*
X186514Y185182D01*
X186430Y185295D01*
X186350Y185411D01*
X186273Y185529D01*
X186200Y185649D01*
X186129Y185772D01*
X186063Y185896D01*
X186000Y186022D01*
X185940Y186149D01*
X185884Y186278D01*
X185832Y186409D01*
X185783Y186541D01*
X185738Y186675D01*
X185697Y186810D01*
X185660Y186946D01*
X185626Y187082D01*
X185597Y187220D01*
X185571Y187359D01*
X185550Y187498D01*
X185532Y187638D01*
X185518Y187778D01*
X185508Y187918D01*
X185502Y188059D01*
X185500Y188200D01*
D20*
X137160Y106680D02*
X137160Y91440D01*
X162560Y91440D02*
X162560Y106680D01*
X90170Y106680D02*
X90170Y91440D01*
X115570Y91440D02*
X115570Y106680D01*
D21*
X191950Y165480D03*
X191950Y149480D03*
X150950Y149480D03*
X150950Y165480D03*
D22*
X105570Y192380D03*
X105570Y173380D03*
X126570Y182880D03*
D13*
X91440Y203590D03*
X91440Y220590D03*
D23*
X113165Y232410D03*
X145915Y232410D03*
X114435Y213360D03*
X147185Y213360D03*
D24*
X192790Y274450D03*
X192790Y259450D03*
D10*
X146350Y232845D02*
X145915Y232410D01*
X146350Y232845D02*
X146350Y245110D01*
X192786Y251206D02*
X192790Y259450D01*
X192786Y251206D02*
X186690Y245110D01*
X146350Y245110D01*
D11*
X145915Y232410D02*
X144780Y232410D01*
X45720Y214989D02*
X37490Y223219D01*
X45720Y214989D02*
X45720Y199390D01*
X49530Y195580D01*
X62230Y195580D02*
X62230Y207010D01*
X67895Y212675D01*
X96520Y212675D01*
X62230Y195580D02*
X49530Y195580D01*
X96520Y212675D02*
X100330Y208865D01*
X100330Y201930D02*
X102870Y199390D01*
X134620Y199390D01*
X139700Y227330D02*
X144780Y232410D01*
X100330Y208865D02*
X100330Y201930D01*
X134620Y199390D02*
X139700Y204470D01*
X139700Y227330D01*
X146350Y245110D02*
X146350Y255140D01*
X140000Y261490D01*
D10*
X150950Y149480D02*
X161290Y149480D01*
X170180Y149480D01*
X191950Y149480D01*
X192050Y149580D01*
X114000Y257810D02*
X114000Y261490D01*
X72390Y270510D02*
X46990Y270510D01*
X46990Y249221D01*
X105570Y173380D02*
X111760Y168460D01*
X111760Y148082D01*
D11*
X210820Y154940D02*
X210820Y205740D01*
X210820Y154940D02*
X205460Y149580D01*
X192050Y149580D01*
D25*
X93648Y259888D02*
X94000Y260240D01*
X93648Y259888D02*
X91000Y259520D01*
X97536Y175260D02*
X105156Y175260D01*
X97536Y175260D02*
X85598Y187198D01*
X32004Y216408D02*
X32004Y231648D01*
X45720Y245364D01*
X45720Y248412D01*
X105156Y175260D02*
X105285Y174673D01*
X105570Y173380D01*
X46990Y249221D02*
X45720Y248412D01*
X166116Y213360D02*
X166116Y193548D01*
X143256Y170688D01*
X143256Y158496D01*
X150876Y150876D01*
X166116Y213360D02*
X166370Y213360D01*
X150876Y150876D02*
X150950Y149480D01*
X162560Y259080D02*
X179832Y259080D01*
X162560Y259080D02*
X160017Y259080D01*
X179832Y259080D02*
X187452Y266700D01*
X198120Y266700D01*
X203200Y261620D01*
X160000Y260240D02*
X160017Y259080D01*
D26*
X120142Y139700D03*
D25*
X119500Y289240D02*
X120396Y290576D01*
X134500Y289240D02*
X135364Y286264D01*
D10*
X101600Y144780D02*
X85090Y144780D01*
D25*
X41187Y213057D02*
X35355Y213057D01*
X41187Y213057D02*
X42526Y211718D01*
X35355Y213057D02*
X32004Y216408D01*
X46736Y190754D02*
X54497Y190754D01*
X58053Y187198D01*
X42526Y194964D02*
X42526Y211718D01*
X42526Y194964D02*
X46736Y190754D01*
X58053Y187198D02*
X72390Y187198D01*
X76200Y187198D01*
X85598Y187198D01*
D10*
X163000Y259520D02*
X163000Y288240D01*
X163000Y259520D02*
X162560Y259080D01*
X162796Y288036D02*
X163000Y288240D01*
X162796Y288036D02*
X134112Y288036D01*
X135364Y286264D02*
X135928Y285700D01*
X134500Y289240D02*
X119500Y289240D01*
X92000Y289240D01*
X91000Y288240D01*
X91000Y259520D01*
X94000Y260240D02*
X96430Y257810D01*
X114000Y257810D01*
X94000Y260240D02*
X82660Y260240D01*
X72390Y270510D01*
D25*
X203200Y213360D02*
X210820Y205740D01*
X203200Y213360D02*
X203200Y261620D01*
D10*
X162560Y148210D02*
X162560Y99060D01*
X162560Y148210D02*
X161290Y149480D01*
D26*
X170180Y142240D03*
D25*
X170180Y149480D01*
X72390Y187198D02*
X72390Y194310D01*
X68580Y194310D01*
D26*
X68580Y194310D03*
D27*
X85090Y144780D02*
X85090Y143510D01*
D25*
X46990Y178769D02*
X46736Y179023D01*
X46736Y190754D01*
D10*
X115062Y144780D02*
X120142Y139700D01*
X115062Y144780D02*
X101600Y144780D01*
X111760Y148082D02*
X120142Y139700D01*
D25*
X62230Y143510D02*
X57150Y143510D01*
X71120Y165768D02*
X75664Y170312D01*
X75664Y186662D02*
X76200Y187198D01*
X75664Y186662D02*
X75664Y170312D01*
X71120Y152400D02*
X62230Y143510D01*
X71120Y152400D02*
X71120Y165768D01*
D26*
X136122Y188396D03*
D25*
X132914Y188396D01*
X129540Y191770D01*
X123190Y191770D01*
X106093Y174673D02*
X105285Y174673D01*
X106093Y174673D02*
X123190Y191770D01*
D10*
X147370Y213360D02*
X166370Y232360D01*
X147370Y213360D02*
X147185Y213360D01*
D25*
X37490Y244500D02*
X37490Y249221D01*
X37490Y244500D02*
X21590Y228600D01*
D10*
X147185Y213360D02*
X152400Y208145D01*
X137160Y172720D02*
X137160Y99060D01*
X152400Y187960D02*
X152400Y208145D01*
X152400Y187960D02*
X137160Y172720D01*
D26*
X29210Y151130D03*
D25*
X21590Y158750D01*
X21590Y228600D01*
X77470Y203980D02*
X77470Y202710D01*
X94760Y185420D01*
X112102Y185420D01*
X140434Y195580D02*
X145514Y200660D01*
D26*
X145514Y200660D03*
X204470Y269240D03*
D25*
X199390Y274320D01*
X192920Y274320D02*
X192790Y274450D01*
X192920Y274320D02*
X199390Y274320D01*
X112102Y192112D02*
X112102Y185420D01*
X115570Y195580D02*
X140434Y195580D01*
X115570Y195580D02*
X112102Y192112D01*
D11*
X56490Y238100D02*
X56490Y249221D01*
X56490Y238100D02*
X49530Y231140D01*
X49530Y215900D01*
X52070Y213360D01*
X60960Y213360D01*
X68580Y220980D02*
X77470Y220980D01*
X68580Y220980D02*
X60960Y213360D01*
D26*
X64770Y246380D03*
D25*
X210820Y222740D02*
X219710Y213850D01*
X219710Y157480D01*
D26*
X186690Y138430D03*
D25*
X200660Y138430D02*
X219710Y157480D01*
X200660Y138430D02*
X186690Y138430D01*
X56490Y223219D02*
X56490Y231750D01*
X64770Y240030D02*
X64770Y246380D01*
X64770Y240030D02*
X56490Y231750D01*
X123444Y248412D02*
X126492Y251460D01*
X126492Y260096D01*
X127000Y261490D01*
D26*
X83566Y233172D03*
D25*
X98806Y248412D02*
X123444Y248412D01*
X98806Y248412D02*
X83566Y233172D01*
X133500Y261490D02*
X133826Y261164D01*
X133826Y253793D01*
X125143Y245110D01*
X105410Y245110D01*
X93753Y233453D01*
D26*
X93753Y233453D03*
D10*
X56490Y162878D02*
X57150Y162510D01*
X56490Y166370D02*
X56490Y178769D01*
X56490Y166370D02*
X56490Y162878D01*
X56490Y178769D02*
X57150Y179429D01*
D25*
X37490Y178769D02*
X37490Y166980D01*
X38100Y166370D01*
D26*
X38100Y166370D03*
D25*
X56490Y166370D01*
D10*
X150950Y165480D02*
X191950Y165480D01*
D25*
X199950Y157480D01*
X201930Y157480D01*
D26*
X201930Y157480D03*
X133350Y234950D03*
X69850Y172720D03*
D25*
X67310Y170180D01*
X67310Y153670D01*
X46990Y153670D02*
X43180Y149860D01*
X43180Y142240D01*
D26*
X43180Y142240D03*
D25*
X46990Y153670D02*
X67310Y153670D01*
X91440Y220590D02*
X104140Y233290D01*
X104140Y236909D02*
X108531Y241300D01*
X127000Y241300D02*
X133350Y234950D01*
X104140Y233290D02*
X104140Y236909D01*
X108531Y241300D02*
X127000Y241300D01*
D10*
X114435Y231140D02*
X113165Y232410D01*
X114435Y231140D02*
X114435Y213360D01*
D25*
X114300Y228600D02*
X125984Y228600D01*
X114300Y228600D02*
X113165Y232410D01*
D26*
X125984Y228600D03*
D10*
X126570Y182880D02*
X126570Y135460D01*
X115570Y124460D02*
X115570Y99060D01*
X115570Y124460D02*
X126570Y135460D01*
X101380Y193650D02*
X91440Y203590D01*
X101380Y193650D02*
X105570Y192380D01*
D25*
X38100Y204216D02*
X37490Y204771D01*
X37010Y204291D02*
X38100Y204216D01*
D26*
X83820Y179832D03*
D25*
X85344Y178308D01*
X37010Y204291D02*
X29210Y196491D01*
X29210Y172720D01*
D26*
X29210Y172720D03*
D27*
X29210Y160020D01*
D25*
X36830Y152400D01*
X36830Y138430D01*
X40640Y134620D01*
D11*
X90170Y124460D02*
X90170Y99060D01*
X80010Y134620D02*
X72390Y134620D01*
X40640Y134620D01*
X80010Y134620D02*
X90170Y124460D01*
X72390Y134620D02*
X72390Y148590D01*
D25*
X72390Y149719D01*
X73914Y151243D01*
X73914Y151334D01*
X81940Y159360D01*
X85090Y162510D02*
X85090Y178054D01*
X85344Y178308D01*
D11*
X85090Y162510D02*
X100870Y162510D01*
X101600Y161780D01*
X85090Y162510D02*
X81940Y159360D01*
M02*
